Giphurs-ExtraBlack.ufo
<glyph name="exclam" format="2">
  <advance width="552"/>
  <unicode hex="0021"/>
  <outline>
    <contour>
      <point x="76" y="160" type="curve" smooth="yes"/>
      <point x="76" y="271"/>
      <point x="165" y="360"/>
      <point x="276" y="360" type="curve" smooth="yes"/>
      <point x="387" y="360"/>
      <point x="476" y="271"/>
      <point x="476" y="160" type="curve" smooth="yes"/>
      <point x="476" y="49"/>
      <point x="387" y="-40"/>
      <point x="276" y="-40" type="curve" smooth="yes"/>
      <point x="165" y="-40"/>
      <point x="76" y="49"/>
    </contour>
    <contour>
      <point x="70" y="1480" type="line"/>
      <point x="482" y="1480" type="line"/>
      <point x="436" y="452" type="line"/>
      <point x="116" y="452" type="line"/>
    </contour>
  </outline>
</glyph>
<glyph name="numbersign" format="2">
  <advance width="1602"/>
  <unicode hex="0023"/>
  <outline>
    <contour>
      <point x="70" y="320" type="line"/>
      <point x="70" y="640" type="line"/>
      <point x="1486" y="640" type="line"/>
      <point x="1486" y="320" type="line"/>
    </contour>
    <contour>
      <point x="116" y="840" type="line"/>
      <point x="116" y="1160" type="line"/>
      <point x="1532" y="1160" type="line"/>
      <point x="1532" y="840" type="line"/>
    </contour>
    <contour>
      <point x="1013" y="1480" type="line"/>
      <point x="1379" y="1480" type="line"/>
      <point x="1146" y="0" type="line"/>
      <point x="1078" y="0"/>
      <point x="848" y="0"/>
      <point x="780" y="0" type="curve"/>
    </contour>
    <contour>
      <point x="456" y="1480" type="line"/>
      <point x="822" y="1480" type="line"/>
      <point x="589" y="0" type="line"/>
      <point x="521" y="0"/>
      <point x="291" y="0"/>
      <point x="223" y="0" type="curve"/>
    </contour>
  </outline>
</glyph>
<glyph name="asterisk" format="2">
  <advance width="1186"/>
  <unicode hex="002A"/>
  <outline>
    <contour>
      <point x="50" y="951" type="line"/>
      <point x="163" y="1301" type="line"/>
      <point x="643" y="1120" type="line"/>
      <point x="593" y="968" type="line"/>
      <point x="544" y="816" type="line"/>
    </contour>
    <contour>
      <point x="441" y="446" type="line"/>
      <point x="143" y="662" type="line"/>
      <point x="464" y="1062" type="line"/>
      <point x="593" y="968" type="line"/>
      <point x="722" y="874" type="line"/>
    </contour>
    <contour>
      <point x="1043" y="662" type="line"/>
      <point x="745" y="446" type="line"/>
      <point x="464" y="874" type="line"/>
      <point x="593" y="968" type="line"/>
      <point x="722" y="1062" type="line"/>
    </contour>
    <contour>
      <point x="1023" y="1301" type="line"/>
      <point x="1136" y="951" type="line"/>
      <point x="642" y="816" type="line"/>
      <point x="593" y="968" type="line"/>
      <point x="543" y="1120" type="line"/>
    </contour>
    <contour>
      <point x="409" y="1480" type="line"/>
      <point x="777" y="1480" type="line"/>
      <point x="753" y="968" type="line"/>
      <point x="593" y="968" type="line"/>
      <point x="433" y="968" type="line"/>
    </contour>
  </outline>
</glyph>
<glyph name="plus" format="2">
  <advance width="1278"/>
  <unicode hex="002B"/>
  <outline>
    <contour>
      <point x="459" y="1230" type="line"/>
      <point x="819" y="1230" type="line"/>
      <point x="819" y="90" type="line"/>
      <point x="459" y="90" type="line"/>
    </contour>
    <contour>
      <point x="70" y="500" type="line"/>
      <point x="70" y="820" type="line"/>
      <point x="1208" y="820" type="line"/>
      <point x="1208" y="500" type="line"/>
    </contour>
  </outline>
</glyph>
<glyph name="comma" format="2">
  <advance width="500"/>
  <unicode hex="002C"/>
  <outline>
    <contour>
      <point x="17" y="170" type="curve" smooth="yes"/>
      <point x="17" y="281"/>
      <point x="106" y="370"/>
      <point x="217" y="370" type="curve" smooth="yes"/>
      <point x="328" y="370"/>
      <point x="417" y="281"/>
      <point x="417" y="170" type="curve" smooth="yes"/>
      <point x="417" y="59"/>
      <point x="328" y="-30"/>
      <point x="217" y="-30" type="curve" smooth="yes"/>
      <point x="106" y="-30"/>
      <point x="17" y="59"/>
    </contour>
    <contour>
      <point x="32" y="-141" type="line"/>
      <point x="161" y="-121"/>
      <point x="258" y="-56"/>
      <point x="258" y="32" type="curve" smooth="yes"/>
      <point x="258" y="76"/>
      <point x="219" y="170"/>
      <point x="219" y="170" type="curve"/>
      <point x="217" y="370" type="line"/>
      <point x="330" y="370"/>
      <point x="482" y="298"/>
      <point x="482" y="32" type="curve" smooth="yes"/>
      <point x="482" y="-179"/>
      <point x="251" y="-343"/>
      <point x="92" y="-371" type="curve"/>
    </contour>
  </outline>
</glyph>
<glyph name="period" format="2">
  <advance width="500"/>
  <unicode hex="002E"/>
  <outline>
    <contour>
      <point x="50" y="170" type="curve" smooth="yes"/>
      <point x="50" y="281"/>
      <point x="139" y="370"/>
      <point x="250" y="370" type="curve" smooth="yes"/>
      <point x="361" y="370"/>
      <point x="450" y="281"/>
      <point x="450" y="170" type="curve" smooth="yes"/>
      <point x="450" y="59"/>
      <point x="361" y="-30"/>
      <point x="250" y="-30" type="curve" smooth="yes"/>
      <point x="139" y="-30"/>
      <point x="50" y="59"/>
    </contour>
  </outline>
</glyph>
<glyph name="slash" format="2">
  <advance width="1211"/>
  <unicode hex="002F"/>
  <outline>
    <contour>
      <point x="1176" y="1640" type="line"/>
      <point x="415" y="-200" type="line"/>
      <point x="35" y="-200" type="line"/>
      <point x="796" y="1640" type="line"/>
    </contour>
  </outline>
</glyph>
<glyph name="zero" format="2">
  <advance width="1278"/>
  <unicode hex="0030"/>
  <outline>
    <contour>
      <point x="436" y="740" type="curve" smooth="yes"/>
      <point x="436" y="445"/>
      <point x="506" y="306"/>
      <point x="639" y="306" type="curve" smooth="yes"/>
      <point x="772" y="306"/>
      <point x="842" y="445"/>
      <point x="842" y="740" type="curve" smooth="yes"/>
      <point x="842" y="1035"/>
      <point x="772" y="1174"/>
      <point x="639" y="1174" type="curve" smooth="yes"/>
      <point x="506" y="1174"/>
      <point x="436" y="1035"/>
    </contour>
    <contour>
      <point x="56" y="740" type="curve" smooth="yes"/>
      <point x="56" y="1240"/>
      <point x="279" y="1510"/>
      <point x="639" y="1510" type="curve" smooth="yes"/>
      <point x="999" y="1510"/>
      <point x="1222" y="1240"/>
      <point x="1222" y="740" type="curve" smooth="yes"/>
      <point x="1222" y="240"/>
      <point x="999" y="-30"/>
      <point x="639" y="-30" type="curve" smooth="yes"/>
      <point x="279" y="-30"/>
      <point x="56" y="240"/>
    </contour>
  </outline>
</glyph>
<glyph name="one" format="2">
  <advance width="1278"/>
  <unicode hex="0031"/>
  <outline>
    <contour>
      <point x="580" y="848" type="line"/>
      <point x="200" y="848" type="line"/>
      <point x="200" y="1184" type="line"/>
      <point x="296" y="1184" type="line" smooth="yes"/>
      <point x="470" y="1184"/>
      <point x="604" y="1300"/>
      <point x="604" y="1448" type="curve" smooth="yes"/>
      <point x="604" y="1480" type="line"/>
      <point x="960" y="1480" type="line"/>
      <point x="960" y="1040" type="line"/>
      <point x="960" y="0" type="line"/>
      <point x="580" y="0" type="line"/>
    </contour>
  </outline>
</glyph>
<glyph name="three" format="2">
  <advance width="1278"/>
  <unicode hex="0033"/>
  <outline>
    <contour>
      <point x="638" y="936" type="line" smooth="yes"/>
      <point x="723" y="936"/>
      <point x="798" y="970"/>
      <point x="798" y="1050" type="curve" smooth="yes"/>
      <point x="798" y="1130"/>
      <point x="763" y="1174"/>
      <point x="638" y="1174" type="curve" smooth="yes"/>
      <point x="513" y="1174"/>
      <point x="460" y="1130"/>
      <point x="460" y="1050" type="curve"/>
      <point x="89" y="1150" type="line"/>
      <point x="134" y="1377"/>
      <point x="336" y="1510"/>
      <point x="638" y="1510" type="curve" smooth="yes"/>
      <point x="958" y="1510"/>
      <point x="1178" y="1341"/>
      <point x="1178" y="1058" type="curve" smooth="yes"/>
      <point x="1178" y="839"/>
      <point x="1032" y="781"/>
      <point x="1032" y="781" type="curve"/>
      <point x="1032" y="781"/>
      <point x="1232" y="685"/>
      <point x="1232" y="453" type="curve" smooth="yes"/>
      <point x="1232" y="120"/>
      <point x="998" y="-30"/>
      <point x="638" y="-30" type="curve" smooth="yes"/>
      <point x="353" y="-30"/>
      <point x="89" y="91"/>
      <point x="46" y="361" type="curve"/>
      <point x="419" y="461" type="line"/>
      <point x="419" y="361"/>
      <point x="488" y="306"/>
      <point x="638" y="306" type="curve" smooth="yes"/>
      <point x="788" y="306"/>
      <point x="852" y="361"/>
      <point x="852" y="461" type="curve" smooth="yes"/>
      <point x="852" y="561"/>
      <point x="788" y="616"/>
      <point x="638" y="616" type="curve" smooth="yes"/>
      <point x="524" y="616" type="line"/>
      <point x="524" y="936" type="line"/>
    </contour>
  </outline>
</glyph>
<glyph name="four" format="2">
  <advance width="1232"/>
  <unicode hex="0034"/>
  <outline>
    <contour>
      <point x="47" y="572" type="line"/>
      <point x="479" y="1480" type="line"/>
      <point x="885" y="1480" type="line"/>
      <point x="458" y="572" type="line"/>
      <point x="665" y="572" type="line"/>
      <point x="665" y="808" type="line"/>
      <point x="1045" y="808" type="line"/>
      <point x="1045" y="572" type="line"/>
      <point x="1185" y="572" type="line"/>
      <point x="1185" y="236" type="line"/>
      <point x="1045" y="236" type="line"/>
      <point x="1045" y="0" type="line"/>
      <point x="665" y="0" type="line"/>
      <point x="665" y="236" type="line"/>
      <point x="47" y="236" type="line"/>
    </contour>
  </outline>
</glyph>
<glyph name="five" format="2">
  <advance width="1278"/>
  <unicode hex="0035"/>
  <outline>
    <contour>
      <point x="437" y="615" type="curve"/>
      <point x="243" y="678" type="line"/>
      <point x="325" y="829"/>
      <point x="424" y="1012"/>
      <point x="647" y="1012" type="curve" smooth="yes"/>
      <point x="996" y="1012"/>
      <point x="1224" y="802"/>
      <point x="1224" y="491" type="curve" smooth="yes"/>
      <point x="1224" y="180"/>
      <point x="996" y="-30"/>
      <point x="646" y="-30" type="curve" smooth="yes"/>
      <point x="351" y="-30"/>
      <point x="97" y="91"/>
      <point x="54" y="361" type="curve"/>
      <point x="427" y="461" type="line"/>
      <point x="427" y="361"/>
      <point x="496" y="306"/>
      <point x="646" y="306" type="curve" smooth="yes"/>
      <point x="767" y="306"/>
      <point x="844" y="371"/>
      <point x="844" y="491" type="curve" smooth="yes"/>
      <point x="844" y="611"/>
      <point x="747" y="676"/>
      <point x="627" y="676" type="curve" smooth="yes"/>
      <point x="573" y="676"/>
      <point x="480" y="668"/>
    </contour>
    <contour>
      <point x="456" y="678" type="line"/>
      <point x="243" y="678" type="line"/>
      <point x="112" y="720" type="line"/>
      <point x="220" y="1480" type="line"/>
      <point x="277" y="1480"/>
      <point x="517" y="1480"/>
      <point x="574" y="1480" type="curve"/>
    </contour>
    <contour>
      <point x="363" y="1144" type="line"/>
      <point x="574" y="1480" type="line"/>
      <point x="1152" y="1480" type="line"/>
      <point x="1152" y="1144" type="line"/>
    </contour>
  </outline>
</glyph>
<glyph name="six" format="2">
  <advance width="1232"/>
  <unicode hex="0036"/>
  <outline>
    <contour>
      <point x="773" y="1510" type="curve" smooth="yes"/>
      <point x="1015" y="1510"/>
      <point x="1187" y="1370"/>
      <point x="1187" y="1370" type="curve"/>
      <point x="1029" y="1077" type="line"/>
      <point x="1029" y="1077"/>
      <point x="946" y="1174"/>
      <point x="686" y="1174" type="curve" smooth="yes"/>
      <point x="536" y="1174"/>
      <point x="380" y="1016"/>
      <point x="380" y="716" type="curve" smooth="yes"/>
      <point x="380" y="486"/>
      <point x="495" y="282"/>
      <point x="495" y="282" type="curve"/>
      <point x="165" y="194" type="line"/>
      <point x="165" y="194"/>
      <point x="23" y="376"/>
      <point x="23" y="696" type="curve" smooth="yes"/>
      <point x="23" y="1206"/>
      <point x="291" y="1510"/>
    </contour>
    <contour>
      <point x="433" y="491" type="curve" smooth="yes"/>
      <point x="433" y="371"/>
      <point x="511" y="306"/>
      <point x="631" y="306" type="curve" smooth="yes"/>
      <point x="751" y="306"/>
      <point x="829" y="371"/>
      <point x="829" y="491" type="curve" smooth="yes"/>
      <point x="829" y="611"/>
      <point x="751" y="676"/>
      <point x="631" y="676" type="curve" smooth="yes"/>
      <point x="511" y="676"/>
      <point x="433" y="611"/>
    </contour>
    <contour>
      <point x="79" y="491" type="curve"/>
      <point x="169" y="491" type="line"/>
      <point x="169" y="614"/>
      <point x="322" y="1012"/>
      <point x="631" y="1012" type="curve" smooth="yes"/>
      <point x="980" y="1012"/>
      <point x="1209" y="802"/>
      <point x="1209" y="491" type="curve" smooth="yes"/>
      <point x="1209" y="180"/>
      <point x="980" y="-30"/>
      <point x="631" y="-30" type="curve" smooth="yes"/>
      <point x="282" y="-30"/>
      <point x="79" y="200"/>
    </contour>
  </outline>
</glyph>
<glyph name="seven" format="2">
  <advance width="1232"/>
  <unicode hex="0037"/>
  <outline>
    <contour>
      <point x="749" y="1144" type="curve"/>
      <point x="1205" y="1172" type="line"/>
      <point x="1205" y="1172"/>
      <point x="687" y="837"/>
      <point x="599" y="0" type="curve"/>
      <point x="528" y="0"/>
      <point x="290" y="0"/>
      <point x="219" y="0" type="curve"/>
      <point x="303" y="840"/>
      <point x="749" y="1144"/>
    </contour>
    <contour>
      <point x="27" y="1144" type="line"/>
      <point x="27" y="1480" type="line"/>
      <point x="1205" y="1480" type="line"/>
      <point x="1205" y="1172" type="line"/>
      <point x="749" y="1144" type="line"/>
    </contour>
  </outline>
</glyph>
<glyph name="eight" format="2">
  <advance width="1278"/>
  <unicode hex="0038"/>
  <outline>
    <contour>
      <point x="1214" y="445" type="curve" smooth="yes"/>
      <point x="1214" y="735"/>
      <point x="967" y="896"/>
      <point x="639" y="896" type="curve" smooth="yes"/>
      <point x="311" y="896"/>
      <point x="64" y="735"/>
      <point x="64" y="445" type="curve" smooth="yes"/>
      <point x="64" y="155"/>
      <point x="306" y="-30"/>
      <point x="639" y="-30" type="curve" smooth="yes"/>
      <point x="972" y="-30"/>
      <point x="1214" y="155"/>
    </contour>
    <contour>
      <point x="444" y="453" type="curve" smooth="yes"/>
      <point x="444" y="548"/>
      <point x="538" y="600"/>
      <point x="639" y="600" type="curve" smooth="yes"/>
      <point x="740" y="600"/>
      <point x="834" y="548"/>
      <point x="834" y="453" type="curve" smooth="yes"/>
      <point x="834" y="358"/>
      <point x="740" y="306"/>
      <point x="639" y="306" type="curve"/>
      <point x="538" y="306"/>
      <point x="444" y="358"/>
    </contour>
    <contour>
      <point x="1178" y="1051" type="curve" smooth="yes"/>
      <point x="1178" y="1306"/>
      <point x="959" y="1510"/>
      <point x="639" y="1510" type="curve" smooth="yes"/>
      <point x="319" y="1510"/>
      <point x="100" y="1306"/>
      <point x="100" y="1051" type="curve" smooth="yes"/>
      <point x="100" y="796"/>
      <point x="303" y="620"/>
      <point x="639" y="620" type="curve" smooth="yes"/>
      <point x="975" y="620"/>
      <point x="1178" y="796"/>
    </contour>
    <contour>
      <point x="480" y="1045" type="curve" smooth="yes"/>
      <point x="480" y="1117"/>
      <point x="547" y="1174"/>
      <point x="639" y="1174" type="curve" smooth="yes"/>
      <point x="731" y="1174"/>
      <point x="798" y="1117"/>
      <point x="798" y="1045" type="curve" smooth="yes"/>
      <point x="798" y="973"/>
      <point x="731" y="916"/>
      <point x="639" y="916" type="curve"/>
      <point x="547" y="916"/>
      <point x="480" y="973"/>
    </contour>
  </outline>
</glyph>
<glyph name="colon" format="2">
  <advance width="540"/>
  <unicode hex="003A"/>
  <outline>
    <contour>
      <point x="70" y="930" type="curve" smooth="yes"/>
      <point x="70" y="1041"/>
      <point x="159" y="1130"/>
      <point x="270" y="1130" type="curve" smooth="yes"/>
      <point x="381" y="1130"/>
      <point x="470" y="1041"/>
      <point x="470" y="930" type="curve" smooth="yes"/>
      <point x="470" y="819"/>
      <point x="381" y="730"/>
      <point x="270" y="730" type="curve" smooth="yes"/>
      <point x="159" y="730"/>
      <point x="70" y="819"/>
    </contour>
    <contour>
      <point x="70" y="170" type="curve" smooth="yes"/>
      <point x="70" y="281"/>
      <point x="159" y="370"/>
      <point x="270" y="370" type="curve" smooth="yes"/>
      <point x="381" y="370"/>
      <point x="470" y="281"/>
      <point x="470" y="170" type="curve" smooth="yes"/>
      <point x="470" y="59"/>
      <point x="381" y="-30"/>
      <point x="270" y="-30" type="curve" smooth="yes"/>
      <point x="159" y="-30"/>
      <point x="70" y="59"/>
    </contour>
  </outline>
</glyph>
<glyph name="semicolon" format="2">
  <advance width="605"/>
  <unicode hex="003B"/>
  <outline>
    <contour>
      <point x="70" y="170" type="curve" smooth="yes"/>
      <point x="70" y="281"/>
      <point x="159" y="370"/>
      <point x="270" y="370" type="curve" smooth="yes"/>
      <point x="381" y="370"/>
      <point x="470" y="281"/>
      <point x="470" y="170" type="curve" smooth="yes"/>
      <point x="470" y="59"/>
      <point x="381" y="-30"/>
      <point x="270" y="-30" type="curve" smooth="yes"/>
      <point x="159" y="-30"/>
      <point x="70" y="59"/>
    </contour>
    <contour>
      <point x="85" y="-141" type="line"/>
      <point x="214" y="-121"/>
      <point x="311" y="-56"/>
      <point x="311" y="32" type="curve" smooth="yes"/>
      <point x="311" y="76"/>
      <point x="272" y="170"/>
      <point x="272" y="170" type="curve"/>
      <point x="270" y="370" type="line"/>
      <point x="383" y="370"/>
      <point x="535" y="298"/>
      <point x="535" y="32" type="curve" smooth="yes"/>
      <point x="535" y="-179"/>
      <point x="304" y="-343"/>
      <point x="145" y="-371" type="curve"/>
    </contour>
    <contour>
      <point x="70" y="930" type="curve" smooth="yes"/>
      <point x="70" y="1041"/>
      <point x="159" y="1130"/>
      <point x="270" y="1130" type="curve" smooth="yes"/>
      <point x="381" y="1130"/>
      <point x="470" y="1041"/>
      <point x="470" y="930" type="curve" smooth="yes"/>
      <point x="470" y="819"/>
      <point x="381" y="730"/>
      <point x="270" y="730" type="curve" smooth="yes"/>
      <point x="159" y="730"/>
      <point x="70" y="819"/>
    </contour>
  </outline>
</glyph>
<glyph name="less" format="2">
  <advance width="1232"/>
  <unicode hex="003C"/>
  <outline>
    <contour>
      <point x="70" y="498" type="line"/>
      <point x="70" y="822" type="line"/>
      <point x="1162" y="1274" type="line"/>
      <point x="1162" y="930" type="line"/>
      <point x="472" y="660" type="line"/>
      <point x="1162" y="390" type="line"/>
      <point x="1162" y="46" type="line"/>
    </contour>
  </outline>
</glyph>
<glyph name="equal" format="2">
  <advance width="1232"/>
  <unicode hex="003D"/>
  <outline>
    <contour>
      <point x="1162" y="1070" type="line"/>
      <point x="1162" y="750" type="line"/>
      <point x="70" y="750" type="line"/>
      <point x="70" y="1070" type="line"/>
    </contour>
    <contour>
      <point x="70" y="250" type="line"/>
      <point x="70" y="570" type="line"/>
      <point x="1162" y="570" type="line"/>
      <point x="1162" y="250" type="line"/>
    </contour>
  </outline>
</glyph>
<glyph name="greater" format="2">
  <advance width="1278"/>
  <unicode hex="003E"/>
  <outline>
    <contour>
      <point x="1208" y="498" type="line"/>
      <point x="70" y="46" type="line"/>
      <point x="70" y="390" type="line"/>
      <point x="806" y="660" type="line"/>
      <point x="70" y="930" type="line"/>
      <point x="70" y="1274" type="line"/>
      <point x="1208" y="822" type="line"/>
    </contour>
  </outline>
</glyph>
<glyph name="at" format="2">
  <advance width="2080"/>
  <unicode hex="0040"/>
  <outline>
    <contour>
      <point x="1030" y="1510" type="curve" smooth="yes"/>
      <point x="1590" y="1510"/>
      <point x="2030" y="1180"/>
      <point x="2030" y="660" type="curve"/>
      <point x="1670" y="660" type="line"/>
      <point x="1670" y="980"/>
      <point x="1440" y="1190"/>
      <point x="1040" y="1190" type="curve" smooth="yes"/>
      <point x="640" y="1190"/>
      <point x="410" y="900"/>
      <point x="410" y="580" type="curve" smooth="yes"/>
      <point x="410" y="260"/>
      <point x="640" y="-30"/>
      <point x="1040" y="-30" type="curve" smooth="yes"/>
      <point x="1213" y="-30"/>
      <point x="1356" y="16"/>
      <point x="1463" y="106" type="curve"/>
      <point x="1676" y="-148" type="line"/>
      <point x="1504" y="-280"/>
      <point x="1284" y="-350"/>
      <point x="1040" y="-350" type="curve" smooth="yes"/>
      <point x="480" y="-350"/>
      <point x="50" y="60"/>
      <point x="50" y="580" type="curve" smooth="yes"/>
      <point x="50" y="1100"/>
      <point x="470" y="1510"/>
    </contour>
    <contour>
      <point x="1033" y="713" type="curve" smooth="yes"/>
      <point x="973" y="713"/>
      <point x="928" y="670"/>
      <point x="915" y="580" type="curve" smooth="yes"/>
      <point x="913" y="569"/>
      <point x="913" y="559"/>
      <point x="913" y="549" type="curve" smooth="yes"/>
      <point x="913" y="480"/>
      <point x="942" y="457"/>
      <point x="995" y="457" type="curve" smooth="yes"/>
      <point x="1055" y="457"/>
      <point x="1097" y="490"/>
      <point x="1113" y="580" type="curve" smooth="yes"/>
      <point x="1115" y="591"/>
      <point x="1115" y="601"/>
      <point x="1115" y="611" type="curve" smooth="yes"/>
      <point x="1115" y="680"/>
      <point x="1086" y="713"/>
    </contour>
    <contour>
      <point x="1058" y="1023" type="curve" smooth="yes"/>
      <point x="1139" y="1023"/>
      <point x="1174" y="971"/>
      <point x="1179" y="963" type="curve"/>
      <point x="1185" y="1004" type="line"/>
      <point x="1534" y="1004" type="line"/>
      <point x="1463" y="580" type="line" smooth="yes"/>
      <point x="1420" y="335"/>
      <point x="1200" y="137"/>
      <point x="950" y="137" type="curve" smooth="yes"/>
      <point x="720" y="137"/>
      <point x="551" y="299"/>
      <point x="551" y="521" type="curve" smooth="yes"/>
      <point x="551" y="540"/>
      <point x="552" y="580"/>
      <point x="555" y="600" type="curve" smooth="yes"/>
      <point x="590" y="850"/>
      <point x="808" y="1023"/>
    </contour>
    <contour>
      <point x="1531" y="128" type="curve" smooth="yes"/>
      <point x="1304" y="128"/>
      <point x="1106" y="254"/>
      <point x="1106" y="497" type="curve" smooth="yes"/>
      <point x="1106" y="523"/>
      <point x="1107" y="538"/>
      <point x="1113" y="580" type="curve"/>
      <point x="1463" y="580" type="line"/>
      <point x="1463" y="580"/>
      <point x="1460" y="558"/>
      <point x="1460" y="546" type="curve" smooth="yes"/>
      <point x="1460" y="507"/>
      <point x="1473" y="447"/>
      <point x="1556" y="447" type="curve" smooth="yes"/>
      <point x="1640" y="447"/>
      <point x="1670" y="561"/>
      <point x="1670" y="660" type="curve"/>
      <point x="2030" y="660" type="line"/>
      <point x="2030" y="360"/>
      <point x="1819" y="128"/>
    </contour>
  </outline>
</glyph>
<glyph name="B" format="2">
  <advance width="1372"/>
  <unicode hex="0042"/>
  <anchor x="622" y="0" name="bottom_center"/>
  <anchor x="622" y="1380" name="top_center"/>
  <outline>
    <contour>
      <point x="751" y="1480" type="line"/>
      <point x="1075" y="1480"/>
      <point x="1245" y="1280"/>
      <point x="1245" y="1060" type="curve" smooth="yes"/>
      <point x="1245" y="840"/>
      <point x="1015" y="656"/>
      <point x="751" y="656" type="curve"/>
      <point x="751" y="976" type="line"/>
      <point x="841" y="976"/>
      <point x="865" y="1012"/>
      <point x="865" y="1062" type="curve" smooth="yes"/>
      <point x="865" y="1112"/>
      <point x="841" y="1144"/>
      <point x="751" y="1144" type="curve"/>
      <point x="450" y="1144" type="line"/>
      <point x="450" y="1480" type="line"/>
    </contour>
    <contour>
      <point x="450" y="336" type="line"/>
      <point x="751" y="336" type="line"/>
      <point x="871" y="336"/>
      <point x="942" y="416"/>
      <point x="942" y="496" type="curve" smooth="yes"/>
      <point x="942" y="576"/>
      <point x="871" y="656"/>
      <point x="751" y="656" type="curve"/>
      <point x="450" y="656" type="line"/>
    </contour>
    <contour>
      <point x="70" y="1480" type="line"/>
      <point x="450" y="1480" type="line"/>
      <point x="450" y="976" type="line"/>
      <point x="751" y="976" type="line"/>
      <point x="1117" y="976"/>
      <point x="1322" y="751"/>
      <point x="1322" y="496" type="curve" smooth="yes"/>
      <point x="1322" y="241"/>
      <point x="1117" y="0"/>
      <point x="751" y="0" type="curve"/>
      <point x="70" y="0" type="line"/>
    </contour>
  </outline>
</glyph>
<glyph name="E" format="2">
  <advance width="1254"/>
  <unicode hex="0045"/>
  <anchor x="-138" y="1040" name="greek_v"/>
  <anchor x="-354" y="1040" name="greek_t"/>
  <anchor x="-198" y="1040" name="greek_k"/>
  <anchor x="-389" y="1040" name="greek_kt"/>
  <anchor x="627" y="-20" name="bottom_cedilla"/>
  <anchor x="1184" y="0" name="bottom_right"/>
  <anchor x="627" y="0" name="bottom_center"/>
  <anchor x="627" y="1380" name="top_center"/>
  <outline>
    <contour>
      <point x="1070" y="908" type="line"/>
      <point x="1070" y="572" type="line"/>
      <point x="450" y="572" type="line"/>
      <point x="450" y="336" type="line"/>
      <point x="1184" y="336" type="line"/>
      <point x="1184" y="0" type="line"/>
      <point x="70" y="0" type="line"/>
      <point x="70" y="1480" type="line"/>
      <point x="1184" y="1480" type="line"/>
      <point x="1184" y="1144" type="line"/>
      <point x="450" y="1144" type="line"/>
      <point x="450" y="908" type="line"/>
    </contour>
  </outline>
</glyph>
<glyph name="F" format="2">
  <advance width="1219"/>
  <unicode hex="0046"/>
  <anchor x="627" y="1380" name="top_center"/>
  <anchor x="260" y="0" name="bottom_center"/>
  <outline>
    <contour>
      <point x="450" y="219" type="line"/>
      <point x="450" y="0" type="line"/>
      <point x="70" y="0" type="line"/>
      <point x="70" y="1480" type="line"/>
      <point x="1184" y="1480" type="line"/>
      <point x="1184" y="1144" type="line"/>
      <point x="450" y="1144" type="line"/>
      <point x="450" y="908" type="line"/>
      <point x="1070" y="908" type="line"/>
      <point x="1070" y="572" type="line"/>
      <point x="450" y="572" type="line"/>
    </contour>
  </outline>
</glyph>
<glyph name="H" format="2">
  <advance width="1482"/>
  <unicode hex="0048"/>
  <anchor x="-389" y="1040" name="greek_kt"/>
  <anchor x="-198" y="1040" name="greek_k"/>
  <anchor x="-354" y="1040" name="greek_t"/>
  <anchor x="-138" y="1040" name="greek_v"/>
  <anchor x="743" y="1380" name="top_center"/>
  <anchor x="743" y="0" name="bottom_center"/>
  <anchor x="260" y="-20" name="bottom_cedilla"/>
  <anchor x="743" y="-90" name="bottom_ypogegrammeni"/>
  <outline>
    <contour>
      <point x="70" y="1480" type="line"/>
      <point x="450" y="1480" type="line"/>
      <point x="450" y="908" type="line"/>
      <point x="1032" y="908" type="line"/>
      <point x="1032" y="1480" type="line"/>
      <point x="1412" y="1480" type="line"/>
      <point x="1412" y="0" type="line"/>
      <point x="1032" y="0" type="line"/>
      <point x="1032" y="572" type="line"/>
      <point x="450" y="572" type="line"/>
      <point x="450" y="0" type="line"/>
      <point x="70" y="0" type="line"/>
    </contour>
  </outline>
</glyph>
<glyph name="J" format="2">
  <advance width="1285"/>
  <unicode hex="004A"/>
  <anchor x="629" y="0" name="bottom_center"/>
  <anchor x="1025" y="1380" name="top_center"/>
  <outline>
    <contour>
      <point x="437" y="569" type="line"/>
      <point x="437" y="569"/>
      <point x="430" y="543"/>
      <point x="430" y="485" type="curve" smooth="yes"/>
      <point x="430" y="385"/>
      <point x="514" y="306"/>
      <point x="629" y="306" type="curve" smooth="yes"/>
      <point x="744" y="306"/>
      <point x="835" y="385"/>
      <point x="835" y="485" type="curve" smooth="yes"/>
      <point x="835" y="1480" type="line"/>
      <point x="1215" y="1480" type="line"/>
      <point x="1215" y="485" type="line" smooth="yes"/>
      <point x="1215" y="165"/>
      <point x="965" y="-30"/>
      <point x="629" y="-30" type="curve" smooth="yes"/>
      <point x="293" y="-30"/>
      <point x="50" y="165"/>
      <point x="50" y="485" type="curve"/>
    </contour>
  </outline>
</glyph>
<glyph name="K" format="2">
  <advance width="1463"/>
  <unicode hex="004B"/>
  <anchor x="741" y="0" name="bottom_center"/>
  <anchor x="741" y="1380" name="top_center"/>
  <outline>
    <contour>
      <point x="453" y="801" type="line"/>
      <point x="792" y="925" type="line"/>
      <point x="1458" y="0" type="line"/>
      <point x="1018" y="0" type="line"/>
    </contour>
    <contour>
      <point x="450" y="450" type="line"/>
      <point x="450" y="0" type="line"/>
      <point x="70" y="0" type="line"/>
      <point x="70" y="1480" type="line"/>
      <point x="450" y="1480" type="line"/>
      <point x="450" y="940" type="line"/>
      <point x="978" y="1480" type="line"/>
      <point x="1050" y="1480"/>
      <point x="1386" y="1480"/>
      <point x="1458" y="1480" type="curve"/>
    </contour>
  </outline>
</glyph>
<glyph name="L" format="2">
  <advance width="1254"/>
  <unicode hex="004C"/>
  <anchor x="627" y="0" name="bottom_center"/>
  <anchor x="260" y="1380" name="top_center"/>
  <outline>
    <contour>
      <point x="450" y="1480" type="line"/>
      <point x="450" y="336" type="line"/>
      <point x="1184" y="336" type="line"/>
      <point x="1184" y="0" type="line"/>
      <point x="70" y="0" type="line"/>
      <point x="70" y="1480" type="line"/>
    </contour>
  </outline>
</glyph>
<glyph name="R" format="2">
  <advance width="1318"/>
  <unicode hex="0052"/>
  <anchor x="619" y="0" name="bottom_center"/>
  <anchor x="619" y="1380" name="top_center"/>
  <outline>
    <contour>
      <point x="395" y="643" type="line"/>
      <point x="812" y="660" type="line"/>
      <point x="1288" y="0" type="line"/>
      <point x="848" y="0" type="line"/>
    </contour>
    <contour>
      <point x="450" y="1144" type="line"/>
      <point x="450" y="824" type="line"/>
      <point x="637" y="824" type="line"/>
      <point x="757" y="824"/>
      <point x="828" y="874"/>
      <point x="828" y="984" type="curve" smooth="yes"/>
      <point x="828" y="1094"/>
      <point x="757" y="1144"/>
      <point x="637" y="1144" type="curve"/>
    </contour>
    <contour>
      <point x="70" y="0" type="line"/>
      <point x="70" y="1480" type="line"/>
      <point x="637" y="1480" type="line"/>
      <point x="1023" y="1480"/>
      <point x="1208" y="1239"/>
      <point x="1208" y="984" type="curve" smooth="yes"/>
      <point x="1208" y="729"/>
      <point x="1023" y="488"/>
      <point x="637" y="488" type="curve"/>
      <point x="450" y="488" type="line"/>
      <point x="450" y="0" type="line"/>
    </contour>
  </outline>
</glyph>
<glyph name="U" format="2">
  <advance width="1482"/>
  <unicode hex="0055"/>
  <anchor x="741" y="-20" name="bottom_cedilla"/>
  <anchor x="741" y="1380" name="top_center"/>
  <anchor x="1412" y="1480" name="top_right"/>
  <anchor x="741" y="0" name="bottom_center"/>
  <anchor x="973" y="0" name="bottom_right"/>
  <outline>
    <contour>
      <point x="450" y="1480" type="line"/>
      <point x="450" y="600" type="line"/>
      <point x="450" y="390"/>
      <point x="591" y="306"/>
      <point x="741" y="306" type="curve" smooth="yes"/>
      <point x="891" y="306"/>
      <point x="1032" y="390"/>
      <point x="1032" y="600" type="curve"/>
      <point x="1032" y="1480" type="line"/>
      <point x="1412" y="1480" type="line"/>
      <point x="1412" y="600" type="line"/>
      <point x="1412" y="240"/>
      <point x="1173" y="-30"/>
      <point x="741" y="-30" type="curve" smooth="yes"/>
      <point x="309" y="-30"/>
      <point x="70" y="240"/>
      <point x="70" y="600" type="curve"/>
      <point x="70" y="1480" type="line"/>
    </contour>
  </outline>
</glyph>
<glyph name="backslash" format="2">
  <advance width="1211"/>
  <unicode hex="005C"/>
  <outline>
    <contour>
      <point x="35" y="1640" type="line"/>
      <point x="415" y="1640" type="line"/>
      <point x="1176" y="-200" type="line"/>
      <point x="796" y="-200" type="line"/>
    </contour>
  </outline>
</glyph>
<glyph name="asciicircum" format="2">
  <advance width="1176"/>
  <unicode hex="005E"/>
  <outline>
    <contour>
      <point x="754" y="656" type="line"/>
      <point x="589" y="1080" type="line"/>
      <point x="422" y="656" type="line"/>
      <point x="50" y="656" type="line"/>
      <point x="412" y="1480" type="line"/>
      <point x="764" y="1480" type="line"/>
      <point x="1126" y="656" type="line"/>
    </contour>
  </outline>
</glyph>
<glyph name="d" format="2">
  <advance width="1250"/>
  <unicode hex="0064"/>
  <anchor x="555" y="-20" name="bottom_cedilla"/>
  <anchor x="555" y="0" name="bottom_center"/>
  <anchor x="1000" y="1380" name="top_center"/>
  <anchor x="1180" y="1480" name="top_right"/>
  <outline>
    <contour>
      <point x="820" y="510" type="curve" smooth="yes"/>
      <point x="820" y="640"/>
      <point x="757" y="750"/>
      <point x="620" y="750" type="curve" smooth="yes"/>
      <point x="483" y="750"/>
      <point x="410" y="650"/>
      <point x="410" y="520" type="curve" smooth="yes"/>
      <point x="410" y="390"/>
      <point x="483" y="290"/>
      <point x="620" y="290" type="curve" smooth="yes"/>
      <point x="751" y="290"/>
      <point x="820" y="380"/>
    </contour>
    <contour>
      <point x="1180" y="168" type="line"/>
      <point x="1180" y="66"/>
      <point x="1204" y="0"/>
      <point x="1204" y="0" type="curve"/>
      <point x="856" y="0" type="line"/>
      <point x="856" y="0"/>
      <point x="832" y="60"/>
      <point x="832" y="120" type="curve"/>
      <point x="832" y="80"/>
      <point x="705" y="-30"/>
      <point x="555" y="-30" type="curve" smooth="yes"/>
      <point x="235" y="-30"/>
      <point x="50" y="200"/>
      <point x="50" y="520" type="curve" smooth="yes"/>
      <point x="50" y="840"/>
      <point x="235" y="1070"/>
      <point x="555" y="1070" type="curve" smooth="yes"/>
      <point x="705" y="1070"/>
      <point x="810" y="959"/>
      <point x="820" y="920" type="curve"/>
      <point x="820" y="1480" type="line"/>
      <point x="1180" y="1480" type="line"/>
    </contour>
  </outline>
</glyph>
<glyph name="q" format="2">
  <advance width="1250"/>
  <unicode hex="0071"/>
  <anchor x="1000" y="-360" name="bottom_center"/>
  <anchor x="620" y="1040" name="top_center"/>
  <outline>
    <contour>
      <point x="820" y="530" type="curve" smooth="yes"/>
      <point x="820" y="660"/>
      <point x="751" y="750"/>
      <point x="620" y="750" type="curve" smooth="yes"/>
      <point x="483" y="750"/>
      <point x="410" y="650"/>
      <point x="410" y="520" type="curve" smooth="yes"/>
      <point x="410" y="390"/>
      <point x="483" y="290"/>
      <point x="620" y="290" type="curve" smooth="yes"/>
      <point x="757" y="290"/>
      <point x="820" y="400"/>
    </contour>
    <contour>
      <point x="1180" y="872" type="curve"/>
      <point x="1180" y="-440" type="line"/>
      <point x="820" y="-440" type="line"/>
      <point x="820" y="120" type="line"/>
      <point x="810" y="81"/>
      <point x="705" y="-30"/>
      <point x="555" y="-30" type="curve" smooth="yes"/>
      <point x="235" y="-30"/>
      <point x="50" y="200"/>
      <point x="50" y="520" type="curve" smooth="yes"/>
      <point x="50" y="840"/>
      <point x="235" y="1070"/>
      <point x="555" y="1070" type="curve" smooth="yes"/>
      <point x="705" y="1070"/>
      <point x="832" y="960"/>
      <point x="832" y="920" type="curve"/>
      <point x="832" y="1040" type="line"/>
      <point x="1180" y="1040" type="line"/>
      <point x="1180" y="1040"/>
      <point x="1180" y="974"/>
    </contour>
  </outline>
</glyph>
<glyph name="w" format="2">
  <advance width="1832"/>
  <unicode hex="0077"/>
  <anchor x="911" y="0" name="bottom_center"/>
  <anchor x="911" y="1040" name="top_center"/>
  <outline>
    <contour>
      <point x="329" y="0" type="line"/>
      <point x="35" y="1040" type="line"/>
      <point x="415" y="1040" type="line"/>
      <point x="560" y="440" type="line"/>
      <point x="731" y="1040" type="line"/>
      <point x="1091" y="1040" type="line"/>
      <point x="1272" y="440" type="line"/>
      <point x="1417" y="1040" type="line"/>
      <point x="1797" y="1040" type="line"/>
      <point x="1503" y="0" type="line"/>
      <point x="1071" y="0" type="line"/>
      <point x="911" y="540" type="line"/>
      <point x="751" y="0" type="line"/>
    </contour>
  </outline>
</glyph>
<glyph name="y" format="2">
  <advance width="1216"/>
  <unicode hex="0079"/>
  <anchor x="374" y="-360" name="bottom_center"/>
  <anchor x="629" y="1040" name="top_center"/>
  <outline>
    <contour>
      <point x="772" y="-158" type="line"/>
      <point x="690" y="-384"/>
      <point x="581" y="-470"/>
      <point x="302" y="-470" type="curve" smooth="yes"/>
      <point x="181" y="-470"/>
      <point x="91" y="-439"/>
      <point x="35" y="-415" type="curve"/>
      <point x="131" y="-95" type="line"/>
      <point x="163" y="-127"/>
      <point x="242" y="-150"/>
      <point x="302" y="-150" type="curve" smooth="yes"/>
      <point x="362" y="-150"/>
      <point x="416" y="-107"/>
      <point x="431" y="-44" type="curve"/>
      <point x="443" y="0" type="line"/>
      <point x="77" y="1040" type="line"/>
      <point x="461" y="1040" type="line"/>
      <point x="637" y="404" type="line"/>
      <point x="797" y="1040" type="line"/>
      <point x="1181" y="1040" type="line"/>
      <point x="826" y="0" type="line"/>
    </contour>
  </outline>
</glyph>
<glyph name="braceright" format="2">
  <advance width="779"/>
  <unicode hex="007D"/>
  <outline>
    <contour>
      <point x="197" y="152" type="curve" smooth="yes"/>
      <point x="197" y="302" type="line" smooth="yes"/>
      <point x="197" y="602"/>
      <point x="429" y="820"/>
      <point x="729" y="820" type="curve"/>
      <point x="729" y="500" type="line"/>
      <point x="629" y="500"/>
      <point x="557" y="402"/>
      <point x="557" y="302" type="curve" smooth="yes"/>
      <point x="557" y="152" type="line" smooth="yes"/>
      <point x="557" y="-148"/>
      <point x="325" y="-340"/>
      <point x="25" y="-340" type="curve"/>
      <point x="25" y="-20" type="line"/>
      <point x="125" y="-20"/>
      <point x="197" y="52"/>
    </contour>
    <contour>
      <point x="197" y="1168" type="line" smooth="yes"/>
      <point x="197" y="1268"/>
      <point x="125" y="1340"/>
      <point x="25" y="1340" type="curve"/>
      <point x="25" y="1660" type="line"/>
      <point x="325" y="1660"/>
      <point x="557" y="1468"/>
      <point x="557" y="1168" type="curve" smooth="yes"/>
      <point x="557" y="1018" type="line" smooth="yes"/>
      <point x="557" y="918"/>
      <point x="629" y="820"/>
      <point x="729" y="820" type="curve"/>
      <point x="729" y="500" type="line"/>
      <point x="429" y="500"/>
      <point x="197" y="718"/>
      <point x="197" y="1018" type="curve" smooth="yes"/>
    </contour>
  </outline>
</glyph>
<glyph name="exclamdown" format="2">
  <advance width="552"/>
  <unicode hex="00A1"/>
  <outline>
    <contour>
      <point x="476" y="880" type="curve" smooth="yes"/>
      <point x="476" y="769"/>
      <point x="387" y="680"/>
      <point x="276" y="680" type="curve" smooth="yes"/>
      <point x="165" y="680"/>
      <point x="76" y="769"/>
      <point x="76" y="880" type="curve" smooth="yes"/>
      <point x="76" y="991"/>
      <point x="165" y="1080"/>
      <point x="276" y="1080" type="curve" smooth="yes"/>
      <point x="387" y="1080"/>
      <point x="476" y="991"/>
    </contour>
    <contour>
      <point x="482" y="-440" type="line"/>
      <point x="70" y="-440" type="line"/>
      <point x="116" y="588" type="line"/>
      <point x="436" y="588" type="line"/>
    </contour>
  </outline>
</glyph>
<glyph name="ordfeminine" format="2">
  <advance width="952"/>
  <unicode hex="00AA"/>
  <outline>
    <contour>
      <point x="100" y="681" type="line"/>
      <point x="100" y="921" type="line"/>
      <point x="852" y="921" type="line"/>
      <point x="852" y="681" type="line"/>
    </contour>
    <contour>
      <point x="615" y="1060" type="curve"/>
      <point x="587" y="1016"/>
      <point x="510" y="980"/>
      <point x="425" y="980" type="curve" smooth="yes"/>
      <point x="248" y="980"/>
      <point x="147" y="1081"/>
      <point x="147" y="1212" type="curve" smooth="yes"/>
      <point x="147" y="1343"/>
      <point x="276" y="1421"/>
      <point x="453" y="1421" type="curve" smooth="yes"/>
      <point x="472" y="1421"/>
      <point x="504" y="1416"/>
      <point x="530" y="1404" type="curve"/>
      <point x="529" y="1412"/>
      <point x="507" y="1436"/>
      <point x="453" y="1436" type="curve" smooth="yes"/>
      <point x="322" y="1436"/>
      <point x="256" y="1404"/>
      <point x="256" y="1404" type="curve"/>
      <point x="175" y="1591" type="line"/>
      <point x="175" y="1591"/>
      <point x="297" y="1646"/>
      <point x="453" y="1646" type="curve" smooth="yes"/>
      <point x="624" y="1646"/>
      <point x="759" y="1606"/>
      <point x="759" y="1401" type="curve" smooth="yes"/>
      <point x="759" y="1342" type="line"/>
      <point x="759" y="1313" type="line"/>
      <point x="759" y="1266" type="line" smooth="yes"/>
      <point x="759" y="1231"/>
      <point x="780" y="1196"/>
      <point x="822" y="1196" type="curve"/>
      <point x="775" y="979" type="line"/>
      <point x="704" y="986"/>
      <point x="652" y="1021"/>
    </contour>
    <contour>
      <point x="520" y="1230" type="curve" smooth="yes"/>
      <point x="520" y="1238"/>
      <point x="503" y="1240"/>
      <point x="453" y="1240" type="curve" smooth="yes"/>
      <point x="403" y="1240"/>
      <point x="385" y="1238"/>
      <point x="385" y="1230" type="curve" smooth="yes"/>
      <point x="385" y="1222"/>
      <point x="403" y="1220"/>
      <point x="453" y="1220" type="curve" smooth="yes"/>
      <point x="503" y="1220"/>
      <point x="520" y="1222"/>
    </contour>
  </outline>
</glyph>
<glyph name="logicalnot" format="2">
  <advance width="1232"/>
  <unicode hex="00AC"/>
  <outline>
    <contour>
      <point x="802" y="647" type="line"/>
      <point x="802" y="260" type="line"/>
      <point x="1162" y="260" type="line"/>
      <point x="1162" y="820" type="line"/>
    </contour>
    <contour>
      <point x="70" y="500" type="line"/>
      <point x="1002" y="500" type="line"/>
      <point x="1162" y="820" type="line"/>
      <point x="70" y="820" type="line"/>
    </contour>
  </outline>
</glyph>
<glyph name="plusminus" format="2">
  <advance width="1278"/>
  <unicode hex="00B1"/>
  <outline>
    <contour>
      <point x="70" y="0" type="line"/>
      <point x="1208" y="0" type="line"/>
      <point x="1208" y="-320" type="line"/>
      <point x="70" y="-320" type="line"/>
    </contour>
    <contour>
      <point x="459" y="1230" type="line"/>
      <point x="459" y="90" type="line"/>
      <point x="819" y="90" type="line"/>
      <point x="819" y="1230" type="line"/>
    </contour>
    <contour>
      <point x="70" y="500" type="line"/>
      <point x="1208" y="500" type="line"/>
      <point x="1208" y="820" type="line"/>
      <point x="70" y="820" type="line"/>
    </contour>
  </outline>
</glyph>
<glyph name="two.superior" format="2">
  <advance width="796"/>
  <unicode hex="00B2"/>
  <outline>
    <contour>
      <point x="39" y="810" type="curve"/>
      <point x="151" y="810" type="line"/>
      <point x="276" y="810" type="line"/>
      <point x="757" y="810" type="line"/>
      <point x="757" y="1050" type="line"/>
      <point x="409" y="1050" type="line"/>
      <point x="429" y="1065"/>
      <point x="497" y="1093"/>
      <point x="544" y="1112" type="curve" smooth="yes"/>
      <point x="708" y="1178"/>
      <point x="757" y="1268"/>
      <point x="757" y="1386" type="curve" smooth="yes"/>
      <point x="757" y="1568"/>
      <point x="598" y="1686"/>
      <point x="398" y="1686" type="curve" smooth="yes"/>
      <point x="198" y="1686"/>
      <point x="39" y="1581"/>
      <point x="39" y="1370" type="curve"/>
      <point x="323" y="1300" type="line"/>
      <point x="323" y="1300"/>
      <point x="309" y="1323"/>
      <point x="309" y="1370" type="curve" smooth="yes"/>
      <point x="309" y="1421"/>
      <point x="343" y="1447"/>
      <point x="398" y="1447" type="curve" smooth="yes"/>
      <point x="463" y="1447"/>
      <point x="487" y="1411"/>
      <point x="487" y="1379" type="curve" smooth="yes"/>
      <point x="487" y="1331"/>
      <point x="446" y="1316"/>
      <point x="374" y="1287" type="curve" smooth="yes"/>
      <point x="58" y="1159"/>
      <point x="39" y="937"/>
    </contour>
  </outline>
</glyph>
<glyph name="germandbls" format="2">
  <advance width="1300"/>
  <unicode hex="00DF"/>
  <outline>
    <contour>
      <point x="682" y="290" type="curve" smooth="yes"/>
      <point x="640" y="290"/>
      <point x="614" y="296"/>
      <point x="555" y="329" type="curve"/>
      <point x="490" y="10" type="line"/>
      <point x="530" y="-3"/>
      <point x="632" y="-30"/>
      <point x="682" y="-30" type="curve" smooth="yes"/>
      <point x="1041" y="-30"/>
      <point x="1250" y="176"/>
      <point x="1250" y="456" type="curve" smooth="yes"/>
      <point x="1250" y="736"/>
      <point x="978" y="932"/>
      <point x="618" y="932" type="curve"/>
      <point x="618" y="612" type="line"/>
      <point x="738" y="612"/>
      <point x="890" y="576"/>
      <point x="890" y="456" type="curve" smooth="yes"/>
      <point x="890" y="336"/>
      <point x="802" y="290"/>
    </contour>
    <contour>
      <point x="430" y="1056" type="curve" smooth="yes"/>
      <point x="430" y="1136"/>
      <point x="516" y="1190"/>
      <point x="606" y="1190" type="curve" smooth="yes"/>
      <point x="696" y="1190"/>
      <point x="782" y="1141"/>
      <point x="782" y="1056" type="curve" smooth="yes"/>
      <point x="782" y="981"/>
      <point x="748" y="932"/>
      <point x="618" y="932" type="curve"/>
      <point x="678" y="692" type="line"/>
      <point x="904" y="692"/>
      <point x="1142" y="801"/>
      <point x="1142" y="1056" type="curve" smooth="yes"/>
      <point x="1142" y="1311"/>
      <point x="912" y="1510"/>
      <point x="606" y="1510" type="curve" smooth="yes"/>
      <point x="300" y="1510"/>
      <point x="70" y="1311"/>
      <point x="70" y="1056" type="curve" smooth="yes"/>
      <point x="70" y="801"/>
      <point x="70" y="0"/>
      <point x="70" y="0" type="curve"/>
      <point x="430" y="0" type="line"/>
      <point x="430" y="0"/>
      <point x="430" y="976"/>
    </contour>
  </outline>
</glyph>
<glyph name="divide" format="2">
  <advance width="1278"/>
  <unicode hex="00F7"/>
  <outline>
    <contour>
      <point x="439" y="230" type="curve" smooth="yes"/>
      <point x="439" y="341"/>
      <point x="528" y="430"/>
      <point x="639" y="430" type="curve" smooth="yes"/>
      <point x="750" y="430"/>
      <point x="839" y="341"/>
      <point x="839" y="230" type="curve" smooth="yes"/>
      <point x="839" y="119"/>
      <point x="750" y="30"/>
      <point x="639" y="30" type="curve" smooth="yes"/>
      <point x="528" y="30"/>
      <point x="439" y="119"/>
    </contour>
    <contour>
      <point x="439" y="1090" type="curve" smooth="yes"/>
      <point x="439" y="1201"/>
      <point x="528" y="1290"/>
      <point x="639" y="1290" type="curve" smooth="yes"/>
      <point x="750" y="1290"/>
      <point x="839" y="1201"/>
      <point x="839" y="1090" type="curve" smooth="yes"/>
      <point x="839" y="979"/>
      <point x="750" y="890"/>
      <point x="639" y="890" type="curve" smooth="yes"/>
      <point x="528" y="890"/>
      <point x="439" y="979"/>
    </contour>
    <contour>
      <point x="70" y="500" type="line"/>
      <point x="70" y="820" type="line"/>
      <point x="1208" y="820" type="line"/>
      <point x="1208" y="500" type="line"/>
    </contour>
  </outline>
</glyph>
<glyph name="dotlessi" format="2">
  <advance width="500"/>
  <unicode hex="0131"/>
  <anchor x="250" y="-20" name="bottom_cedilla"/>
  <anchor x="250" y="1040" name="top_center"/>
  <anchor x="250" y="0" name="bottom_center"/>
  <anchor x="430" y="0" name="bottom_right"/>
  <outline>
    <contour>
      <point x="70" y="0" type="line"/>
      <point x="70" y="1040" type="line"/>
      <point x="430" y="1040" type="line"/>
      <point x="430" y="0" type="line"/>
    </contour>
  </outline>
</glyph>
<glyph name="Lslash" format="2">
  <advance width="1359"/>
  <unicode hex="0141"/>
  <outline>
    <contour>
      <point x="825" y="1245" type="line"/>
      <point x="825" y="956" type="line"/>
      <point x="-35" y="460" type="line"/>
      <point x="-35" y="749" type="line"/>
    </contour>
    <contour>
      <point x="555" y="1480" type="line"/>
      <point x="555" y="336" type="line"/>
      <point x="1289" y="336" type="line"/>
      <point x="1289" y="0" type="line"/>
      <point x="175" y="0" type="line"/>
      <point x="175" y="1480" type="line"/>
    </contour>
  </outline>
</glyph>
<glyph name="eng" format="2">
  <advance width="1192"/>
  <unicode hex="014B"/>
  <anchor x="596" y="1040" name="top_center"/>
  <outline>
    <contour>
      <point x="1122" y="-78" type="line" smooth="yes"/>
      <point x="1122" y="-378"/>
      <point x="958" y="-470"/>
      <point x="694" y="-470" type="curve" smooth="yes"/>
      <point x="606" y="-470"/>
      <point x="558" y="-439"/>
      <point x="532" y="-426" type="curve"/>
      <point x="632" y="-134" type="line"/>
      <point x="645" y="-143"/>
      <point x="675" y="-150"/>
      <point x="694" y="-150" type="curve" smooth="yes"/>
      <point x="746" y="-150"/>
      <point x="762" y="-128"/>
      <point x="762" y="-78" type="curve" smooth="yes"/>
      <point x="762" y="0" type="line"/>
      <point x="1122" y="0" type="line"/>
    </contour>
    <contour>
      <point x="762" y="572" type="line" smooth="yes"/>
      <point x="762" y="682"/>
      <point x="726" y="750"/>
      <point x="596" y="750" type="curve" smooth="yes"/>
      <point x="466" y="750"/>
      <point x="430" y="682"/>
      <point x="430" y="572" type="curve" smooth="yes"/>
      <point x="430" y="0" type="line"/>
      <point x="70" y="0" type="line"/>
      <point x="70" y="1040" type="line"/>
      <point x="418" y="1040" type="line"/>
      <point x="418" y="920" type="line"/>
      <point x="453" y="981"/>
      <point x="542" y="1070"/>
      <point x="692" y="1070" type="curve" smooth="yes"/>
      <point x="956" y="1070"/>
      <point x="1122" y="892"/>
      <point x="1122" y="572" type="curve"/>
      <point x="1122" y="0" type="line"/>
      <point x="762" y="0" type="line"/>
    </contour>
  </outline>
</glyph>
<glyph name="uni0181" format="2">
  <advance width="1790"/>
  <unicode hex="0181"/>
  <outline>
    <contour>
      <point x="1165" y="1480" type="line"/>
      <point x="1485" y="1480"/>
      <point x="1704" y="1291"/>
      <point x="1704" y="1036" type="curve" smooth="yes"/>
      <point x="1704" y="781"/>
      <point x="1501" y="620"/>
      <point x="1165" y="620" type="curve"/>
      <point x="1165" y="916" type="line"/>
      <point x="1257" y="916"/>
      <point x="1324" y="958"/>
      <point x="1324" y="1030" type="curve" smooth="yes"/>
      <point x="1324" y="1102"/>
      <point x="1257" y="1144"/>
      <point x="1165" y="1144" type="curve"/>
      <point x="814" y="1144" type="line"/>
      <point x="814" y="916" type="line"/>
      <point x="1165" y="916" type="line"/>
      <point x="1165" y="600" type="line"/>
      <point x="814" y="600" type="line"/>
      <point x="814" y="336" type="line"/>
      <point x="1165" y="336" type="line"/>
      <point x="1266" y="336"/>
      <point x="1360" y="373"/>
      <point x="1360" y="468" type="curve" smooth="yes"/>
      <point x="1360" y="563"/>
      <point x="1266" y="600"/>
      <point x="1165" y="600" type="curve"/>
      <point x="1165" y="896" type="line"/>
      <point x="1493" y="896"/>
      <point x="1740" y="750"/>
      <point x="1740" y="460" type="curve" smooth="yes"/>
      <point x="1740" y="170"/>
      <point x="1498" y="0"/>
      <point x="1165" y="0" type="curve"/>
      <point x="434" y="0" type="line"/>
      <point x="434" y="1480" type="line"/>
    </contour>
    <contour>
      <point x="356" y="1040" type="curve"/>
      <point x="2" y="1040" type="line"/>
      <point x="1" y="1052"/>
      <point x="0" y="1064"/>
      <point x="0" y="1076" type="curve" smooth="yes"/>
      <point x="0" y="1326"/>
      <point x="184" y="1480"/>
      <point x="434" y="1480" type="curve" smooth="yes"/>
      <point x="446" y="1480"/>
      <point x="458" y="1480"/>
      <point x="470" y="1479" type="curve"/>
      <point x="470" y="1153" type="line"/>
      <point x="459" y="1158"/>
      <point x="447" y="1160"/>
      <point x="434" y="1160" type="curve" smooth="yes"/>
      <point x="384" y="1160"/>
      <point x="349" y="1126"/>
      <point x="349" y="1076" type="curve" smooth="yes"/>
      <point x="349" y="1063"/>
      <point x="350" y="1051"/>
    </contour>
  </outline>
</glyph>
<glyph name="uni0184" format="2">
  <advance width="1579"/>
  <unicode hex="0184"/>
  <outline>
    <contour>
      <point x="657" y="336" type="line"/>
      <point x="958" y="336" type="line"/>
      <point x="1078" y="336"/>
      <point x="1149" y="416"/>
      <point x="1149" y="496" type="curve" smooth="yes"/>
      <point x="1149" y="576"/>
      <point x="1078" y="656"/>
      <point x="958" y="656" type="curve"/>
      <point x="657" y="656" type="line"/>
    </contour>
    <contour>
      <point x="360" y="1480" type="line"/>
      <point x="657" y="1480" type="line"/>
      <point x="657" y="976" type="line"/>
      <point x="958" y="976" type="line"/>
      <point x="1324" y="976"/>
      <point x="1529" y="751"/>
      <point x="1529" y="496" type="curve" smooth="yes"/>
      <point x="1529" y="241"/>
      <point x="1324" y="0"/>
      <point x="958" y="0" type="curve"/>
      <point x="277" y="0" type="line"/>
      <point x="277" y="1000" type="line"/>
      <point x="-50" y="1165" type="line"/>
    </contour>
  </outline>
</glyph>
<glyph name="uni018F" format="2">
  <advance width="1620"/>
  <unicode hex="018F"/>
  <outline>
    <contour>
      <point x="65" y="908" type="line"/>
      <point x="55" y="854"/>
      <point x="50" y="798"/>
      <point x="50" y="740" type="curve" smooth="yes"/>
      <point x="50" y="290"/>
      <point x="350" y="-30"/>
      <point x="810" y="-30" type="curve" smooth="yes"/>
      <point x="1270" y="-30"/>
      <point x="1570" y="290"/>
      <point x="1570" y="740" type="curve" smooth="yes"/>
      <point x="1570" y="1190"/>
      <point x="1270" y="1510"/>
      <point x="810" y="1510" type="curve" smooth="yes"/>
      <point x="495" y="1510"/>
      <point x="255" y="1360"/>
      <point x="135" y="1120" type="curve"/>
      <point x="460" y="930" type="line"/>
      <point x="511" y="1078"/>
      <point x="629" y="1174"/>
      <point x="810" y="1174" type="curve" smooth="yes"/>
      <point x="1060" y="1174"/>
      <point x="1190" y="990"/>
      <point x="1190" y="740" type="curve" smooth="yes"/>
      <point x="1190" y="490"/>
      <point x="1060" y="306"/>
      <point x="810" y="306" type="curve" smooth="yes"/>
      <point x="560" y="306"/>
      <point x="430" y="490"/>
      <point x="430" y="740" type="curve" smooth="yes"/>
      <point x="430" y="800"/>
      <point x="438" y="857"/>
      <point x="453" y="908" type="curve"/>
    </contour>
    <contour>
      <point x="1396" y="572" type="line"/>
      <point x="1396" y="908" type="line"/>
      <point x="453" y="908" type="line"/>
      <point x="216" y="572" type="line"/>
    </contour>
  </outline>
</glyph>
<glyph name="uni0190" format="2">
  <advance width="1326"/>
  <unicode hex="0190"/>
  <anchor x="664" y="-20" name="bottom_cedilla"/>
  <anchor x="664" y="0" name="bottom_center"/>
  <anchor x="664" y="1380" name="top_center"/>
  <outline>
    <contour>
      <point x="664" y="936" type="line" smooth="yes"/>
      <point x="579" y="936"/>
      <point x="484" y="970"/>
      <point x="484" y="1050" type="curve" smooth="yes"/>
      <point x="484" y="1130"/>
      <point x="539" y="1174"/>
      <point x="664" y="1174" type="curve" smooth="yes"/>
      <point x="789" y="1174"/>
      <point x="852" y="1130"/>
      <point x="852" y="1050" type="curve"/>
      <point x="1223" y="1150" type="line"/>
      <point x="1178" y="1377"/>
      <point x="956" y="1510"/>
      <point x="664" y="1510" type="curve" smooth="yes"/>
      <point x="334" y="1510"/>
      <point x="104" y="1341"/>
      <point x="104" y="1058" type="curve" smooth="yes"/>
      <point x="104" y="829"/>
      <point x="270" y="781"/>
      <point x="270" y="781" type="curve"/>
      <point x="270" y="781"/>
      <point x="50" y="695"/>
      <point x="50" y="453" type="curve" smooth="yes"/>
      <point x="50" y="120"/>
      <point x="304" y="-30"/>
      <point x="664" y="-30" type="curve" smooth="yes"/>
      <point x="959" y="-30"/>
      <point x="1233" y="91"/>
      <point x="1276" y="361" type="curve"/>
      <point x="903" y="461" type="line"/>
      <point x="903" y="361"/>
      <point x="814" y="306"/>
      <point x="664" y="306" type="curve" smooth="yes"/>
      <point x="514" y="306"/>
      <point x="430" y="361"/>
      <point x="430" y="461" type="curve" smooth="yes"/>
      <point x="430" y="561"/>
      <point x="514" y="616"/>
      <point x="664" y="616" type="curve" smooth="yes"/>
      <point x="778" y="616" type="line"/>
      <point x="778" y="936" type="line"/>
    </contour>
  </outline>
</glyph>
<glyph name="uni0196" format="2">
  <advance width="851"/>
  <unicode hex="0196"/>
  <outline>
    <contour>
      <point x="564" y="-30" type="curve" smooth="yes"/>
      <point x="204" y="-30"/>
      <point x="70" y="160"/>
      <point x="70" y="440" type="curve"/>
      <point x="70" y="842" type="line"/>
      <point x="70" y="1480" type="line"/>
      <point x="430" y="1480" type="line"/>
      <point x="430" y="842" type="line"/>
      <point x="430" y="430" type="line"/>
      <point x="430" y="330"/>
      <point x="478" y="290"/>
      <point x="568" y="290" type="curve" smooth="yes"/>
      <point x="628" y="290"/>
      <point x="703" y="313"/>
      <point x="735" y="345" type="curve"/>
      <point x="826" y="22" type="line"/>
      <point x="770" y="-2"/>
      <point x="685" y="-30"/>
    </contour>
  </outline>
</glyph>
<glyph name="uni0197" format="2">
  <advance width="924"/>
  <unicode hex="0197"/>
  <outline>
    <contour>
      <point x="892" y="620" type="line"/>
      <point x="32" y="620" type="line"/>
      <point x="32" y="666"/>
      <point x="32" y="814"/>
      <point x="32" y="860" type="curve"/>
      <point x="892" y="860" type="line"/>
    </contour>
    <contour>
      <point x="70" y="1480" type="line"/>
      <point x="854" y="1480" type="line"/>
      <point x="854" y="1144" type="line"/>
      <point x="652" y="1144" type="line"/>
      <point x="652" y="336" type="line"/>
      <point x="854" y="336" type="line"/>
      <point x="854" y="0" type="line"/>
      <point x="70" y="0" type="line"/>
      <point x="70" y="336" type="line"/>
      <point x="272" y="336" type="line"/>
      <point x="272" y="1144" type="line"/>
      <point x="70" y="1144" type="line"/>
    </contour>
  </outline>
</glyph>
<glyph name="uni01AB" format="2">
  <advance width="1058"/>
  <unicode hex="01AB"/>
  <outline>
    <contour>
      <point x="947" y="0" type="line"/>
      <point x="947" y="-250"/>
      <point x="752" y="-404"/>
      <point x="502" y="-404" type="curve" smooth="yes"/>
      <point x="490" y="-404"/>
      <point x="478" y="-404"/>
      <point x="466" y="-403" type="curve"/>
      <point x="466" y="-77" type="line"/>
      <point x="477" y="-82"/>
      <point x="489" y="-84"/>
      <point x="502" y="-84" type="curve" smooth="yes"/>
      <point x="552" y="-84"/>
      <point x="587" y="-50"/>
      <point x="587" y="0" type="curve"/>
    </contour>
    <contour>
      <point x="97" y="1028" type="line"/>
      <point x="217" y="1028"/>
      <point x="301" y="1106"/>
      <point x="301" y="1226" type="curve"/>
      <point x="301" y="1320" type="line"/>
      <point x="637" y="1320" type="line"/>
      <point x="637" y="1040" type="line"/>
      <point x="942" y="1040" type="line"/>
      <point x="942" y="720" type="line"/>
      <point x="637" y="720" type="line"/>
      <point x="637" y="440" type="line" smooth="yes"/>
      <point x="637" y="340"/>
      <point x="685" y="290"/>
      <point x="775" y="290" type="curve" smooth="yes"/>
      <point x="835" y="290"/>
      <point x="910" y="313"/>
      <point x="942" y="345" type="curve"/>
      <point x="1033" y="22" type="line"/>
      <point x="977" y="-2"/>
      <point x="892" y="-30"/>
      <point x="771" y="-30" type="curve" smooth="yes"/>
      <point x="411" y="-30"/>
      <point x="277" y="160"/>
      <point x="277" y="440" type="curve" smooth="yes"/>
      <point x="277" y="720" type="line"/>
      <point x="25" y="720" type="line"/>
      <point x="25" y="1028" type="line"/>
    </contour>
  </outline>
</glyph>
<glyph name="uni01AD" format="2">
  <advance width="1103"/>
  <unicode hex="01AD"/>
  <outline>
    <contour>
      <point x="301" y="1320" type="line" smooth="yes"/>
      <point x="301" y="1570"/>
      <point x="472" y="1724"/>
      <point x="722" y="1724" type="curve" smooth="yes"/>
      <point x="734" y="1724"/>
      <point x="746" y="1724"/>
      <point x="758" y="1723" type="curve"/>
      <point x="758" y="1397" type="line"/>
      <point x="747" y="1402"/>
      <point x="735" y="1404"/>
      <point x="722" y="1404" type="curve" smooth="yes"/>
      <point x="672" y="1404"/>
      <point x="637" y="1370"/>
      <point x="637" y="1320" type="curve" smooth="yes"/>
      <point x="637" y="1040" type="line"/>
      <point x="942" y="1040" type="line"/>
      <point x="942" y="720" type="line"/>
      <point x="637" y="720" type="line"/>
      <point x="637" y="440" type="line" smooth="yes"/>
      <point x="637" y="340"/>
      <point x="685" y="290"/>
      <point x="775" y="290" type="curve" smooth="yes"/>
      <point x="835" y="290"/>
      <point x="910" y="313"/>
      <point x="942" y="345" type="curve"/>
      <point x="1033" y="22" type="line"/>
      <point x="977" y="-2"/>
      <point x="892" y="-30"/>
      <point x="771" y="-30" type="curve" smooth="yes"/>
      <point x="411" y="-30"/>
      <point x="277" y="160"/>
      <point x="277" y="440" type="curve" smooth="yes"/>
      <point x="277" y="720" type="line"/>
      <point x="25" y="720" type="line"/>
      <point x="25" y="1028" type="line"/>
      <point x="97" y="1028" type="line"/>
      <point x="217" y="1028"/>
      <point x="301" y="1106"/>
      <point x="301" y="1226" type="curve"/>
    </contour>
  </outline>
</glyph>
<glyph name="uni01AE" format="2">
  <advance width="1482"/>
  <unicode hex="01AE"/>
  <outline>
    <contour>
      <point x="1052" y="-77" type="line"/>
      <point x="1041" y="-82"/>
      <point x="1029" y="-84"/>
      <point x="1016" y="-84" type="curve" smooth="yes"/>
      <point x="966" y="-84"/>
      <point x="931" y="-50"/>
      <point x="931" y="0" type="curve"/>
      <point x="551" y="0" type="line"/>
      <point x="551" y="-250"/>
      <point x="766" y="-404"/>
      <point x="1016" y="-404" type="curve" smooth="yes"/>
      <point x="1028" y="-404"/>
      <point x="1040" y="-404"/>
      <point x="1052" y="-403" type="curve"/>
    </contour>
    <contour>
      <point x="551" y="1144" type="line"/>
      <point x="70" y="1144" type="line"/>
      <point x="70" y="1480" type="line"/>
      <point x="1412" y="1480" type="line"/>
      <point x="1412" y="1144" type="line"/>
      <point x="931" y="1144" type="line"/>
      <point x="931" y="0" type="line"/>
      <point x="551" y="0" type="line"/>
    </contour>
  </outline>
</glyph>
<glyph name="uni01BF" format="2">
  <advance width="1252"/>
  <unicode hex="01BF"/>
  <outline>
    <contour>
      <point x="842" y="532" type="curve" smooth="yes"/>
      <point x="842" y="642"/>
      <point x="766" y="750"/>
      <point x="636" y="750" type="curve" smooth="yes"/>
      <point x="506" y="750"/>
      <point x="430" y="642"/>
      <point x="430" y="532" type="curve" smooth="yes"/>
      <point x="430" y="-440" type="line"/>
      <point x="70" y="-440" type="line"/>
      <point x="70" y="1040" type="line"/>
      <point x="418" y="1040" type="line"/>
      <point x="418" y="920" type="line"/>
      <point x="453" y="981"/>
      <point x="582" y="1070"/>
      <point x="732" y="1070" type="curve" smooth="yes"/>
      <point x="996" y="1070"/>
      <point x="1202" y="852"/>
      <point x="1202" y="532" type="curve" smooth="yes"/>
      <point x="1202" y="139"/>
      <point x="900" y="-240"/>
      <point x="160" y="-240" type="curve"/>
      <point x="160" y="80" type="line"/>
      <point x="570" y="80"/>
      <point x="842" y="212"/>
    </contour>
  </outline>
</glyph>
<glyph name="uni0235" format="2">
  <advance width="1572"/>
  <unicode hex="0235"/>
  <outline>
    <contour>
      <point x="1122" y="309" type="line"/>
      <point x="1122" y="257"/>
      <point x="1158" y="210"/>
      <point x="1212" y="210" type="curve" smooth="yes"/>
      <point x="1266" y="210"/>
      <point x="1302" y="255"/>
      <point x="1302" y="309" type="curve" smooth="yes"/>
      <point x="1302" y="363"/>
      <point x="1266" y="408"/>
      <point x="1212" y="408" type="curve" smooth="yes"/>
      <point x="882" y="407"/>
      <point x="756" y="-207"/>
      <point x="756" y="-207" type="curve"/>
      <point x="516" y="-69" type="line"/>
      <point x="516" y="-69"/>
      <point x="687" y="648"/>
      <point x="1212" y="648" type="curve" smooth="yes"/>
      <point x="1407" y="648"/>
      <point x="1572" y="522"/>
      <point x="1572" y="309" type="curve" smooth="yes"/>
      <point x="1572" y="96"/>
      <point x="1407" y="-30"/>
      <point x="1212" y="-30" type="curve" smooth="yes"/>
      <point x="1017" y="-30"/>
      <point x="852" y="96"/>
      <point x="852" y="309" type="curve"/>
      <point x="762" y="309" type="line"/>
      <point x="762" y="572" type="line" smooth="yes"/>
      <point x="762" y="682"/>
      <point x="726" y="750"/>
      <point x="596" y="750" type="curve" smooth="yes"/>
      <point x="466" y="750"/>
      <point x="430" y="682"/>
      <point x="430" y="572" type="curve" smooth="yes"/>
      <point x="430" y="0" type="line"/>
      <point x="70" y="0" type="line"/>
      <point x="70" y="1040" type="line"/>
      <point x="418" y="1040" type="line"/>
      <point x="418" y="920" type="line"/>
      <point x="453" y="981"/>
      <point x="542" y="1070"/>
      <point x="692" y="1070" type="curve" smooth="yes"/>
      <point x="956" y="1070"/>
      <point x="1122" y="892"/>
      <point x="1122" y="572" type="curve"/>
    </contour>
  </outline>
</glyph>
<glyph name="uni0237" format="2">
  <advance width="665"/>
  <unicode hex="0237"/>
  <anchor x="311" y="-360" name="bottom_center"/>
  <anchor x="415" y="1040" name="top_center"/>
  <outline>
    <contour>
      <point x="105" y="-134" type="line"/>
      <point x="118" y="-143"/>
      <point x="148" y="-150"/>
      <point x="167" y="-150" type="curve" smooth="yes"/>
      <point x="219" y="-150"/>
      <point x="235" y="-128"/>
      <point x="235" y="-78" type="curve" smooth="yes"/>
      <point x="235" y="0" type="line"/>
      <point x="235" y="138" type="line"/>
      <point x="235" y="1040" type="line"/>
      <point x="595" y="1040" type="line"/>
      <point x="595" y="138" type="line"/>
      <point x="595" y="0" type="line"/>
      <point x="595" y="-78" type="line" smooth="yes"/>
      <point x="595" y="-378"/>
      <point x="351" y="-470"/>
      <point x="167" y="-470" type="curve" smooth="yes"/>
      <point x="79" y="-470"/>
      <point x="31" y="-439"/>
      <point x="5" y="-426" type="curve"/>
    </contour>
  </outline>
</glyph>
<glyph name="uni0243" format="2">
  <advance width="1566"/>
  <unicode hex="0243"/>
  <outline>
    <contour>
      <point x="941" y="1480" type="line"/>
      <point x="1261" y="1480"/>
      <point x="1480" y="1291"/>
      <point x="1480" y="1036" type="curve" smooth="yes"/>
      <point x="1480" y="781"/>
      <point x="1277" y="620"/>
      <point x="941" y="620" type="curve"/>
      <point x="941" y="916" type="line"/>
      <point x="1033" y="916"/>
      <point x="1100" y="958"/>
      <point x="1100" y="1030" type="curve" smooth="yes"/>
      <point x="1100" y="1102"/>
      <point x="1033" y="1144"/>
      <point x="941" y="1144" type="curve"/>
      <point x="590" y="1144" type="line"/>
      <point x="590" y="916" type="line"/>
      <point x="941" y="916" type="line"/>
      <point x="941" y="600" type="line"/>
      <point x="590" y="600" type="line"/>
      <point x="590" y="336" type="line"/>
      <point x="941" y="336" type="line"/>
      <point x="1042" y="336"/>
      <point x="1136" y="373"/>
      <point x="1136" y="468" type="curve" smooth="yes"/>
      <point x="1136" y="563"/>
      <point x="1042" y="600"/>
      <point x="941" y="600" type="curve"/>
      <point x="941" y="896" type="line"/>
      <point x="1269" y="896"/>
      <point x="1516" y="750"/>
      <point x="1516" y="460" type="curve" smooth="yes"/>
      <point x="1516" y="170"/>
      <point x="1274" y="0"/>
      <point x="941" y="0" type="curve"/>
      <point x="210" y="0" type="line"/>
      <point x="210" y="1480" type="line"/>
    </contour>
    <contour>
      <point x="860" y="348" type="line"/>
      <point x="0" y="348" type="line"/>
      <point x="0" y="394"/>
      <point x="0" y="542"/>
      <point x="0" y="588" type="curve"/>
      <point x="860" y="588" type="line"/>
    </contour>
  </outline>
</glyph>
<glyph name="uni0244" format="2">
  <advance width="1762"/>
  <unicode hex="0244"/>
  <anchor x="1113" y="0" name="bottom_right"/>
  <anchor x="881" y="0" name="bottom_center"/>
  <anchor x="1552" y="1480" name="top_right"/>
  <anchor x="881" y="1380" name="top_center"/>
  <anchor x="881" y="-20" name="bottom_cedilla"/>
  <outline>
    <contour>
      <point x="1762" y="845" type="line"/>
      <point x="1762" y="605" type="line"/>
      <point x="0" y="605" type="line"/>
      <point x="0" y="845" type="line"/>
    </contour>
    <contour>
      <point x="590" y="1480" type="line"/>
      <point x="590" y="600" type="line"/>
      <point x="590" y="390"/>
      <point x="731" y="306"/>
      <point x="881" y="306" type="curve" smooth="yes"/>
      <point x="1031" y="306"/>
      <point x="1172" y="390"/>
      <point x="1172" y="600" type="curve"/>
      <point x="1172" y="1480" type="line"/>
      <point x="1552" y="1480" type="line"/>
      <point x="1552" y="610" type="line"/>
      <point x="1552" y="250"/>
      <point x="1313" y="-30"/>
      <point x="881" y="-30" type="curve" smooth="yes"/>
      <point x="449" y="-30"/>
      <point x="210" y="240"/>
      <point x="210" y="600" type="curve"/>
      <point x="210" y="1480" type="line"/>
    </contour>
  </outline>
</glyph>
<glyph name="uni0249" format="2">
  <advance width="812"/>
  <unicode hex="0249"/>
  <outline>
    <contour>
      <point x="8" y="400" type="line"/>
      <point x="8" y="446"/>
      <point x="8" y="594"/>
      <point x="8" y="640" type="curve"/>
      <point x="812" y="640" type="line"/>
      <point x="812" y="400" type="line"/>
    </contour>
    <contour>
      <point x="210" y="1352" type="curve" smooth="yes"/>
      <point x="210" y="1463"/>
      <point x="299" y="1552"/>
      <point x="410" y="1552" type="curve" smooth="yes"/>
      <point x="521" y="1552"/>
      <point x="610" y="1463"/>
      <point x="610" y="1352" type="curve" smooth="yes"/>
      <point x="610" y="1241"/>
      <point x="521" y="1152"/>
      <point x="410" y="1152" type="curve" smooth="yes"/>
      <point x="299" y="1152"/>
      <point x="210" y="1241"/>
    </contour>
    <contour>
      <point x="100" y="-134" type="line"/>
      <point x="113" y="-143"/>
      <point x="143" y="-150"/>
      <point x="162" y="-150" type="curve" smooth="yes"/>
      <point x="214" y="-150"/>
      <point x="230" y="-128"/>
      <point x="230" y="-78" type="curve" smooth="yes"/>
      <point x="230" y="0" type="line"/>
      <point x="230" y="138" type="line"/>
      <point x="230" y="1040" type="line"/>
      <point x="590" y="1040" type="line"/>
      <point x="590" y="138" type="line"/>
      <point x="590" y="0" type="line"/>
      <point x="590" y="-78" type="line" smooth="yes"/>
      <point x="590" y="-378"/>
      <point x="346" y="-470"/>
      <point x="162" y="-470" type="curve" smooth="yes"/>
      <point x="74" y="-470"/>
      <point x="26" y="-439"/>
      <point x="0" y="-426" type="curve"/>
    </contour>
  </outline>
</glyph>
<glyph name="uni024E" format="2">
  <advance width="1618"/>
  <unicode hex="024E"/>
  <outline>
    <contour>
      <point x="1618" y="1004" type="line"/>
      <point x="0" y="1004" type="line"/>
      <point x="0" y="1244" type="line"/>
      <point x="1618" y="1244" type="line"/>
    </contour>
    <contour>
      <point x="619" y="0" type="line"/>
      <point x="619" y="834" type="line"/>
      <point x="999" y="834" type="line"/>
      <point x="999" y="0" type="line"/>
    </contour>
    <contour>
      <point x="812" y="426" type="line"/>
      <point x="703" y="578" type="line"/>
      <point x="58" y="1480" type="line"/>
      <point x="486" y="1480" type="line"/>
      <point x="809" y="988" type="line"/>
      <point x="1132" y="1480" type="line"/>
      <point x="1560" y="1480" type="line"/>
    </contour>
  </outline>
</glyph>
<glyph name="uni0254" format="2">
  <advance width="1139"/>
  <unicode hex="0254"/>
  <anchor x="539" y="1040" name="top_center"/>
  <anchor x="537" y="0" name="bottom_center"/>
  <anchor x="537" y="-20" name="bottom_cedilla"/>
  <outline>
    <contour>
      <point x="729" y="520" type="curve" smooth="yes"/>
      <point x="729" y="383"/>
      <point x="674" y="290"/>
      <point x="537" y="290" type="curve" smooth="yes"/>
      <point x="433" y="290"/>
      <point x="378" y="344"/>
      <point x="357" y="430" type="curve"/>
      <point x="50" y="252" type="line"/>
      <point x="138" y="79"/>
      <point x="316" y="-30"/>
      <point x="537" y="-30" type="curve" smooth="yes"/>
      <point x="857" y="-30"/>
      <point x="1089" y="200"/>
      <point x="1089" y="520" type="curve" smooth="yes"/>
      <point x="1089" y="840"/>
      <point x="859" y="1070"/>
      <point x="539" y="1070" type="curve" smooth="yes"/>
      <point x="318" y="1070"/>
      <point x="140" y="961"/>
      <point x="52" y="788" type="curve"/>
      <point x="359" y="610" type="line"/>
      <point x="380" y="696"/>
      <point x="435" y="750"/>
      <point x="539" y="750" type="curve" smooth="yes"/>
      <point x="676" y="750"/>
      <point x="729" y="657"/>
    </contour>
  </outline>
</glyph>
<glyph name="uni0256" format="2">
  <advance width="1301"/>
  <unicode hex="0256"/>
  <outline>
    <contour>
      <point x="1180" y="0" type="curve"/>
      <point x="1180" y="0"/>
      <point x="1180" y="66"/>
      <point x="1180" y="168" type="curve"/>
      <point x="1180" y="1480" type="line"/>
      <point x="820" y="1480" type="line"/>
      <point x="820" y="920" type="line"/>
      <point x="810" y="959"/>
      <point x="705" y="1070"/>
      <point x="555" y="1070" type="curve" smooth="yes"/>
      <point x="235" y="1070"/>
      <point x="50" y="840"/>
      <point x="50" y="520" type="curve" smooth="yes"/>
      <point x="50" y="200"/>
      <point x="235" y="-30"/>
      <point x="555" y="-30" type="curve" smooth="yes"/>
      <point x="705" y="-30"/>
      <point x="832" y="80"/>
      <point x="832" y="120" type="curve"/>
      <point x="832" y="0" type="line"/>
      <point x="832" y="-250"/>
      <point x="1015" y="-404"/>
      <point x="1265" y="-404" type="curve" smooth="yes"/>
      <point x="1277" y="-404"/>
      <point x="1289" y="-404"/>
      <point x="1301" y="-403" type="curve"/>
      <point x="1301" y="-77" type="line"/>
      <point x="1290" y="-82"/>
      <point x="1278" y="-84"/>
      <point x="1265" y="-84" type="curve" smooth="yes"/>
      <point x="1215" y="-84"/>
      <point x="1180" y="-50"/>
    </contour>
    <contour>
      <point x="820" y="510" type="curve" smooth="yes"/>
      <point x="820" y="380"/>
      <point x="751" y="290"/>
      <point x="620" y="290" type="curve" smooth="yes"/>
      <point x="483" y="290"/>
      <point x="410" y="390"/>
      <point x="410" y="520" type="curve" smooth="yes"/>
      <point x="410" y="650"/>
      <point x="483" y="750"/>
      <point x="620" y="750" type="curve" smooth="yes"/>
      <point x="757" y="750"/>
      <point x="820" y="640"/>
    </contour>
  </outline>
</glyph>
<glyph name="uni0258" format="2">
  <advance width="1200"/>
  <unicode hex="0258"/>
  <outline>
    <contour>
      <point x="1024" y="660" type="line"/>
      <point x="118" y="660" type="line"/>
      <point x="420" y="400" type="line"/>
      <point x="1024" y="400" type="line"/>
    </contour>
    <contour>
      <point x="411" y="368" type="curve"/>
      <point x="104" y="242" type="line"/>
      <point x="196" y="65"/>
      <point x="378" y="-30"/>
      <point x="600" y="-30" type="curve" smooth="yes"/>
      <point x="921" y="-30"/>
      <point x="1150" y="200"/>
      <point x="1150" y="520" type="curve" smooth="yes"/>
      <point x="1150" y="840"/>
      <point x="920" y="1070"/>
      <point x="600" y="1070" type="curve" smooth="yes"/>
      <point x="280" y="1070"/>
      <point x="50" y="840"/>
      <point x="50" y="520" type="curve" smooth="yes"/>
      <point x="50" y="479"/>
      <point x="55" y="438"/>
      <point x="62" y="400" type="curve"/>
      <point x="420" y="400" type="line"/>
      <point x="406" y="435"/>
      <point x="380" y="476"/>
      <point x="380" y="520" type="curve" smooth="yes"/>
      <point x="380" y="657"/>
      <point x="463" y="750"/>
      <point x="600" y="750" type="curve" smooth="yes"/>
      <point x="737" y="750"/>
      <point x="830" y="657"/>
      <point x="830" y="520" type="curve" smooth="yes"/>
      <point x="830" y="390"/>
      <point x="738" y="290"/>
      <point x="600" y="290" type="curve" smooth="yes"/>
      <point x="486" y="290"/>
      <point x="429" y="329"/>
    </contour>
  </outline>
</glyph>
<glyph name="uni025B" format="2">
  <advance width="1064"/>
  <unicode hex="025B"/>
  <anchor x="539" y="-20" name="bottom_cedilla"/>
  <anchor x="539" y="1040" name="top_center"/>
  <anchor x="539" y="0" name="bottom_center"/>
  <outline>
    <contour>
      <point x="539" y="674" type="curve"/>
      <point x="489" y="674"/>
      <point x="461" y="682"/>
      <point x="461" y="712" type="curve" smooth="yes"/>
      <point x="461" y="742"/>
      <point x="489" y="750"/>
      <point x="539" y="750" type="curve" smooth="yes"/>
      <point x="589" y="750"/>
      <point x="617" y="723"/>
      <point x="617" y="691" type="curve"/>
      <point x="976" y="788" type="line"/>
      <point x="951" y="937"/>
      <point x="797" y="1070"/>
      <point x="539" y="1070" type="curve" smooth="yes"/>
      <point x="281" y="1070"/>
      <point x="100" y="932"/>
      <point x="100" y="774" type="curve" smooth="yes"/>
      <point x="100" y="673"/>
      <point x="112" y="612"/>
      <point x="221" y="549" type="curve"/>
      <point x="82" y="469"/>
      <point x="50" y="398"/>
      <point x="50" y="290" type="curve" smooth="yes"/>
      <point x="50" y="117"/>
      <point x="252" y="-30"/>
      <point x="539" y="-30" type="curve" smooth="yes"/>
      <point x="808" y="-30"/>
      <point x="980" y="98"/>
      <point x="1014" y="272" type="curve"/>
      <point x="698" y="359" type="line"/>
      <point x="683" y="305"/>
      <point x="634" y="290"/>
      <point x="539" y="290" type="curve" smooth="yes"/>
      <point x="444" y="290"/>
      <point x="410" y="317"/>
      <point x="410" y="352" type="curve" smooth="yes"/>
      <point x="410" y="387"/>
      <point x="444" y="414"/>
      <point x="539" y="414" type="curve"/>
      <point x="589" y="414"/>
      <point x="617" y="414"/>
      <point x="617" y="414" type="curve"/>
      <point x="617" y="674" type="line"/>
      <point x="617" y="674"/>
      <point x="597" y="674"/>
    </contour>
  </outline>
</glyph>
<glyph name="uni025F" format="2">
  <advance width="812"/>
  <unicode hex="025F"/>
  <outline>
    <contour>
      <point x="8" y="400" type="line"/>
      <point x="8" y="446"/>
      <point x="8" y="594"/>
      <point x="8" y="640" type="curve"/>
      <point x="812" y="640" type="line"/>
      <point x="812" y="400" type="line"/>
    </contour>
    <contour>
      <point x="100" y="-134" type="line"/>
      <point x="113" y="-143"/>
      <point x="143" y="-150"/>
      <point x="162" y="-150" type="curve" smooth="yes"/>
      <point x="214" y="-150"/>
      <point x="230" y="-128"/>
      <point x="230" y="-78" type="curve" smooth="yes"/>
      <point x="230" y="0" type="line"/>
      <point x="230" y="138" type="line"/>
      <point x="230" y="1040" type="line"/>
      <point x="590" y="1040" type="line"/>
      <point x="590" y="138" type="line"/>
      <point x="590" y="0" type="line"/>
      <point x="590" y="-78" type="line" smooth="yes"/>
      <point x="590" y="-378"/>
      <point x="346" y="-470"/>
      <point x="162" y="-470" type="curve" smooth="yes"/>
      <point x="74" y="-470"/>
      <point x="26" y="-439"/>
      <point x="0" y="-426" type="curve"/>
    </contour>
  </outline>
</glyph>
<glyph name="uni0260" format="2">
  <advance width="1301"/>
  <unicode hex="0260"/>
  <outline>
    <contour>
      <point x="1180" y="1040" type="curve" smooth="yes"/>
      <point x="1180" y="1090"/>
      <point x="1215" y="1124"/>
      <point x="1265" y="1124" type="curve" smooth="yes"/>
      <point x="1278" y="1124"/>
      <point x="1290" y="1122"/>
      <point x="1301" y="1117" type="curve"/>
      <point x="1301" y="1443" type="line"/>
      <point x="1289" y="1444"/>
      <point x="1277" y="1444"/>
      <point x="1265" y="1444" type="curve" smooth="yes"/>
      <point x="1015" y="1444"/>
      <point x="832" y="1290"/>
      <point x="832" y="1040" type="curve" smooth="yes"/>
      <point x="832" y="920" type="line"/>
      <point x="832" y="960"/>
      <point x="705" y="1070"/>
      <point x="555" y="1070" type="curve" smooth="yes"/>
      <point x="235" y="1070"/>
      <point x="50" y="840"/>
      <point x="50" y="520" type="curve" smooth="yes"/>
      <point x="50" y="200"/>
      <point x="235" y="-30"/>
      <point x="555" y="-30" type="curve" smooth="yes"/>
      <point x="705" y="-30"/>
      <point x="810" y="81"/>
      <point x="820" y="120" type="curve"/>
      <point x="820" y="80" type="line" smooth="yes"/>
      <point x="820" y="-57"/>
      <point x="724" y="-150"/>
      <point x="587" y="-150" type="curve" smooth="yes"/>
      <point x="450" y="-150"/>
      <point x="391" y="-104"/>
      <point x="357" y="-10" type="curve"/>
      <point x="50" y="-188" type="line"/>
      <point x="121" y="-336"/>
      <point x="267" y="-470"/>
      <point x="587" y="-470" type="curve" smooth="yes"/>
      <point x="907" y="-470"/>
      <point x="1180" y="-300"/>
      <point x="1180" y="80" type="curve" smooth="yes"/>
      <point x="1180" y="872" type="line"/>
      <point x="1180" y="974"/>
      <point x="1180" y="1040"/>
    </contour>
    <contour>
      <point x="820" y="530" type="curve" smooth="yes"/>
      <point x="820" y="400"/>
      <point x="757" y="290"/>
      <point x="620" y="290" type="curve" smooth="yes"/>
      <point x="483" y="290"/>
      <point x="410" y="390"/>
      <point x="410" y="520" type="curve" smooth="yes"/>
      <point x="410" y="650"/>
      <point x="483" y="750"/>
      <point x="620" y="750" type="curve" smooth="yes"/>
      <point x="751" y="750"/>
      <point x="820" y="660"/>
    </contour>
  </outline>
</glyph>
<glyph name="uni0264" format="2">
  <advance width="1496"/>
  <unicode hex="0264"/>
  <outline>
    <contour>
      <point x="376" y="694" type="line"/>
      <point x="360" y="722"/>
      <point x="333" y="738"/>
      <point x="305" y="738" type="curve" smooth="yes"/>
      <point x="290" y="738"/>
      <point x="275" y="734"/>
      <point x="260" y="725" type="curve" smooth="yes"/>
      <point x="249" y="719"/>
      <point x="240" y="710"/>
      <point x="233" y="700" type="curve"/>
      <point x="70" y="983" type="line"/>
      <point x="80" y="990"/>
      <point x="90" y="996"/>
      <point x="100" y="1002" type="curve" smooth="yes"/>
      <point x="179" y="1047"/>
      <point x="258" y="1070"/>
      <point x="334" y="1070" type="curve" smooth="yes"/>
      <point x="467" y="1070"/>
      <point x="587" y="1000"/>
      <point x="667" y="862" type="curve"/>
      <point x="748" y="723" type="line"/>
      <point x="829" y="862" type="line"/>
      <point x="909" y="1000"/>
      <point x="1029" y="1070"/>
      <point x="1162" y="1070" type="curve" smooth="yes"/>
      <point x="1238" y="1070"/>
      <point x="1317" y="1047"/>
      <point x="1396" y="1002" type="curve" smooth="yes"/>
      <point x="1406" y="996"/>
      <point x="1416" y="990"/>
      <point x="1426" y="983" type="curve"/>
      <point x="1263" y="700" type="line"/>
      <point x="1256" y="710"/>
      <point x="1247" y="719"/>
      <point x="1236" y="725" type="curve" smooth="yes"/>
      <point x="1221" y="734"/>
      <point x="1206" y="738"/>
      <point x="1191" y="738" type="curve" smooth="yes"/>
      <point x="1163" y="738"/>
      <point x="1136" y="722"/>
      <point x="1120" y="694" type="curve"/>
      <point x="1039" y="553" type="line"/>
      <point x="1096" y="454" type="line"/>
      <point x="1122" y="409"/>
      <point x="1132" y="362"/>
      <point x="1132" y="309" type="curve" smooth="yes"/>
      <point x="1132" y="122"/>
      <point x="978" y="-20"/>
      <point x="748" y="-20" type="curve" smooth="yes"/>
      <point x="518" y="-20"/>
      <point x="363" y="122"/>
      <point x="363" y="309" type="curve" smooth="yes"/>
      <point x="363" y="362"/>
      <point x="370" y="404"/>
      <point x="399" y="454" type="curve"/>
      <point x="457" y="578" type="line"/>
    </contour>
    <contour>
      <point x="783" y="389" type="curve"/>
      <point x="748" y="450" type="line"/>
      <point x="713" y="389" type="line"/>
      <point x="707" y="379"/>
      <point x="703" y="369"/>
      <point x="703" y="349" type="curve" smooth="yes"/>
      <point x="703" y="319"/>
      <point x="718" y="301"/>
      <point x="748" y="301" type="curve" smooth="yes"/>
      <point x="778" y="301"/>
      <point x="792" y="319"/>
      <point x="792" y="349" type="curve" smooth="yes"/>
      <point x="792" y="369"/>
      <point x="789" y="379"/>
    </contour>
  </outline>
</glyph>
<glyph name="uni0265" format="2">
  <advance width="1192"/>
  <unicode hex="0265"/>
  <outline>
    <contour>
      <point x="430" y="1040" type="line"/>
      <point x="430" y="468" type="line" smooth="yes"/>
      <point x="430" y="358"/>
      <point x="466" y="290"/>
      <point x="596" y="290" type="curve" smooth="yes"/>
      <point x="726" y="290"/>
      <point x="762" y="358"/>
      <point x="762" y="468" type="curve" smooth="yes"/>
      <point x="762" y="1040" type="line"/>
      <point x="1122" y="1040" type="line"/>
      <point x="1122" y="-440" type="line"/>
      <point x="774" y="-440" type="line"/>
      <point x="774" y="120" type="line"/>
      <point x="739" y="59"/>
      <point x="650" y="-30"/>
      <point x="500" y="-30" type="curve" smooth="yes"/>
      <point x="236" y="-30"/>
      <point x="70" y="148"/>
      <point x="70" y="468" type="curve"/>
      <point x="70" y="1040" type="line"/>
    </contour>
  </outline>
</glyph>
<glyph name="uni0267" format="2">
  <advance width="1192"/>
  <unicode hex="0267"/>
  <outline>
    <contour>
      <point x="641" y="-77" type="line"/>
      <point x="652" y="-82"/>
      <point x="664" y="-84"/>
      <point x="677" y="-84" type="curve" smooth="yes"/>
      <point x="727" y="-84"/>
      <point x="762" y="-50"/>
      <point x="762" y="0" type="curve"/>
      <point x="1122" y="0" type="line"/>
      <point x="1122" y="-250"/>
      <point x="927" y="-404"/>
      <point x="677" y="-404" type="curve" smooth="yes"/>
      <point x="665" y="-404"/>
      <point x="653" y="-404"/>
      <point x="641" y="-403" type="curve"/>
    </contour>
    <contour>
      <point x="70" y="1106" type="line"/>
      <point x="70" y="1356"/>
      <point x="253" y="1510"/>
      <point x="503" y="1510" type="curve" smooth="yes"/>
      <point x="515" y="1510"/>
      <point x="527" y="1510"/>
      <point x="539" y="1509" type="curve"/>
      <point x="539" y="1183" type="line"/>
      <point x="528" y="1188"/>
      <point x="516" y="1190"/>
      <point x="503" y="1190" type="curve" smooth="yes"/>
      <point x="453" y="1190"/>
      <point x="418" y="1156"/>
      <point x="418" y="1106" type="curve"/>
      <point x="418" y="920" type="line"/>
      <point x="453" y="981"/>
      <point x="542" y="1070"/>
      <point x="692" y="1070" type="curve" smooth="yes"/>
      <point x="956" y="1070"/>
      <point x="1122" y="892"/>
      <point x="1122" y="572" type="curve"/>
      <point x="1122" y="0" type="line"/>
      <point x="762" y="0" type="line"/>
      <point x="762" y="572" type="line" smooth="yes"/>
      <point x="762" y="682"/>
      <point x="726" y="750"/>
      <point x="596" y="750" type="curve" smooth="yes"/>
      <point x="466" y="750"/>
      <point x="430" y="682"/>
      <point x="430" y="572" type="curve" smooth="yes"/>
      <point x="430" y="0" type="line"/>
      <point x="70" y="0" type="line"/>
    </contour>
  </outline>
</glyph>
<glyph name="uni026B" format="2">
  <advance width="924"/>
  <unicode hex="026B"/>
  <outline>
    <contour>
      <point x="312" y="592" type="curve"/>
      <point x="103" y="648" type="line"/>
      <point x="120" y="765"/>
      <point x="213" y="887"/>
      <point x="369" y="887" type="curve" smooth="yes"/>
      <point x="459" y="887"/>
      <point x="513" y="824"/>
      <point x="555" y="824" type="curve" smooth="yes"/>
      <point x="600" y="824"/>
      <point x="612" y="866"/>
      <point x="612" y="887" type="curve"/>
      <point x="821" y="831" type="line"/>
      <point x="804" y="714"/>
      <point x="711" y="592"/>
      <point x="555" y="592" type="curve" smooth="yes"/>
      <point x="465" y="592"/>
      <point x="411" y="655"/>
      <point x="369" y="655" type="curve" smooth="yes"/>
      <point x="318" y="655"/>
      <point x="312" y="613"/>
    </contour>
    <contour>
      <point x="70" y="1480" type="line"/>
      <point x="854" y="1480" type="line"/>
      <point x="854" y="1144" type="line"/>
      <point x="652" y="1144" type="line"/>
      <point x="652" y="336" type="line"/>
      <point x="854" y="336" type="line"/>
      <point x="854" y="0" type="line"/>
      <point x="70" y="0" type="line"/>
      <point x="70" y="336" type="line"/>
      <point x="272" y="336" type="line"/>
      <point x="272" y="1144" type="line"/>
      <point x="70" y="1144" type="line"/>
    </contour>
  </outline>
</glyph>
<glyph name="uni026F" format="2">
  <advance width="1644"/>
  <unicode hex="026F"/>
  <anchor x="822" y="1040" name="top_center"/>
  <anchor x="822" y="0" name="bottom_center"/>
  <outline>
    <contour>
      <point x="1002" y="1040" type="line"/>
      <point x="1002" y="468" type="line" smooth="yes"/>
      <point x="1002" y="358"/>
      <point x="1008" y="290"/>
      <point x="1108" y="290" type="curve" smooth="yes"/>
      <point x="1208" y="290"/>
      <point x="1214" y="358"/>
      <point x="1214" y="468" type="curve" smooth="yes"/>
      <point x="1214" y="1040" type="line"/>
      <point x="1574" y="1040" type="line"/>
      <point x="1574" y="0" type="line"/>
      <point x="1226" y="0" type="line"/>
      <point x="1226" y="120" type="line"/>
      <point x="1226" y="120"/>
      <point x="1162" y="-30"/>
      <point x="1012" y="-30" type="curve" smooth="yes"/>
      <point x="879" y="-30"/>
      <point x="785" y="16"/>
      <point x="726" y="102" type="curve"/>
      <point x="667" y="16"/>
      <point x="573" y="-30"/>
      <point x="440" y="-30" type="curve" smooth="yes"/>
      <point x="176" y="-30"/>
      <point x="70" y="148"/>
      <point x="70" y="468" type="curve" smooth="yes"/>
      <point x="70" y="1040" type="line"/>
      <point x="430" y="1040" type="line"/>
      <point x="430" y="468" type="line" smooth="yes"/>
      <point x="430" y="358"/>
      <point x="436" y="290"/>
      <point x="536" y="290" type="curve" smooth="yes"/>
      <point x="636" y="290"/>
      <point x="642" y="358"/>
      <point x="642" y="468" type="curve" smooth="yes"/>
      <point x="642" y="1040" type="line"/>
    </contour>
  </outline>
</glyph>
<glyph name="uni0271" format="2">
  <advance width="1644"/>
  <unicode hex="0271"/>
  <outline>
    <contour>
      <point x="642" y="0" type="line"/>
      <point x="642" y="572" type="line" smooth="yes"/>
      <point x="642" y="682"/>
      <point x="636" y="750"/>
      <point x="536" y="750" type="curve" smooth="yes"/>
      <point x="436" y="750"/>
      <point x="430" y="682"/>
      <point x="430" y="572" type="curve" smooth="yes"/>
      <point x="430" y="0" type="line"/>
      <point x="70" y="0" type="line"/>
      <point x="70" y="1040" type="line"/>
      <point x="418" y="1040" type="line"/>
      <point x="418" y="920" type="line"/>
      <point x="418" y="920"/>
      <point x="482" y="1070"/>
      <point x="632" y="1070" type="curve" smooth="yes"/>
      <point x="765" y="1070"/>
      <point x="859" y="1024"/>
      <point x="918" y="938" type="curve"/>
      <point x="977" y="1024"/>
      <point x="1071" y="1070"/>
      <point x="1204" y="1070" type="curve" smooth="yes"/>
      <point x="1468" y="1070"/>
      <point x="1574" y="892"/>
      <point x="1574" y="572" type="curve" smooth="yes"/>
      <point x="1574" y="0" type="line" smooth="yes"/>
      <point x="1574" y="-250"/>
      <point x="1379" y="-404"/>
      <point x="1129" y="-404" type="curve" smooth="yes"/>
      <point x="1117" y="-404"/>
      <point x="1105" y="-404"/>
      <point x="1093" y="-403" type="curve"/>
      <point x="1093" y="-77" type="line"/>
      <point x="1104" y="-82"/>
      <point x="1116" y="-84"/>
      <point x="1129" y="-84" type="curve" smooth="yes"/>
      <point x="1179" y="-84"/>
      <point x="1214" y="-50"/>
      <point x="1214" y="0" type="curve" smooth="yes"/>
      <point x="1214" y="572" type="line" smooth="yes"/>
      <point x="1214" y="682"/>
      <point x="1208" y="750"/>
      <point x="1108" y="750" type="curve" smooth="yes"/>
      <point x="1008" y="750"/>
      <point x="1002" y="682"/>
      <point x="1002" y="572" type="curve" smooth="yes"/>
      <point x="1002" y="0" type="line"/>
    </contour>
  </outline>
</glyph>
<glyph name="uni0272" format="2">
  <advance width="1243"/>
  <unicode hex="0272"/>
  <outline>
    <contour>
      <point x="481" y="0" type="curve" smooth="yes"/>
      <point x="481" y="572" type="line" smooth="yes"/>
      <point x="481" y="682"/>
      <point x="517" y="750"/>
      <point x="647" y="750" type="curve" smooth="yes"/>
      <point x="777" y="750"/>
      <point x="813" y="682"/>
      <point x="813" y="572" type="curve" smooth="yes"/>
      <point x="813" y="0" type="line"/>
      <point x="1173" y="0" type="line"/>
      <point x="1173" y="572" type="line"/>
      <point x="1173" y="892"/>
      <point x="1007" y="1070"/>
      <point x="743" y="1070" type="curve" smooth="yes"/>
      <point x="593" y="1070"/>
      <point x="504" y="981"/>
      <point x="469" y="920" type="curve"/>
      <point x="469" y="1040" type="line"/>
      <point x="121" y="1040" type="line"/>
      <point x="121" y="0" type="line" smooth="yes"/>
      <point x="121" y="-50"/>
      <point x="86" y="-84"/>
      <point x="36" y="-84" type="curve" smooth="yes"/>
      <point x="23" y="-84"/>
      <point x="11" y="-82"/>
      <point x="0" y="-77" type="curve"/>
      <point x="0" y="-403" type="line"/>
      <point x="12" y="-404"/>
      <point x="24" y="-404"/>
      <point x="36" y="-404" type="curve" smooth="yes"/>
      <point x="286" y="-404"/>
      <point x="481" y="-250"/>
    </contour>
  </outline>
</glyph>
<glyph name="uni0273" format="2">
  <advance width="1243"/>
  <unicode hex="0273"/>
  <outline>
    <contour>
      <point x="762" y="0" type="curve" smooth="yes"/>
      <point x="762" y="572" type="line" smooth="yes"/>
      <point x="762" y="682"/>
      <point x="726" y="750"/>
      <point x="596" y="750" type="curve" smooth="yes"/>
      <point x="466" y="750"/>
      <point x="430" y="682"/>
      <point x="430" y="572" type="curve" smooth="yes"/>
      <point x="430" y="0" type="line"/>
      <point x="70" y="0" type="line"/>
      <point x="70" y="1040" type="line"/>
      <point x="418" y="1040" type="line"/>
      <point x="418" y="920" type="line"/>
      <point x="453" y="981"/>
      <point x="542" y="1070"/>
      <point x="692" y="1070" type="curve" smooth="yes"/>
      <point x="956" y="1070"/>
      <point x="1122" y="892"/>
      <point x="1122" y="572" type="curve"/>
      <point x="1122" y="0" type="line" smooth="yes"/>
      <point x="1122" y="-50"/>
      <point x="1157" y="-84"/>
      <point x="1207" y="-84" type="curve" smooth="yes"/>
      <point x="1220" y="-84"/>
      <point x="1232" y="-82"/>
      <point x="1243" y="-77" type="curve"/>
      <point x="1243" y="-403" type="line"/>
      <point x="1231" y="-404"/>
      <point x="1219" y="-404"/>
      <point x="1207" y="-404" type="curve" smooth="yes"/>
      <point x="957" y="-404"/>
      <point x="762" y="-250"/>
    </contour>
  </outline>
</glyph>
<glyph name="uni0275" format="2">
  <advance width="1200"/>
  <unicode hex="0275"/>
  <outline>
    <contour>
      <point x="118" y="650" type="line"/>
      <point x="1024" y="650" type="line"/>
      <point x="1024" y="390" type="line"/>
      <point x="118" y="390" type="line"/>
    </contour>
    <contour>
      <point x="410" y="520" type="curve" smooth="yes"/>
      <point x="410" y="390"/>
      <point x="463" y="290"/>
      <point x="600" y="290" type="curve" smooth="yes"/>
      <point x="737" y="290"/>
      <point x="790" y="383"/>
      <point x="790" y="520" type="curve" smooth="yes"/>
      <point x="790" y="657"/>
      <point x="737" y="750"/>
      <point x="600" y="750" type="curve" smooth="yes"/>
      <point x="463" y="750"/>
      <point x="410" y="657"/>
    </contour>
    <contour>
      <point x="50" y="520" type="curve" smooth="yes"/>
      <point x="50" y="840"/>
      <point x="280" y="1070"/>
      <point x="600" y="1070" type="curve" smooth="yes"/>
      <point x="920" y="1070"/>
      <point x="1150" y="840"/>
      <point x="1150" y="520" type="curve" smooth="yes"/>
      <point x="1150" y="200"/>
      <point x="920" y="-30"/>
      <point x="600" y="-30" type="curve" smooth="yes"/>
      <point x="280" y="-30"/>
      <point x="50" y="200"/>
    </contour>
  </outline>
</glyph>
<glyph name="uni027D" format="2">
  <advance width="887"/>
  <unicode hex="027D"/>
  <outline>
    <contour>
      <point x="430" y="-66" type="curve" smooth="yes"/>
      <point x="430" y="572" type="line" smooth="yes"/>
      <point x="430" y="682"/>
      <point x="466" y="750"/>
      <point x="596" y="750" type="curve" smooth="yes"/>
      <point x="679" y="750"/>
      <point x="737" y="730"/>
      <point x="775" y="691" type="curve"/>
      <point x="882" y="1034" type="line"/>
      <point x="826" y="1058"/>
      <point x="763" y="1070"/>
      <point x="692" y="1070" type="curve" smooth="yes"/>
      <point x="542" y="1070"/>
      <point x="453" y="981"/>
      <point x="418" y="920" type="curve"/>
      <point x="418" y="1040" type="line"/>
      <point x="70" y="1040" type="line"/>
      <point x="70" y="-66" type="line" smooth="yes"/>
      <point x="70" y="-316"/>
      <point x="265" y="-470"/>
      <point x="515" y="-470" type="curve" smooth="yes"/>
      <point x="527" y="-470"/>
      <point x="539" y="-470"/>
      <point x="551" y="-469" type="curve"/>
      <point x="551" y="-143" type="line"/>
      <point x="540" y="-148"/>
      <point x="528" y="-150"/>
      <point x="515" y="-150" type="curve" smooth="yes"/>
      <point x="465" y="-150"/>
      <point x="430" y="-116"/>
    </contour>
  </outline>
</glyph>
<glyph name="uni027E" format="2">
  <advance width="665"/>
  <unicode hex="027E"/>
  <outline>
    <contour>
      <point x="560" y="734" type="curve"/>
      <point x="660" y="1026" type="line"/>
      <point x="634" y="1039"/>
      <point x="586" y="1070"/>
      <point x="498" y="1070" type="curve" smooth="yes"/>
      <point x="314" y="1070"/>
      <point x="70" y="978"/>
      <point x="70" y="678" type="curve" smooth="yes"/>
      <point x="70" y="600" type="line"/>
      <point x="70" y="462" type="line"/>
      <point x="70" y="0" type="line"/>
      <point x="430" y="0" type="line"/>
      <point x="430" y="462" type="line"/>
      <point x="430" y="600" type="line"/>
      <point x="430" y="678" type="line" smooth="yes"/>
      <point x="430" y="728"/>
      <point x="446" y="750"/>
      <point x="498" y="750" type="curve" smooth="yes"/>
      <point x="517" y="750"/>
      <point x="547" y="743"/>
    </contour>
  </outline>
</glyph>
<glyph name="uni028A" format="2">
  <advance width="1260"/>
  <unicode hex="028A"/>
  <outline>
    <contour>
      <point x="1210" y="730" type="line"/>
      <point x="1210" y="1040" type="line"/>
      <point x="749" y="1040" type="line"/>
      <point x="749" y="730" type="line"/>
    </contour>
    <contour>
      <point x="50" y="730" type="line"/>
      <point x="511" y="730" type="line"/>
      <point x="511" y="1040" type="line"/>
      <point x="50" y="1040" type="line"/>
    </contour>
    <contour>
      <point x="630" y="-30" type="curve" smooth="yes"/>
      <point x="950" y="-30"/>
      <point x="1210" y="200"/>
      <point x="1210" y="520" type="curve" smooth="yes"/>
      <point x="1210" y="592"/>
      <point x="1187" y="666"/>
      <point x="1143" y="730" type="curve"/>
      <point x="749" y="730" type="line"/>
      <point x="813" y="692"/>
      <point x="850" y="611"/>
      <point x="850" y="520" type="curve" smooth="yes"/>
      <point x="850" y="390"/>
      <point x="767" y="290"/>
      <point x="630" y="290" type="curve" smooth="yes"/>
      <point x="493" y="290"/>
      <point x="410" y="390"/>
      <point x="410" y="520" type="curve" smooth="yes"/>
      <point x="410" y="611"/>
      <point x="447" y="692"/>
      <point x="511" y="730" type="curve"/>
      <point x="117" y="730" type="line"/>
      <point x="73" y="666"/>
      <point x="50" y="592"/>
      <point x="50" y="520" type="curve" smooth="yes"/>
      <point x="50" y="200"/>
      <point x="310" y="-30"/>
    </contour>
  </outline>
</glyph>
<glyph name="uni028B" format="2">
  <advance width="1192"/>
  <unicode hex="028B"/>
  <outline>
    <contour>
      <point x="762" y="666" type="curve"/>
      <point x="762" y="468" type="line" smooth="yes"/>
      <point x="762" y="358"/>
      <point x="726" y="290"/>
      <point x="596" y="290" type="curve" smooth="yes"/>
      <point x="466" y="290"/>
      <point x="430" y="358"/>
      <point x="430" y="468" type="curve" smooth="yes"/>
      <point x="430" y="1040" type="line"/>
      <point x="70" y="1040" type="line"/>
      <point x="70" y="468" type="line"/>
      <point x="70" y="118"/>
      <point x="332" y="-30"/>
      <point x="596" y="-30" type="curve" smooth="yes"/>
      <point x="860" y="-30"/>
      <point x="1122" y="118"/>
      <point x="1122" y="468" type="curve"/>
      <point x="1122" y="666" type="line"/>
      <point x="1122" y="916"/>
      <point x="927" y="1070"/>
      <point x="677" y="1070" type="curve" smooth="yes"/>
      <point x="665" y="1070"/>
      <point x="653" y="1070"/>
      <point x="641" y="1069" type="curve"/>
      <point x="641" y="743" type="line"/>
      <point x="652" y="748"/>
      <point x="664" y="750"/>
      <point x="677" y="750" type="curve" smooth="yes"/>
      <point x="727" y="750"/>
      <point x="762" y="716"/>
    </contour>
  </outline>
</glyph>
<glyph name="uni028C" format="2">
  <advance width="1174"/>
  <unicode hex="028C"/>
  <outline>
    <contour>
      <point x="784" y="1040" type="line"/>
      <point x="1139" y="0" type="line"/>
      <point x="755" y="0" type="line"/>
      <point x="595" y="636" type="line"/>
      <point x="419" y="0" type="line"/>
      <point x="35" y="0" type="line"/>
      <point x="390" y="1040" type="line"/>
    </contour>
  </outline>
</glyph>
<glyph name="uni0293" format="2">
  <advance width="1280"/>
  <unicode hex="0293"/>
  <outline>
    <contour>
      <point x="627" y="-194" type="line" smooth="yes"/>
      <point x="777" y="-194"/>
      <point x="851" y="-109"/>
      <point x="851" y="-9" type="curve" smooth="yes"/>
      <point x="851" y="91"/>
      <point x="767" y="176"/>
      <point x="617" y="176" type="curve" smooth="yes"/>
      <point x="597" y="176"/>
      <point x="522" y="176"/>
      <point x="522" y="176" type="curve"/>
      <point x="522" y="472" type="line"/>
      <point x="522" y="472"/>
      <point x="616" y="496"/>
      <point x="636" y="496" type="curve" smooth="yes"/>
      <point x="975" y="496"/>
      <point x="1230" y="280"/>
      <point x="1230" y="13" type="curve" smooth="yes"/>
      <point x="1230" y="-320"/>
      <point x="987" y="-434"/>
      <point x="627" y="-434" type="curve" smooth="yes"/>
      <point x="360" y="-434" type="line" smooth="yes"/>
      <point x="165" y="-434"/>
      <point x="0" y="-308"/>
      <point x="0" y="-95" type="curve" smooth="yes"/>
      <point x="0" y="118"/>
      <point x="165" y="244"/>
      <point x="360" y="244" type="curve" smooth="yes"/>
      <point x="885" y="244"/>
      <point x="1056" y="-430"/>
      <point x="1056" y="-430" type="curve"/>
      <point x="816" y="-568" type="line"/>
      <point x="816" y="-568"/>
      <point x="690" y="3"/>
      <point x="360" y="4" type="curve" smooth="yes"/>
      <point x="306" y="4"/>
      <point x="270" y="-41"/>
      <point x="270" y="-95" type="curve" smooth="yes"/>
      <point x="270" y="-149"/>
      <point x="306" y="-194"/>
      <point x="360" y="-194" type="curve" smooth="yes"/>
    </contour>
    <contour>
      <point x="705" y="194" type="line"/>
      <point x="522" y="472" type="line"/>
      <point x="1027" y="1040" type="line"/>
      <point x="1170" y="736" type="line"/>
    </contour>
    <contour>
      <point x="116" y="1040" type="line"/>
      <point x="1170" y="1040" type="line"/>
      <point x="1170" y="736" type="line"/>
      <point x="757" y="704" type="line"/>
      <point x="116" y="704" type="line"/>
    </contour>
  </outline>
</glyph>
<glyph name="uni02A5" format="2">
  <advance width="2712"/>
  <unicode hex="02A5"/>
  <outline>
    <contour>
      <point x="2352" y="240" type="line" smooth="yes"/>
      <point x="2406" y="240"/>
      <point x="2442" y="285"/>
      <point x="2442" y="339" type="curve" smooth="yes"/>
      <point x="2442" y="393"/>
      <point x="2406" y="438"/>
      <point x="2352" y="438" type="curve" smooth="yes"/>
      <point x="2022" y="437"/>
      <point x="1896" y="-177"/>
      <point x="1896" y="-177" type="curve"/>
      <point x="1656" y="-39" type="line"/>
      <point x="1656" y="-39"/>
      <point x="1827" y="678"/>
      <point x="2352" y="678" type="curve" smooth="yes"/>
      <point x="2547" y="678"/>
      <point x="2712" y="552"/>
      <point x="2712" y="339" type="curve" smooth="yes"/>
      <point x="2712" y="126"/>
      <point x="2547" y="0"/>
      <point x="2352" y="0" type="curve" smooth="yes"/>
      <point x="1200" y="0" type="line"/>
      <point x="1200" y="288" type="line"/>
      <point x="1674" y="240" type="line"/>
    </contour>
    <contour>
      <point x="1200" y="1040" type="line"/>
      <point x="2092" y="1040" type="line"/>
      <point x="2092" y="752" type="line"/>
      <point x="1678" y="720" type="line"/>
      <point x="1200" y="720" type="line"/>
    </contour>
    <contour>
      <point x="1669" y="230" type="line"/>
      <point x="1200" y="288" type="line"/>
      <point x="1618" y="720" type="line"/>
      <point x="2092" y="752" type="line"/>
    </contour>
    <contour>
      <point x="840" y="510" type="curve" smooth="yes"/>
      <point x="840" y="640"/>
      <point x="777" y="750"/>
      <point x="640" y="750" type="curve" smooth="yes"/>
      <point x="503" y="750"/>
      <point x="430" y="650"/>
      <point x="430" y="520" type="curve" smooth="yes"/>
      <point x="430" y="390"/>
      <point x="503" y="290"/>
      <point x="640" y="290" type="curve" smooth="yes"/>
      <point x="771" y="290"/>
      <point x="840" y="380"/>
    </contour>
    <contour>
      <point x="1200" y="168" type="line"/>
      <point x="1200" y="66"/>
      <point x="1224" y="0"/>
      <point x="1224" y="0" type="curve"/>
      <point x="876" y="0" type="line"/>
      <point x="876" y="0"/>
      <point x="852" y="60"/>
      <point x="852" y="120" type="curve"/>
      <point x="852" y="80"/>
      <point x="725" y="-30"/>
      <point x="575" y="-30" type="curve" smooth="yes"/>
      <point x="255" y="-30"/>
      <point x="70" y="200"/>
      <point x="70" y="520" type="curve" smooth="yes"/>
      <point x="70" y="840"/>
      <point x="255" y="1070"/>
      <point x="575" y="1070" type="curve" smooth="yes"/>
      <point x="725" y="1070"/>
      <point x="830" y="959"/>
      <point x="840" y="920" type="curve"/>
      <point x="840" y="1480" type="line"/>
      <point x="1200" y="1480" type="line"/>
    </contour>
  </outline>
</glyph>
<glyph name="uni02A7" format="2">
  <advance width="1752"/>
  <unicode hex="02A7"/>
  <outline>
    <contour>
      <point x="771" y="0" type="line" smooth="yes"/>
      <point x="411" y="0"/>
      <point x="277" y="160"/>
      <point x="277" y="440" type="curve" smooth="yes"/>
      <point x="277" y="720" type="line"/>
      <point x="25" y="720" type="line"/>
      <point x="25" y="1028" type="line"/>
      <point x="97" y="1028" type="line"/>
      <point x="217" y="1028"/>
      <point x="301" y="1106"/>
      <point x="301" y="1226" type="curve"/>
      <point x="301" y="1320" type="line"/>
      <point x="637" y="1320" type="line"/>
      <point x="637" y="1040" type="line"/>
      <point x="942" y="1040" type="line"/>
      <point x="942" y="720" type="line"/>
      <point x="637" y="720" type="line"/>
      <point x="637" y="440" type="line" smooth="yes"/>
      <point x="637" y="340"/>
      <point x="685" y="320"/>
      <point x="775" y="320" type="curve" smooth="yes"/>
      <point x="1197" y="320" type="line"/>
      <point x="1197" y="0" type="line"/>
    </contour>
    <contour>
      <point x="996" y="1040" type="line"/>
      <point x="996" y="1320"/>
      <point x="1130" y="1510"/>
      <point x="1490" y="1510" type="curve" smooth="yes"/>
      <point x="1611" y="1510"/>
      <point x="1696" y="1482"/>
      <point x="1752" y="1458" type="curve"/>
      <point x="1661" y="1135" type="line"/>
      <point x="1629" y="1167"/>
      <point x="1554" y="1190"/>
      <point x="1494" y="1190" type="curve" smooth="yes"/>
      <point x="1404" y="1190"/>
      <point x="1356" y="1150"/>
      <point x="1356" y="1050" type="curve"/>
      <point x="1356" y="798" type="line"/>
      <point x="1356" y="360" type="line"/>
      <point x="1356" y="0" type="line"/>
      <point x="1356" y="-280"/>
      <point x="1222" y="-470"/>
      <point x="862" y="-470" type="curve" smooth="yes"/>
      <point x="741" y="-470"/>
      <point x="656" y="-442"/>
      <point x="600" y="-418" type="curve"/>
      <point x="691" y="-95" type="line"/>
      <point x="723" y="-127"/>
      <point x="798" y="-150"/>
      <point x="858" y="-150" type="curve" smooth="yes"/>
      <point x="948" y="-150"/>
      <point x="996" y="-110"/>
      <point x="996" y="-10" type="curve"/>
      <point x="996" y="350" type="line"/>
      <point x="996" y="795" type="line"/>
    </contour>
  </outline>
</glyph>
<glyph name="uni02BF" format="2">
  <advance width="276"/>
  <unicode hex="02BF"/>
  <outline>
    <contour>
      <point x="241" y="1302" type="line"/>
      <point x="215" y="1302"/>
      <point x="196" y="1321"/>
      <point x="196" y="1347" type="curve" smooth="yes"/>
      <point x="196" y="1373"/>
      <point x="215" y="1392"/>
      <point x="241" y="1392" type="curve"/>
      <point x="241" y="1542" type="line"/>
      <point x="121" y="1542"/>
      <point x="35" y="1457"/>
      <point x="35" y="1347" type="curve" smooth="yes"/>
      <point x="35" y="1237"/>
      <point x="121" y="1152"/>
      <point x="241" y="1152" type="curve"/>
    </contour>
  </outline>
</glyph>
<glyph name="uni02D1" format="2">
  <advance width="572"/>
  <unicode hex="02D1"/>
  <outline>
    <contour>
      <point x="286" y="694" type="line"/>
      <point x="50" y="1100" type="line"/>
      <point x="522" y="1100" type="line"/>
    </contour>
  </outline>
</glyph>
<glyph name="breve" format="2">
  <advance width="742"/>
  <unicode hex="02D8"/>
  <outline>
    <contour>
      <point x="371" y="1194" type="curve" smooth="yes"/>
      <point x="161" y="1194"/>
      <point x="35" y="1340"/>
      <point x="35" y="1480" type="curve"/>
      <point x="293" y="1480" type="line"/>
      <point x="293" y="1450"/>
      <point x="321" y="1404"/>
      <point x="371" y="1404" type="curve" smooth="yes"/>
      <point x="421" y="1404"/>
      <point x="447" y="1450"/>
      <point x="447" y="1480" type="curve"/>
      <point x="707" y="1480" type="line"/>
      <point x="707" y="1340"/>
      <point x="581" y="1194"/>
    </contour>
  </outline>
</glyph>
<glyph name="uni02E2" format="2">
  <advance width="620"/>
  <unicode hex="02E2"/>
  <outline>
    <contour>
      <point x="323" y="1428" type="curve" smooth="yes"/>
      <point x="461" y="1428"/>
      <point x="556" y="1386"/>
      <point x="590" y="1275" type="curve"/>
      <point x="355" y="1191" type="line"/>
      <point x="354" y="1207"/>
      <point x="338" y="1217"/>
      <point x="323" y="1217" type="curve" smooth="yes"/>
      <point x="308" y="1217"/>
      <point x="292" y="1215"/>
      <point x="292" y="1207" type="curve" smooth="yes"/>
      <point x="292" y="1199"/>
      <point x="307" y="1196"/>
      <point x="323" y="1193" type="curve" smooth="yes"/>
      <point x="493" y="1158"/>
      <point x="587" y="1125"/>
      <point x="587" y="976" type="curve" smooth="yes"/>
      <point x="587" y="837"/>
      <point x="483" y="788"/>
      <point x="323" y="788" type="curve" smooth="yes"/>
      <point x="165" y="788"/>
      <point x="62" y="837"/>
      <point x="30" y="947" type="curve"/>
      <point x="265" y="1031" type="line"/>
      <point x="266" y="1008"/>
      <point x="304" y="999"/>
      <point x="323" y="999" type="curve" smooth="yes"/>
      <point x="335" y="999"/>
      <point x="357" y="1001"/>
      <point x="357" y="1011" type="curve" smooth="yes"/>
      <point x="357" y="1021"/>
      <point x="339" y="1023"/>
      <point x="323" y="1026" type="curve" smooth="yes"/>
      <point x="161" y="1059"/>
      <point x="62" y="1096"/>
      <point x="62" y="1242" type="curve" smooth="yes"/>
      <point x="62" y="1358"/>
      <point x="161" y="1428"/>
    </contour>
  </outline>
</glyph>
<glyph name="acutecomb" format="2">
  <advance width="0"/>
  <unicode hex="0301"/>
  <anchor x="642" y="1224" name="_mark_anchor_right"/>
  <anchor x="642" y="1040" name="_top_center"/>
  <outline>
    <contour>
      <point x="810" y="1224" type="line"/>
      <point x="454" y="1224" type="line"/>
      <point x="632" y="1480" type="line"/>
      <point x="1036" y="1480" type="line"/>
    </contour>
  </outline>
</glyph>
<glyph name="tildecomb" format="2">
  <advance width="0"/>
  <unicode hex="0303"/>
  <anchor x="642" y="1526" name="mark_anchor_right"/>
  <anchor x="642" y="1526" name="mark_anchor_left"/>
  <anchor x="642" y="1592" name="mark_anchor_top"/>
  <anchor x="642" y="1602" name="mark_anchor_center"/>
  <anchor x="642" y="1224" name="_mark_anchor_top"/>
  <anchor x="642" y="1040" name="_top_center"/>
  <outline>
    <contour>
      <point x="488" y="1204" type="curve"/>
      <point x="279" y="1260" type="line"/>
      <point x="296" y="1377"/>
      <point x="389" y="1499"/>
      <point x="545" y="1499" type="curve" smooth="yes"/>
      <point x="635" y="1499"/>
      <point x="689" y="1436"/>
      <point x="731" y="1436" type="curve" smooth="yes"/>
      <point x="776" y="1436"/>
      <point x="788" y="1478"/>
      <point x="788" y="1499" type="curve"/>
      <point x="997" y="1443" type="line"/>
      <point x="980" y="1326"/>
      <point x="887" y="1204"/>
      <point x="731" y="1204" type="curve" smooth="yes"/>
      <point x="641" y="1204"/>
      <point x="587" y="1267"/>
      <point x="545" y="1267" type="curve" smooth="yes"/>
      <point x="494" y="1267"/>
      <point x="488" y="1225"/>
    </contour>
  </outline>
</glyph>
<glyph name="uni0304" format="2">
  <advance width="0"/>
  <unicode hex="0304"/>
  <anchor x="643" y="1040" name="_mkmk_top_center"/>
  <anchor x="643" y="1384" name="mkmk_top_center"/>
  <anchor x="643" y="1040" name="_top_center"/>
  <outline>
    <contour>
      <point x="277" y="1224" type="line"/>
      <point x="277" y="1414" type="line"/>
      <point x="1009" y="1414" type="line"/>
      <point x="1009" y="1224" type="line"/>
    </contour>
  </outline>
</glyph>
<glyph name="uni0306" format="2">
  <advance width="0"/>
  <unicode hex="0306"/>
  <anchor x="642" y="1144" name="_mkmk_top_center"/>
  <anchor x="642" y="1480" name="mkmk_top_center"/>
  <anchor x="642" y="1040" name="_top_center"/>
  <outline>
    <contour>
      <point x="642" y="1194" type="curve" smooth="yes"/>
      <point x="432" y="1194"/>
      <point x="306" y="1340"/>
      <point x="306" y="1480" type="curve"/>
      <point x="564" y="1480" type="line"/>
      <point x="564" y="1450"/>
      <point x="592" y="1404"/>
      <point x="642" y="1404" type="curve" smooth="yes"/>
      <point x="692" y="1404"/>
      <point x="718" y="1450"/>
      <point x="718" y="1480" type="curve"/>
      <point x="978" y="1480" type="line"/>
      <point x="978" y="1340"/>
      <point x="852" y="1194"/>
    </contour>
  </outline>
</glyph>
<glyph name="uni0307" format="2">
  <advance width="0"/>
  <unicode hex="0307"/>
  <anchor x="642" y="1144" name="_mkmk_top_center"/>
  <anchor x="642" y="1544" name="mkmk_top_center"/>
  <anchor x="642" y="1040" name="_top_center"/>
  <outline>
    <contour>
      <point x="442" y="1352" type="curve" smooth="yes"/>
      <point x="442" y="1463"/>
      <point x="531" y="1552"/>
      <point x="642" y="1552" type="curve" smooth="yes"/>
      <point x="753" y="1552"/>
      <point x="842" y="1463"/>
      <point x="842" y="1352" type="curve" smooth="yes"/>
      <point x="842" y="1241"/>
      <point x="753" y="1152"/>
      <point x="642" y="1152" type="curve" smooth="yes"/>
      <point x="531" y="1152"/>
      <point x="442" y="1241"/>
    </contour>
  </outline>
</glyph>
<glyph name="uni0308" format="2">
  <advance width="0"/>
  <unicode hex="0308"/>
  <anchor x="642" y="1544" name="mkmk_top_center"/>
  <anchor x="642" y="1144" name="_mkmk_top_center"/>
  <anchor x="642" y="1040" name="_top_center"/>
  <outline>
    <contour>
      <point x="755" y="1352" type="curve" smooth="yes"/>
      <point x="755" y="1463"/>
      <point x="844" y="1552"/>
      <point x="955" y="1552" type="curve" smooth="yes"/>
      <point x="1066" y="1552"/>
      <point x="1155" y="1463"/>
      <point x="1155" y="1352" type="curve" smooth="yes"/>
      <point x="1155" y="1241"/>
      <point x="1066" y="1152"/>
      <point x="955" y="1152" type="curve" smooth="yes"/>
      <point x="844" y="1152"/>
      <point x="755" y="1241"/>
    </contour>
    <contour>
      <point x="125" y="1352" type="curve" smooth="yes"/>
      <point x="125" y="1463"/>
      <point x="214" y="1552"/>
      <point x="325" y="1552" type="curve" smooth="yes"/>
      <point x="436" y="1552"/>
      <point x="525" y="1463"/>
      <point x="525" y="1352" type="curve" smooth="yes"/>
      <point x="525" y="1241"/>
      <point x="436" y="1152"/>
      <point x="325" y="1152" type="curve" smooth="yes"/>
      <point x="214" y="1152"/>
      <point x="125" y="1241"/>
    </contour>
  </outline>
</glyph>
<glyph name="uni030A" format="2">
  <advance width="0"/>
  <unicode hex="030A"/>
  <anchor x="642" y="1144" name="_mkmk_top_center"/>
  <anchor x="642" y="1544" name="mkmk_top_center"/>
  <anchor x="642" y="1040" name="_top_center"/>
  <outline>
    <contour>
      <point x="436" y="1347" type="curve" smooth="yes"/>
      <point x="436" y="1457"/>
      <point x="522" y="1542"/>
      <point x="642" y="1542" type="curve" smooth="yes"/>
      <point x="762" y="1542"/>
      <point x="848" y="1457"/>
      <point x="848" y="1347" type="curve" smooth="yes"/>
      <point x="848" y="1237"/>
      <point x="762" y="1152"/>
      <point x="642" y="1152" type="curve" smooth="yes"/>
      <point x="522" y="1152"/>
      <point x="436" y="1237"/>
    </contour>
    <contour>
      <point x="596" y="1347" type="curve" smooth="yes"/>
      <point x="596" y="1321"/>
      <point x="616" y="1302"/>
      <point x="642" y="1302" type="curve" smooth="yes"/>
      <point x="668" y="1302"/>
      <point x="687" y="1321"/>
      <point x="687" y="1347" type="curve" smooth="yes"/>
      <point x="687" y="1373"/>
      <point x="668" y="1392"/>
      <point x="642" y="1392" type="curve" smooth="yes"/>
      <point x="616" y="1392"/>
      <point x="596" y="1373"/>
    </contour>
  </outline>
</glyph>
<glyph name="uni030C" format="2">
  <advance width="0"/>
  <unicode hex="030C"/>
  <anchor x="642" y="1602" name="mark_anchor_center"/>
  <anchor x="642" y="1224" name="_mark_anchor_center"/>
  <anchor x="642" y="1040" name="_top_center"/>
  <outline>
    <contour>
      <point x="585" y="1480" type="line"/>
      <point x="745" y="1224" type="line"/>
      <point x="439" y="1224" type="line"/>
      <point x="234" y="1480" type="line"/>
    </contour>
    <contour>
      <point x="699" y="1480" type="line"/>
      <point x="1050" y="1480" type="line"/>
      <point x="845" y="1224" type="line"/>
      <point x="539" y="1224" type="line"/>
    </contour>
  </outline>
</glyph>
<glyph name="uni0311" format="2">
  <advance width="0"/>
  <unicode hex="0311"/>
  <anchor x="642" y="1480" name="mkmk_top_center"/>
  <anchor x="642" y="1144" name="_mkmk_top_center"/>
  <anchor x="642" y="1040" name="_top_center"/>
  <outline>
    <contour>
      <point x="642" y="1510" type="curve" smooth="yes"/>
      <point x="432" y="1510"/>
      <point x="306" y="1364"/>
      <point x="306" y="1224" type="curve"/>
      <point x="564" y="1224" type="line"/>
      <point x="564" y="1254"/>
      <point x="592" y="1300"/>
      <point x="642" y="1300" type="curve" smooth="yes"/>
      <point x="692" y="1300"/>
      <point x="718" y="1254"/>
      <point x="718" y="1224" type="curve"/>
      <point x="978" y="1224" type="line"/>
      <point x="978" y="1364"/>
      <point x="852" y="1510"/>
    </contour>
  </outline>
</glyph>
<glyph name="uni0314" format="2">
  <advance width="0"/>
  <unicode hex="0314"/>
  <anchor x="642" y="1144" name="_mkmk_top_center"/>
  <anchor x="642" y="1544" name="mkmk_top_center"/>
  <anchor x="642" y="1040" name="_top_center"/>
  <outline>
    <contour>
      <point x="762" y="1443" type="curve" smooth="yes"/>
      <point x="762" y="1510"/>
      <point x="709" y="1563"/>
      <point x="642" y="1563" type="curve" smooth="yes"/>
      <point x="575" y="1563"/>
      <point x="522" y="1510"/>
      <point x="522" y="1443" type="curve" smooth="yes"/>
      <point x="522" y="1376"/>
      <point x="575" y="1323"/>
      <point x="642" y="1323" type="curve" smooth="yes"/>
      <point x="709" y="1323"/>
      <point x="762" y="1376"/>
    </contour>
    <contour>
      <point x="753" y="1246" type="line"/>
      <point x="676" y="1258"/>
      <point x="617" y="1307"/>
      <point x="617" y="1360" type="curve" smooth="yes"/>
      <point x="617" y="1386"/>
      <point x="641" y="1443"/>
      <point x="641" y="1443" type="curve"/>
      <point x="642" y="1563" type="line"/>
      <point x="574" y="1563"/>
      <point x="483" y="1520"/>
      <point x="483" y="1360" type="curve" smooth="yes"/>
      <point x="483" y="1233"/>
      <point x="622" y="1135"/>
      <point x="717" y="1118" type="curve"/>
    </contour>
  </outline>
</glyph>
<glyph name="uni0315" format="2">
  <advance width="0"/>
  <unicode hex="0315"/>
  <anchor x="642" y="1040" name="_top_center"/>
  <outline>
    <contour>
      <point x="522" y="1443" type="curve" smooth="yes"/>
      <point x="522" y="1510"/>
      <point x="575" y="1563"/>
      <point x="642" y="1563" type="curve" smooth="yes"/>
      <point x="709" y="1563"/>
      <point x="762" y="1510"/>
      <point x="762" y="1443" type="curve" smooth="yes"/>
      <point x="762" y="1376"/>
      <point x="709" y="1323"/>
      <point x="642" y="1323" type="curve" smooth="yes"/>
      <point x="575" y="1323"/>
      <point x="522" y="1376"/>
    </contour>
    <contour>
      <point x="531" y="1246" type="line"/>
      <point x="608" y="1258"/>
      <point x="667" y="1307"/>
      <point x="667" y="1360" type="curve" smooth="yes"/>
      <point x="667" y="1386"/>
      <point x="643" y="1443"/>
      <point x="643" y="1443" type="curve"/>
      <point x="642" y="1563" type="line"/>
      <point x="710" y="1563"/>
      <point x="801" y="1520"/>
      <point x="801" y="1360" type="curve" smooth="yes"/>
      <point x="801" y="1233"/>
      <point x="662" y="1135"/>
      <point x="567" y="1118" type="curve"/>
    </contour>
  </outline>
</glyph>
<glyph name="uni0324" format="2">
  <advance width="0"/>
  <unicode hex="0324"/>
  <anchor x="642" y="0" name="_bottom_center"/>
  <outline>
    <contour>
      <point x="755" y="-312" type="curve" smooth="yes"/>
      <point x="755" y="-201"/>
      <point x="844" y="-112"/>
      <point x="955" y="-112" type="curve" smooth="yes"/>
      <point x="1066" y="-112"/>
      <point x="1155" y="-201"/>
      <point x="1155" y="-312" type="curve" smooth="yes"/>
      <point x="1155" y="-423"/>
      <point x="1066" y="-512"/>
      <point x="955" y="-512" type="curve" smooth="yes"/>
      <point x="844" y="-512"/>
      <point x="755" y="-423"/>
    </contour>
    <contour>
      <point x="125" y="-312" type="curve" smooth="yes"/>
      <point x="125" y="-201"/>
      <point x="214" y="-112"/>
      <point x="325" y="-112" type="curve" smooth="yes"/>
      <point x="436" y="-112"/>
      <point x="525" y="-201"/>
      <point x="525" y="-312" type="curve" smooth="yes"/>
      <point x="525" y="-423"/>
      <point x="436" y="-512"/>
      <point x="325" y="-512" type="curve" smooth="yes"/>
      <point x="214" y="-512"/>
      <point x="125" y="-423"/>
    </contour>
  </outline>
</glyph>
<glyph name="uni0325" format="2">
  <advance width="0"/>
  <unicode hex="0325"/>
  <anchor x="642" y="0" name="_mkmk_bottom_center"/>
  <anchor x="642" y="-440" name="mkmk_bottom_center"/>
  <anchor x="642" y="0" name="_bottom_center"/>
  <outline>
    <contour>
      <point x="436" y="-307" type="curve" smooth="yes"/>
      <point x="436" y="-197"/>
      <point x="522" y="-112"/>
      <point x="642" y="-112" type="curve" smooth="yes"/>
      <point x="762" y="-112"/>
      <point x="848" y="-197"/>
      <point x="848" y="-307" type="curve" smooth="yes"/>
      <point x="848" y="-417"/>
      <point x="762" y="-502"/>
      <point x="642" y="-502" type="curve" smooth="yes"/>
      <point x="522" y="-502"/>
      <point x="436" y="-417"/>
    </contour>
    <contour>
      <point x="596" y="-307" type="curve" smooth="yes"/>
      <point x="596" y="-333"/>
      <point x="616" y="-352"/>
      <point x="642" y="-352" type="curve" smooth="yes"/>
      <point x="668" y="-352"/>
      <point x="687" y="-333"/>
      <point x="687" y="-307" type="curve" smooth="yes"/>
      <point x="687" y="-281"/>
      <point x="668" y="-262"/>
      <point x="642" y="-262" type="curve" smooth="yes"/>
      <point x="616" y="-262"/>
      <point x="596" y="-281"/>
    </contour>
  </outline>
</glyph>
<glyph name="uni032E" format="2">
  <advance width="0"/>
  <unicode hex="032E"/>
  <anchor x="642" y="0" name="_bottom_center"/>
  <outline>
    <contour>
      <point x="642" y="-440" type="curve" smooth="yes"/>
      <point x="432" y="-440"/>
      <point x="306" y="-294"/>
      <point x="306" y="-154" type="curve"/>
      <point x="564" y="-154" type="line"/>
      <point x="564" y="-184"/>
      <point x="592" y="-230"/>
      <point x="642" y="-230" type="curve" smooth="yes"/>
      <point x="692" y="-230"/>
      <point x="718" y="-184"/>
      <point x="718" y="-154" type="curve"/>
      <point x="978" y="-154" type="line"/>
      <point x="978" y="-294"/>
      <point x="852" y="-440"/>
    </contour>
  </outline>
</glyph>
<glyph name="uni0330" format="2">
  <advance width="0"/>
  <unicode hex="0330"/>
  <anchor x="642" y="0" name="_bottom_center"/>
  <outline>
    <contour>
      <point x="488" y="-460" type="curve"/>
      <point x="279" y="-404" type="line"/>
      <point x="296" y="-287"/>
      <point x="389" y="-165"/>
      <point x="545" y="-165" type="curve" smooth="yes"/>
      <point x="635" y="-165"/>
      <point x="689" y="-228"/>
      <point x="731" y="-228" type="curve" smooth="yes"/>
      <point x="776" y="-228"/>
      <point x="788" y="-186"/>
      <point x="788" y="-165" type="curve"/>
      <point x="997" y="-221" type="line"/>
      <point x="980" y="-338"/>
      <point x="887" y="-460"/>
      <point x="731" y="-460" type="curve" smooth="yes"/>
      <point x="641" y="-460"/>
      <point x="587" y="-397"/>
      <point x="545" y="-397" type="curve" smooth="yes"/>
      <point x="494" y="-397"/>
      <point x="488" y="-439"/>
    </contour>
  </outline>
</glyph>
<glyph name="uni0331" format="2">
  <advance width="0"/>
  <unicode hex="0331"/>
  <anchor x="642" y="0" name="_bottom_center"/>
  <outline>
    <contour>
      <point x="277" y="-374" type="line"/>
      <point x="277" y="-184" type="line"/>
      <point x="1009" y="-184" type="line"/>
      <point x="1009" y="-374" type="line"/>
    </contour>
  </outline>
</glyph>
<glyph name="uni0345" format="2">
  <advance width="0"/>
  <unicode hex="0345"/>
  <anchor x="642" y="-90" name="_bottom_ypogegrammeni"/>
  <outline>
    <contour>
      <point x="865" y="-271" type="curve"/>
      <point x="922" y="-492" type="line"/>
      <point x="907" y="-502"/>
      <point x="879" y="-520"/>
      <point x="827" y="-520" type="curve" smooth="yes"/>
      <point x="630" y="-520"/>
      <point x="508" y="-420"/>
      <point x="508" y="-244" type="curve" smooth="yes"/>
      <point x="508" y="-175" type="line"/>
      <point x="508" y="-109" type="line"/>
      <point x="508" y="-90" type="line"/>
      <point x="776" y="-90" type="line"/>
      <point x="776" y="-98" type="line"/>
      <point x="776" y="-161" type="line"/>
      <point x="776" y="-226" type="line" smooth="yes"/>
      <point x="776" y="-262"/>
      <point x="795" y="-280"/>
      <point x="833" y="-280" type="curve" smooth="yes"/>
      <point x="843" y="-280"/>
      <point x="857" y="-278"/>
    </contour>
  </outline>
</glyph>
<glyph name="uni0357" format="2">
  <advance width="0"/>
  <unicode hex="0357"/>
  <anchor x="642" y="1040" name="_top_center"/>
  <outline>
    <contour>
      <point x="642" y="1302" type="line"/>
      <point x="668" y="1302"/>
      <point x="687" y="1321"/>
      <point x="687" y="1347" type="curve" smooth="yes"/>
      <point x="687" y="1373"/>
      <point x="668" y="1392"/>
      <point x="642" y="1392" type="curve"/>
      <point x="642" y="1542" type="line"/>
      <point x="762" y="1542"/>
      <point x="848" y="1457"/>
      <point x="848" y="1347" type="curve" smooth="yes"/>
      <point x="848" y="1237"/>
      <point x="762" y="1152"/>
      <point x="642" y="1152" type="curve"/>
    </contour>
  </outline>
</glyph>
<glyph name="uni035F" format="2">
  <advance width="0"/>
  <unicode hex="035F"/>
  <anchor x="642" y="0" name="_bottom_center"/>
  <outline>
    <contour>
      <point x="642" y="-374" type="line"/>
      <point x="-90" y="-374" type="line"/>
      <point x="-90" y="-184" type="line"/>
      <point x="642" y="-184" type="line"/>
      <point x="1374" y="-184" type="line"/>
      <point x="1374" y="-374" type="line"/>
    </contour>
  </outline>
</glyph>
<glyph name="uni0371" format="2">
  <advance width="1055"/>
  <unicode hex="0371"/>
  <outline>
    <contour>
      <point x="595" y="678" type="curve" smooth="yes"/>
      <point x="595" y="660" type="line"/>
      <point x="985" y="660" type="line"/>
      <point x="985" y="340" type="line"/>
      <point x="595" y="340" type="line"/>
      <point x="595" y="0" type="line"/>
      <point x="235" y="0" type="line"/>
      <point x="235" y="678" type="line" smooth="yes"/>
      <point x="235" y="728"/>
      <point x="219" y="750"/>
      <point x="167" y="750" type="curve" smooth="yes"/>
      <point x="148" y="750"/>
      <point x="118" y="743"/>
      <point x="105" y="734" type="curve"/>
      <point x="5" y="1026" type="line"/>
      <point x="31" y="1039"/>
      <point x="79" y="1070"/>
      <point x="167" y="1070" type="curve" smooth="yes"/>
      <point x="351" y="1070"/>
      <point x="595" y="978"/>
    </contour>
  </outline>
</glyph>
<glyph name="uni0376" format="2">
  <advance width="1482"/>
  <unicode hex="0376"/>
  <outline>
    <contour>
      <point x="1048" y="1480" type="line"/>
      <point x="450" y="652" type="line"/>
      <point x="450" y="1480" type="line"/>
      <point x="70" y="1480" type="line"/>
      <point x="70" y="0" type="line"/>
      <point x="434" y="0" type="line"/>
      <point x="1032" y="828" type="line"/>
      <point x="1032" y="0" type="line"/>
      <point x="1412" y="0" type="line"/>
      <point x="1412" y="1480" type="line"/>
    </contour>
  </outline>
</glyph>
<glyph name="uni037A" format="2">
  <advance width="484"/>
  <unicode hex="037A"/>
  <outline>
    <contour>
      <point x="392" y="-181" type="curve"/>
      <point x="449" y="-402" type="line"/>
      <point x="434" y="-412"/>
      <point x="406" y="-430"/>
      <point x="354" y="-430" type="curve" smooth="yes"/>
      <point x="157" y="-430"/>
      <point x="35" y="-330"/>
      <point x="35" y="-154" type="curve" smooth="yes"/>
      <point x="35" y="-85" type="line"/>
      <point x="35" y="-19" type="line"/>
      <point x="35" y="0" type="line"/>
      <point x="303" y="0" type="line"/>
      <point x="303" y="-8" type="line"/>
      <point x="303" y="-71" type="line"/>
      <point x="303" y="-136" type="line" smooth="yes"/>
      <point x="303" y="-172"/>
      <point x="322" y="-190"/>
      <point x="360" y="-190" type="curve" smooth="yes"/>
      <point x="370" y="-190"/>
      <point x="384" y="-188"/>
    </contour>
  </outline>
</glyph>
<glyph name="uni0394" format="2">
  <advance width="1600"/>
  <unicode hex="0394"/>
  <anchor x="800" y="0" name="bottom_center"/>
  <anchor x="800" y="1380" name="top_center"/>
  <outline>
    <contour>
      <point x="70" y="0" type="line"/>
      <point x="1530" y="0" type="line"/>
      <point x="1530" y="304" type="line"/>
      <point x="1364" y="336" type="line"/>
      <point x="317" y="336" type="line"/>
      <point x="70" y="304" type="line"/>
    </contour>
    <contour>
      <point x="808" y="1166" type="line"/>
      <point x="1138" y="336" type="line"/>
      <point x="1530" y="304" type="line"/>
      <point x="1038" y="1480" type="line"/>
      <point x="562" y="1480" type="line"/>
      <point x="70" y="304" type="line"/>
      <point x="462" y="336" type="line"/>
    </contour>
  </outline>
</glyph>
<glyph name="Xi" format="2">
  <advance width="1254"/>
  <unicode hex="039E"/>
  <anchor x="627" y="1380" name="top_center"/>
  <anchor x="627" y="0" name="bottom_center"/>
  <outline>
    <contour>
      <point x="70" y="1480" type="line"/>
      <point x="1184" y="1480" type="line"/>
      <point x="1184" y="1144" type="line"/>
      <point x="70" y="1144" type="line"/>
    </contour>
    <contour>
      <point x="184" y="908" type="line"/>
      <point x="1070" y="908" type="line"/>
      <point x="1070" y="572" type="line"/>
      <point x="184" y="572" type="line"/>
    </contour>
    <contour>
      <point x="70" y="336" type="line"/>
      <point x="1184" y="336" type="line"/>
      <point x="1184" y="0" type="line"/>
      <point x="70" y="0" type="line"/>
    </contour>
  </outline>
</glyph>
<glyph name="Pi" format="2">
  <advance width="1482"/>
  <unicode hex="03A0"/>
  <anchor x="741" y="1380" name="top_center"/>
  <anchor x="741" y="0" name="bottom_center"/>
  <outline>
    <contour>
      <point x="1412" y="1480" type="line"/>
      <point x="1412" y="0" type="line"/>
      <point x="1032" y="0" type="line"/>
      <point x="1032" y="1144" type="line"/>
      <point x="450" y="1144" type="line"/>
      <point x="450" y="0" type="line"/>
      <point x="70" y="0" type="line"/>
      <point x="70" y="1480" type="line"/>
    </contour>
  </outline>
</glyph>
<glyph name="Sigma" format="2">
  <advance width="1254"/>
  <unicode hex="03A3"/>
  <anchor x="627" y="0" name="bottom_center"/>
  <anchor x="627" y="1380" name="top_center"/>
  <outline>
    <contour>
      <point x="814" y="740" type="line"/>
      <point x="498" y="336" type="line"/>
      <point x="1184" y="336" type="line"/>
      <point x="1184" y="0" type="line"/>
      <point x="70" y="0" type="line"/>
      <point x="70" y="336" type="line"/>
      <point x="386" y="740" type="line"/>
      <point x="70" y="1144" type="line"/>
      <point x="70" y="1480" type="line"/>
      <point x="1184" y="1480" type="line"/>
      <point x="1184" y="1144" type="line"/>
      <point x="498" y="1144" type="line"/>
    </contour>
  </outline>
</glyph>
<glyph name="Phi" format="2">
  <advance width="1320"/>
  <unicode hex="03A6"/>
  <anchor x="660" y="1380" name="top_center"/>
  <anchor x="660" y="0" name="bottom_center"/>
  <outline>
    <contour>
      <point x="430" y="740" type="curve" smooth="yes"/>
      <point x="430" y="690"/>
      <point x="480" y="662"/>
      <point x="660" y="662" type="curve" smooth="yes"/>
      <point x="840" y="662"/>
      <point x="890" y="690"/>
      <point x="890" y="740" type="curve" smooth="yes"/>
      <point x="890" y="790"/>
      <point x="840" y="818"/>
      <point x="660" y="818" type="curve" smooth="yes"/>
      <point x="480" y="818"/>
      <point x="430" y="790"/>
    </contour>
    <contour>
      <point x="50" y="740" type="curve" smooth="yes"/>
      <point x="50" y="980"/>
      <point x="260" y="1154"/>
      <point x="660" y="1154" type="curve" smooth="yes"/>
      <point x="1060" y="1154"/>
      <point x="1270" y="980"/>
      <point x="1270" y="740" type="curve" smooth="yes"/>
      <point x="1270" y="500"/>
      <point x="1060" y="326"/>
      <point x="660" y="326" type="curve" smooth="yes"/>
      <point x="260" y="326"/>
      <point x="50" y="500"/>
    </contour>
    <contour>
      <point x="268" y="1480" type="line"/>
      <point x="1052" y="1480" type="line"/>
      <point x="1052" y="1144" type="line"/>
      <point x="850" y="1144" type="line"/>
      <point x="850" y="336" type="line"/>
      <point x="1052" y="336" type="line"/>
      <point x="1052" y="0" type="line"/>
      <point x="268" y="0" type="line"/>
      <point x="268" y="336" type="line"/>
      <point x="470" y="336" type="line"/>
      <point x="470" y="1144" type="line"/>
      <point x="268" y="1144" type="line"/>
    </contour>
  </outline>
</glyph>
<glyph name="sigma" format="2">
  <advance width="1385"/>
  <unicode hex="03C3"/>
  <anchor x="623" y="1040" name="top_center"/>
  <anchor x="587" y="0" name="bottom_center"/>
  <outline>
    <contour>
      <point x="1350" y="1040" type="line"/>
      <point x="1350" y="720" type="line"/>
      <point x="623" y="720" type="line"/>
      <point x="623" y="1040" type="line"/>
    </contour>
    <contour>
      <point x="410" y="505" type="curve" smooth="yes"/>
      <point x="410" y="365"/>
      <point x="483" y="290"/>
      <point x="623" y="290" type="curve" smooth="yes"/>
      <point x="763" y="290"/>
      <point x="837" y="365"/>
      <point x="837" y="505" type="curve" smooth="yes"/>
      <point x="837" y="645"/>
      <point x="763" y="720"/>
      <point x="623" y="720" type="curve" smooth="yes"/>
      <point x="483" y="720"/>
      <point x="410" y="645"/>
    </contour>
    <contour>
      <point x="50" y="505" type="curve" smooth="yes"/>
      <point x="50" y="817"/>
      <point x="286" y="1040"/>
      <point x="623" y="1040" type="curve" smooth="yes"/>
      <point x="960" y="1040"/>
      <point x="1197" y="817"/>
      <point x="1197" y="505" type="curve" smooth="yes"/>
      <point x="1197" y="193"/>
      <point x="960" y="-30"/>
      <point x="623" y="-30" type="curve" smooth="yes"/>
      <point x="286" y="-30"/>
      <point x="50" y="193"/>
    </contour>
  </outline>
</glyph>
<glyph name="phi" format="2">
  <advance width="1512"/>
  <unicode hex="03C6"/>
  <anchor x="756" y="-360" name="bottom_center"/>
  <anchor x="756" y="1040" name="top_center"/>
  <outline>
    <contour>
      <point x="463" y="1092" type="curve"/>
      <point x="565" y="779" type="line"/>
      <point x="441" y="752"/>
      <point x="410" y="625"/>
      <point x="410" y="550" type="curve" smooth="yes"/>
      <point x="410" y="420"/>
      <point x="482" y="290"/>
      <point x="756" y="290" type="curve" smooth="yes"/>
      <point x="1080" y="290"/>
      <point x="1102" y="420"/>
      <point x="1102" y="560" type="curve" smooth="yes"/>
      <point x="1102" y="680"/>
      <point x="1091" y="750"/>
      <point x="1019" y="750" type="curve" smooth="yes"/>
      <point x="947" y="750"/>
      <point x="936" y="680"/>
      <point x="936" y="600" type="curve"/>
      <point x="576" y="600" type="line"/>
      <point x="576" y="880"/>
      <point x="779" y="1070"/>
      <point x="1055" y="1070" type="curve" smooth="yes"/>
      <point x="1331" y="1070"/>
      <point x="1462" y="888"/>
      <point x="1462" y="576" type="curve" smooth="yes"/>
      <point x="1462" y="184"/>
      <point x="1188" y="-30"/>
      <point x="756" y="-30" type="curve" smooth="yes"/>
      <point x="324" y="-30"/>
      <point x="50" y="178"/>
      <point x="50" y="550" type="curve" smooth="yes"/>
      <point x="50" y="833"/>
      <point x="213" y="1039"/>
    </contour>
    <contour>
      <point x="576" y="-440" type="line"/>
      <point x="576" y="600" type="line"/>
      <point x="936" y="600" type="line"/>
      <point x="936" y="-440" type="line"/>
    </contour>
  </outline>
</glyph>
<glyph name="chi" format="2">
  <advance width="1137"/>
  <unicode hex="03C7"/>
  <anchor x="606" y="-360" name="bottom_center"/>
  <anchor x="607" y="932" name="top_center"/>
  <outline>
    <contour>
      <point x="382" y="357" type="line"/>
      <point x="42" y="-440" type="line"/>
      <point x="423" y="-440" type="line"/>
      <point x="703" y="207" type="line"/>
    </contour>
    <contour>
      <point x="743" y="243" type="line"/>
      <point x="1095" y="1040" type="line"/>
      <point x="715" y="1040" type="line"/>
      <point x="434" y="393" type="line"/>
    </contour>
    <contour>
      <point x="610" y="755" type="line" smooth="yes"/>
      <point x="527" y="1043"/>
      <point x="354" y="1070"/>
      <point x="148" y="1070" type="curve" smooth="yes"/>
      <point x="110" y="1070"/>
      <point x="61" y="1059"/>
      <point x="35" y="1046" type="curve"/>
      <point x="135" y="734" type="line"/>
      <point x="149" y="741"/>
      <point x="179" y="750"/>
      <point x="198" y="750" type="curve" smooth="yes"/>
      <point x="251" y="750"/>
      <point x="274" y="722"/>
      <point x="289" y="670" type="curve" smooth="yes"/>
      <point x="527" y="-155" type="line" smooth="yes"/>
      <point x="610" y="-443"/>
      <point x="783" y="-470"/>
      <point x="989" y="-470" type="curve" smooth="yes"/>
      <point x="1027" y="-470"/>
      <point x="1076" y="-459"/>
      <point x="1102" y="-446" type="curve"/>
      <point x="1002" y="-134" type="line"/>
      <point x="988" y="-141"/>
      <point x="958" y="-150"/>
      <point x="939" y="-150" type="curve" smooth="yes"/>
      <point x="886" y="-150"/>
      <point x="863" y="-122"/>
      <point x="848" y="-70" type="curve" smooth="yes"/>
    </contour>
  </outline>
</glyph>
<glyph name="phi1" format="2">
  <advance width="1260"/>
  <unicode hex="03D5"/>
  <anchor x="630" y="1400" name="top_center"/>
  <anchor x="630" y="-360" name="bottom_center"/>
  <outline>
    <contour>
      <point x="780" y="1480" type="line"/>
      <point x="780" y="-440" type="line"/>
      <point x="480" y="-440" type="line"/>
      <point x="480" y="1480" type="line"/>
    </contour>
    <contour>
      <point x="410" y="520" type="curve" smooth="yes"/>
      <point x="410" y="390"/>
      <point x="493" y="290"/>
      <point x="630" y="290" type="curve" smooth="yes"/>
      <point x="767" y="290"/>
      <point x="850" y="383"/>
      <point x="850" y="520" type="curve" smooth="yes"/>
      <point x="850" y="657"/>
      <point x="767" y="750"/>
      <point x="630" y="750" type="curve" smooth="yes"/>
      <point x="493" y="750"/>
      <point x="410" y="657"/>
    </contour>
    <contour>
      <point x="50" y="520" type="curve" smooth="yes"/>
      <point x="50" y="840"/>
      <point x="310" y="1070"/>
      <point x="630" y="1070" type="curve" smooth="yes"/>
      <point x="950" y="1070"/>
      <point x="1210" y="840"/>
      <point x="1210" y="520" type="curve" smooth="yes"/>
      <point x="1210" y="200"/>
      <point x="950" y="-30"/>
      <point x="630" y="-30" type="curve" smooth="yes"/>
      <point x="310" y="-30"/>
      <point x="50" y="200"/>
    </contour>
  </outline>
</glyph>
<glyph name="uni03DB" format="2">
  <advance width="1120"/>
  <unicode hex="03DB"/>
  <anchor x="620" y="1040" name="top_center"/>
  <anchor x="620" y="30" name="bottom_center"/>
  <outline>
    <contour>
      <point x="1026" y="1040" type="line"/>
      <point x="1026" y="720" type="line"/>
      <point x="620" y="720" type="line" smooth="yes"/>
      <point x="483" y="720"/>
      <point x="410" y="657"/>
      <point x="410" y="520" type="curve" smooth="yes"/>
      <point x="410" y="383"/>
      <point x="483" y="320"/>
      <point x="620" y="320" type="curve"/>
      <point x="666" y="319" type="line"/>
      <point x="976" y="319"/>
      <point x="1070" y="86"/>
      <point x="1070" y="-90" type="curve" smooth="yes"/>
      <point x="1070" y="-168"/>
      <point x="1064" y="-202"/>
      <point x="1046" y="-253" type="curve"/>
      <point x="704" y="-153" type="line"/>
      <point x="711" y="-139"/>
      <point x="720" y="-109"/>
      <point x="720" y="-90" type="curve" smooth="yes"/>
      <point x="720" y="-37"/>
      <point x="694" y="0"/>
      <point x="640" y="0" type="curve"/>
      <point x="620" y="0" type="line"/>
      <point x="300" y="0"/>
      <point x="50" y="200"/>
      <point x="50" y="520" type="curve" smooth="yes"/>
      <point x="50" y="840"/>
      <point x="300" y="1040"/>
      <point x="620" y="1040" type="curve" smooth="yes"/>
    </contour>
  </outline>
</glyph>
<glyph name="uni03DC" format="2">
  <advance width="1219"/>
  <unicode hex="03DC"/>
  <outline>
    <contour>
      <point x="450" y="219" type="line"/>
      <point x="450" y="0" type="line"/>
      <point x="70" y="0" type="line"/>
      <point x="70" y="1480" type="line"/>
      <point x="1184" y="1480" type="line"/>
      <point x="1184" y="1144" type="line"/>
      <point x="450" y="1144" type="line"/>
      <point x="450" y="908" type="line"/>
      <point x="1070" y="908" type="line"/>
      <point x="1070" y="572" type="line"/>
      <point x="450" y="572" type="line"/>
    </contour>
  </outline>
</glyph>
<glyph name="uni03E5" format="2">
  <advance width="1134"/>
  <unicode hex="03E5"/>
  <outline>
    <contour>
      <point x="704" y="1480" type="line"/>
      <point x="1064" y="1480" type="line"/>
      <point x="1064" y="0" type="line"/>
      <point x="704" y="0" type="line"/>
    </contour>
    <contour>
      <point x="859" y="485" type="line"/>
      <point x="774" y="432"/>
      <point x="669" y="410"/>
      <point x="557" y="410" type="curve" smooth="yes"/>
      <point x="281" y="410"/>
      <point x="50" y="548"/>
      <point x="50" y="908" type="curve"/>
      <point x="50" y="1106" type="line"/>
      <point x="50" y="1356"/>
      <point x="245" y="1510"/>
      <point x="495" y="1510" type="curve" smooth="yes"/>
      <point x="507" y="1510"/>
      <point x="519" y="1510"/>
      <point x="531" y="1509" type="curve"/>
      <point x="531" y="1183" type="line"/>
      <point x="520" y="1188"/>
      <point x="508" y="1190"/>
      <point x="495" y="1190" type="curve" smooth="yes"/>
      <point x="445" y="1190"/>
      <point x="410" y="1156"/>
      <point x="410" y="1106" type="curve"/>
      <point x="410" y="908" type="line"/>
      <point x="410" y="788"/>
      <point x="467" y="730"/>
      <point x="557" y="730" type="curve" smooth="yes"/>
      <point x="647" y="730"/>
      <point x="744" y="788"/>
      <point x="744" y="908" type="curve"/>
    </contour>
  </outline>
</glyph>
<glyph name="uni03EC" format="2">
  <advance width="1426"/>
  <unicode hex="03EC"/>
  <outline>
    <contour>
      <point x="663" y="1480" type="curve" smooth="yes"/>
      <point x="883" y="1480"/>
      <point x="848" y="1402"/>
      <point x="1015" y="1402" type="curve" smooth="yes"/>
      <point x="1111" y="1402"/>
      <point x="1211" y="1455"/>
      <point x="1257" y="1507" type="curve"/>
      <point x="1345" y="1186" type="line"/>
      <point x="1290" y="1159"/>
      <point x="1159" y="1082"/>
      <point x="1015" y="1082" type="curve" smooth="yes"/>
      <point x="775" y="1082"/>
      <point x="850" y="1144"/>
      <point x="663" y="1144" type="curve" smooth="yes"/>
      <point x="530" y="1144"/>
      <point x="410" y="1009"/>
      <point x="410" y="714" type="curve" smooth="yes"/>
      <point x="410" y="484"/>
      <point x="442" y="282"/>
      <point x="442" y="282" type="curve"/>
      <point x="170" y="194" type="line"/>
      <point x="170" y="194"/>
      <point x="50" y="344"/>
      <point x="50" y="714" type="curve" smooth="yes"/>
      <point x="50" y="1214"/>
      <point x="303" y="1480"/>
    </contour>
    <contour>
      <point x="440" y="491" type="curve" smooth="yes"/>
      <point x="440" y="371"/>
      <point x="538" y="306"/>
      <point x="718" y="306" type="curve" smooth="yes"/>
      <point x="898" y="306"/>
      <point x="996" y="371"/>
      <point x="996" y="491" type="curve" smooth="yes"/>
      <point x="996" y="611"/>
      <point x="898" y="676"/>
      <point x="718" y="676" type="curve" smooth="yes"/>
      <point x="538" y="676"/>
      <point x="440" y="611"/>
    </contour>
    <contour>
      <point x="96" y="491" type="curve"/>
      <point x="131" y="491" type="line"/>
      <point x="131" y="614"/>
      <point x="268" y="1012"/>
      <point x="718" y="1012" type="curve" smooth="yes"/>
      <point x="1168" y="1012"/>
      <point x="1376" y="802"/>
      <point x="1376" y="491" type="curve" smooth="yes"/>
      <point x="1376" y="180"/>
      <point x="1168" y="-30"/>
      <point x="718" y="-30" type="curve" smooth="yes"/>
      <point x="268" y="-30"/>
      <point x="96" y="200"/>
    </contour>
  </outline>
</glyph>
<glyph name="uni03F6" format="2">
  <advance width="1000"/>
  <unicode hex="03F6"/>
  <outline>
    <contour>
      <point x="860" y="660" type="line"/>
      <point x="860" y="380" type="line"/>
      <point x="249" y="380" type="line"/>
      <point x="249" y="660" type="line"/>
    </contour>
    <contour>
      <point x="400" y="290" type="curve" smooth="yes"/>
      <point x="537" y="290"/>
      <point x="590" y="383"/>
      <point x="590" y="520" type="curve" smooth="yes"/>
      <point x="590" y="657"/>
      <point x="537" y="750"/>
      <point x="400" y="750" type="curve" smooth="yes"/>
      <point x="263" y="750"/>
      <point x="213" y="664"/>
      <point x="213" y="664" type="curve"/>
      <point x="50" y="948" type="line"/>
      <point x="50" y="948"/>
      <point x="141" y="1070"/>
      <point x="400" y="1070" type="curve" smooth="yes"/>
      <point x="720" y="1070"/>
      <point x="950" y="840"/>
      <point x="950" y="520" type="curve" smooth="yes"/>
      <point x="950" y="200"/>
      <point x="720" y="-30"/>
      <point x="400" y="-30" type="curve" smooth="yes"/>
      <point x="141" y="-30"/>
      <point x="50" y="92"/>
      <point x="50" y="92" type="curve"/>
      <point x="213" y="376" type="line"/>
      <point x="213" y="376"/>
      <point x="263" y="290"/>
    </contour>
  </outline>
</glyph>
<glyph name="uni03F8" format="2">
  <advance width="1250"/>
  <unicode hex="03F8"/>
  <outline>
    <contour>
      <point x="420" y="518" type="curve" smooth="yes"/>
      <point x="420" y="388"/>
      <point x="493" y="290"/>
      <point x="630" y="290" type="curve" smooth="yes"/>
      <point x="767" y="290"/>
      <point x="840" y="390"/>
      <point x="840" y="520" type="curve" smooth="yes"/>
      <point x="840" y="650"/>
      <point x="767" y="750"/>
      <point x="630" y="750" type="curve" smooth="yes"/>
      <point x="493" y="750"/>
      <point x="420" y="648"/>
    </contour>
    <contour>
      <point x="70" y="520" type="line"/>
      <point x="70" y="1480" type="line"/>
      <point x="430" y="1480" type="line"/>
      <point x="430" y="920" type="line"/>
      <point x="440" y="959"/>
      <point x="545" y="1070"/>
      <point x="695" y="1070" type="curve" smooth="yes"/>
      <point x="1015" y="1070"/>
      <point x="1200" y="840"/>
      <point x="1200" y="520" type="curve" smooth="yes"/>
      <point x="1200" y="200"/>
      <point x="1015" y="-30"/>
      <point x="695" y="-30" type="curve" smooth="yes"/>
      <point x="545" y="-30"/>
      <point x="440" y="81"/>
      <point x="430" y="120" type="curve"/>
      <point x="430" y="-440" type="line"/>
      <point x="70" y="-440" type="line"/>
    </contour>
  </outline>
</glyph>
<glyph name="uni040A" format="2">
  <advance width="2334"/>
  <unicode hex="040A"/>
  <outline>
    <contour>
      <point x="1312" y="336" type="line"/>
      <point x="1713" y="336" type="line"/>
      <point x="1833" y="336"/>
      <point x="1904" y="416"/>
      <point x="1904" y="496" type="curve" smooth="yes"/>
      <point x="1904" y="576"/>
      <point x="1833" y="656"/>
      <point x="1713" y="656" type="curve"/>
      <point x="1312" y="656" type="line"/>
      <point x="1072" y="976" type="line"/>
      <point x="1451" y="976" type="line"/>
      <point x="1713" y="976" type="line"/>
      <point x="2079" y="976"/>
      <point x="2284" y="751"/>
      <point x="2284" y="496" type="curve" smooth="yes"/>
      <point x="2284" y="241"/>
      <point x="2079" y="0"/>
      <point x="1713" y="0" type="curve"/>
      <point x="1412" y="0" type="line"/>
    </contour>
    <contour>
      <point x="70" y="1480" type="line"/>
      <point x="450" y="1480" type="line"/>
      <point x="450" y="976" type="line"/>
      <point x="1032" y="976" type="line"/>
      <point x="1032" y="1480" type="line"/>
      <point x="1412" y="1480" type="line"/>
      <point x="1412" y="0" type="line"/>
      <point x="1032" y="0" type="line"/>
      <point x="1032" y="640" type="line"/>
      <point x="450" y="640" type="line"/>
      <point x="450" y="0" type="line"/>
      <point x="70" y="0" type="line"/>
    </contour>
  </outline>
</glyph>
<glyph name="uni0423" format="2">
  <advance width="1368"/>
  <unicode hex="0423"/>
  <anchor x="662" y="1380" name="top_center"/>
  <outline>
    <contour>
      <point x="774" y="623" type="line"/>
      <point x="536" y="340" type="line"/>
      <point x="35" y="1480" type="line"/>
      <point x="429" y="1480" type="line"/>
    </contour>
    <contour>
      <point x="792" y="258" type="line"/>
      <point x="713" y="104"/>
      <point x="603" y="-30"/>
      <point x="345" y="-30" type="curve" smooth="yes"/>
      <point x="224" y="-30"/>
      <point x="143" y="-2"/>
      <point x="87" y="22" type="curve"/>
      <point x="178" y="361" type="line"/>
      <point x="210" y="329"/>
      <point x="285" y="306"/>
      <point x="345" y="306" type="curve" smooth="yes"/>
      <point x="407" y="306"/>
      <point x="448" y="326"/>
      <point x="470" y="370" type="curve" smooth="yes"/>
      <point x="939" y="1480" type="line"/>
      <point x="1333" y="1480" type="line"/>
    </contour>
  </outline>
</glyph>
<glyph name="uni0428" format="2">
  <advance width="2140"/>
  <unicode hex="0428"/>
  <anchor x="1070" y="1380" name="top_center"/>
  <anchor x="1070" y="0" name="bottom_center"/>
  <outline>
    <contour>
      <point x="70" y="1480" type="line"/>
      <point x="450" y="1480" type="line"/>
      <point x="450" y="336" type="line"/>
      <point x="880" y="336" type="line"/>
      <point x="880" y="0" type="line"/>
      <point x="298" y="0" type="line"/>
      <point x="70" y="0" type="line"/>
    </contour>
    <contour>
      <point x="880" y="1480" type="line"/>
      <point x="1260" y="1480" type="line"/>
      <point x="1260" y="336" type="line"/>
      <point x="1690" y="336" type="line"/>
      <point x="1690" y="1480" type="line"/>
      <point x="2070" y="1480" type="line"/>
      <point x="2070" y="0" type="line"/>
      <point x="1842" y="0" type="line"/>
      <point x="1260" y="0" type="line"/>
      <point x="880" y="0" type="line"/>
    </contour>
  </outline>
</glyph>
<glyph name="uni042A" format="2">
  <advance width="1739"/>
  <unicode hex="042A"/>
  <anchor x="627" y="1380" name="top_center"/>
  <anchor x="949" y="0" name="bottom_center"/>
  <outline>
    <contour>
      <point x="5" y="1144" type="line"/>
      <point x="5" y="1480" type="line"/>
      <point x="437" y="1480" type="line"/>
      <point x="437" y="1144" type="line"/>
    </contour>
    <contour>
      <point x="817" y="336" type="line"/>
      <point x="1118" y="336" type="line"/>
      <point x="1238" y="336"/>
      <point x="1309" y="416"/>
      <point x="1309" y="496" type="curve" smooth="yes"/>
      <point x="1309" y="576"/>
      <point x="1238" y="656"/>
      <point x="1118" y="656" type="curve"/>
      <point x="817" y="656" type="line"/>
    </contour>
    <contour>
      <point x="817" y="976" type="line"/>
      <point x="1118" y="976" type="line"/>
      <point x="1484" y="976"/>
      <point x="1689" y="751"/>
      <point x="1689" y="496" type="curve" smooth="yes"/>
      <point x="1689" y="241"/>
      <point x="1484" y="0"/>
      <point x="1118" y="0" type="curve"/>
      <point x="437" y="0" type="line"/>
      <point x="437" y="1480" type="line"/>
      <point x="817" y="1480" type="line"/>
    </contour>
  </outline>
</glyph>
<glyph name="uni0432" format="2">
  <advance width="1132"/>
  <unicode hex="0432"/>
  <anchor x="546" y="0" name="bottom_center"/>
  <anchor x="546" y="1040" name="top_center"/>
  <outline>
    <contour>
      <point x="430" y="360" type="line"/>
      <point x="657" y="360" type="line" smooth="yes"/>
      <point x="707" y="360"/>
      <point x="722" y="365"/>
      <point x="722" y="381" type="curve" smooth="yes"/>
      <point x="722" y="397"/>
      <point x="707" y="402"/>
      <point x="657" y="402" type="curve" smooth="yes"/>
      <point x="430" y="402" type="line"/>
    </contour>
    <contour>
      <point x="888" y="575" type="curve"/>
      <point x="1028" y="519"/>
      <point x="1082" y="425"/>
      <point x="1082" y="316" type="curve" smooth="yes"/>
      <point x="1082" y="109"/>
      <point x="937" y="0"/>
      <point x="630" y="0" type="curve" smooth="yes"/>
      <point x="70" y="0" type="line"/>
      <point x="70" y="1040" type="line"/>
      <point x="252" y="1040" type="line"/>
      <point x="624" y="1040" type="line" smooth="yes"/>
      <point x="895" y="1040"/>
      <point x="1009" y="954"/>
      <point x="1009" y="797" type="curve" smooth="yes"/>
      <point x="1009" y="712"/>
      <point x="985" y="621"/>
    </contour>
    <contour>
      <point x="430" y="720" type="line"/>
      <point x="430" y="682" type="line"/>
      <point x="616" y="682" type="line" smooth="yes"/>
      <point x="646" y="682"/>
      <point x="659" y="686"/>
      <point x="659" y="701" type="curve" smooth="yes"/>
      <point x="659" y="716"/>
      <point x="646" y="720"/>
      <point x="616" y="720" type="curve" smooth="yes"/>
    </contour>
  </outline>
</glyph>
<glyph name="uni043D" format="2">
  <advance width="1195"/>
  <unicode hex="043D"/>
  <anchor x="598" y="0" name="bottom_center"/>
  <anchor x="598" y="1040" name="top_center"/>
  <outline>
    <contour>
      <point x="70" y="1040" type="line"/>
      <point x="430" y="1040" type="line"/>
      <point x="430" y="680" type="line"/>
      <point x="765" y="680" type="line"/>
      <point x="765" y="1040" type="line"/>
      <point x="1125" y="1040" type="line"/>
      <point x="1125" y="0" type="line"/>
      <point x="765" y="0" type="line"/>
      <point x="765" y="360" type="line"/>
      <point x="430" y="360" type="line"/>
      <point x="430" y="0" type="line"/>
      <point x="70" y="0" type="line"/>
    </contour>
  </outline>
</glyph>
<glyph name="uni043F" format="2">
  <advance width="1196"/>
  <unicode hex="043F"/>
  <anchor x="598" y="0" name="bottom_center"/>
  <anchor x="598" y="1040" name="top_center"/>
  <outline>
    <contour>
      <point x="70" y="1040" type="line"/>
      <point x="286" y="1040" type="line"/>
      <point x="910" y="1040" type="line"/>
      <point x="1126" y="1040" type="line"/>
      <point x="1126" y="0" type="line"/>
      <point x="766" y="0" type="line"/>
      <point x="766" y="720" type="line"/>
      <point x="430" y="720" type="line"/>
      <point x="430" y="0" type="line"/>
      <point x="70" y="0" type="line"/>
    </contour>
  </outline>
</glyph>
<glyph name="uni0448" format="2">
  <advance width="1650"/>
  <unicode hex="0448"/>
  <anchor x="825" y="0" name="bottom_center"/>
  <anchor x="825" y="1040" name="top_center"/>
  <outline>
    <contour>
      <point x="430" y="1040" type="line"/>
      <point x="430" y="320" type="line"/>
      <point x="627" y="320" type="line"/>
      <point x="627" y="0" type="line"/>
      <point x="286" y="0" type="line"/>
      <point x="70" y="0" type="line"/>
      <point x="70" y="1040" type="line"/>
    </contour>
    <contour>
      <point x="1220" y="1040" type="line"/>
      <point x="1580" y="1040" type="line"/>
      <point x="1580" y="0" type="line"/>
      <point x="1364" y="0" type="line"/>
      <point x="1023" y="0" type="line"/>
      <point x="627" y="0" type="line"/>
      <point x="627" y="1040" type="line"/>
      <point x="1023" y="1040" type="line"/>
      <point x="1023" y="320" type="line"/>
      <point x="1220" y="320" type="line"/>
    </contour>
  </outline>
</glyph>
<glyph name="uni044B" format="2">
  <advance width="1700"/>
  <unicode hex="044B"/>
  <anchor x="851" y="1040" name="top_center"/>
  <anchor x="851" y="0" name="bottom_center"/>
  <outline>
    <contour>
      <point x="664" y="679" type="line"/>
      <point x="958" y="679"/>
      <point x="1090" y="534"/>
      <point x="1090" y="340" type="curve" smooth="yes"/>
      <point x="1090" y="126"/>
      <point x="958" y="0"/>
      <point x="664" y="0" type="curve"/>
      <point x="70" y="0" type="line"/>
      <point x="70" y="1040" type="line"/>
      <point x="430" y="1040" type="line"/>
      <point x="430" y="679" type="line"/>
    </contour>
    <contour>
      <point x="664" y="378" type="curve"/>
      <point x="430" y="378" type="line"/>
      <point x="430" y="318" type="line"/>
      <point x="664" y="318" type="line"/>
      <point x="710" y="318"/>
      <point x="730" y="326"/>
      <point x="730" y="348" type="curve" smooth="yes"/>
      <point x="730" y="370"/>
      <point x="710" y="378"/>
    </contour>
    <contour>
      <point x="1630" y="712" type="line"/>
      <point x="1630" y="1040" type="line"/>
      <point x="1270" y="1040" type="line"/>
      <point x="1270" y="0" type="line"/>
      <point x="1630" y="0" type="line"/>
    </contour>
  </outline>
</glyph>
<glyph name="uni044F" format="2">
  <advance width="1062"/>
  <unicode hex="044F"/>
  <anchor x="576" y="1040" name="top_center"/>
  <anchor x="576" y="0" name="bottom_center"/>
  <outline>
    <contour>
      <point x="992" y="0" type="line"/>
      <point x="992" y="1040" type="line"/>
      <point x="519" y="1040" type="line" smooth="yes"/>
      <point x="239" y="1040"/>
      <point x="81" y="902"/>
      <point x="81" y="662" type="curve" smooth="yes"/>
      <point x="81" y="503"/>
      <point x="168" y="406"/>
      <point x="264" y="361" type="curve"/>
      <point x="30" y="0" type="line"/>
      <point x="432" y="0" type="line"/>
      <point x="612" y="283" type="line"/>
      <point x="632" y="283" type="line"/>
      <point x="632" y="0" type="line"/>
    </contour>
    <contour>
      <point x="632" y="720" type="line"/>
      <point x="632" y="604" type="line"/>
      <point x="519" y="604" type="line" smooth="yes"/>
      <point x="474" y="604"/>
      <point x="441" y="617"/>
      <point x="441" y="662" type="curve" smooth="yes"/>
      <point x="441" y="707"/>
      <point x="474" y="720"/>
      <point x="519" y="720" type="curve" smooth="yes"/>
    </contour>
  </outline>
</glyph>
<glyph name="uni0459" format="2">
  <advance width="1783"/>
  <unicode hex="0459"/>
  <outline>
    <contour>
      <point x="1373" y="348" type="curve" smooth="yes"/>
      <point x="1373" y="370"/>
      <point x="1353" y="378"/>
      <point x="1307" y="378" type="curve"/>
      <point x="1073" y="378" type="line"/>
      <point x="1073" y="679" type="line"/>
      <point x="1307" y="679" type="line"/>
      <point x="1601" y="679"/>
      <point x="1733" y="534"/>
      <point x="1733" y="340" type="curve" smooth="yes"/>
      <point x="1733" y="126"/>
      <point x="1601" y="0"/>
      <point x="1307" y="0" type="curve"/>
      <point x="1073" y="0" type="line"/>
      <point x="1073" y="318" type="line"/>
      <point x="1307" y="318" type="line"/>
      <point x="1353" y="318"/>
      <point x="1373" y="326"/>
    </contour>
    <contour>
      <point x="1073" y="1040" type="line"/>
      <point x="1073" y="0" type="line"/>
      <point x="713" y="0" type="line"/>
      <point x="713" y="720" type="line"/>
      <point x="581" y="720" type="line"/>
      <point x="553" y="420" type="line" smooth="yes"/>
      <point x="525" y="128"/>
      <point x="374" y="-30"/>
      <point x="5" y="-30" type="curve"/>
      <point x="5" y="290" type="line"/>
      <point x="117" y="290"/>
      <point x="189" y="326"/>
      <point x="200" y="420" type="curve" smooth="yes"/>
      <point x="271" y="1040" type="line"/>
    </contour>
  </outline>
</glyph>
<glyph name="uni045A" format="2">
  <advance width="1726"/>
  <unicode hex="045A"/>
  <outline>
    <contour>
      <point x="1125" y="320" type="line"/>
      <point x="1238" y="320" type="line" smooth="yes"/>
      <point x="1283" y="320"/>
      <point x="1316" y="333"/>
      <point x="1316" y="378" type="curve" smooth="yes"/>
      <point x="1316" y="423"/>
      <point x="1283" y="436"/>
      <point x="1238" y="436" type="curve" smooth="yes"/>
      <point x="1125" y="436" type="line"/>
      <point x="1125" y="756" type="line"/>
      <point x="1238" y="756" type="line" smooth="yes"/>
      <point x="1518" y="756"/>
      <point x="1676" y="618"/>
      <point x="1676" y="378" type="curve" smooth="yes"/>
      <point x="1676" y="138"/>
      <point x="1518" y="0"/>
      <point x="1238" y="0" type="curve" smooth="yes"/>
      <point x="1125" y="0" type="line"/>
    </contour>
    <contour>
      <point x="70" y="1040" type="line"/>
      <point x="430" y="1040" type="line"/>
      <point x="430" y="680" type="line"/>
      <point x="765" y="680" type="line"/>
      <point x="765" y="1040" type="line"/>
      <point x="1125" y="1040" type="line"/>
      <point x="1125" y="0" type="line"/>
      <point x="765" y="0" type="line"/>
      <point x="765" y="360" type="line"/>
      <point x="430" y="360" type="line"/>
      <point x="430" y="0" type="line"/>
      <point x="70" y="0" type="line"/>
    </contour>
  </outline>
</glyph>
<glyph name="uni045F" format="2">
  <advance width="1196"/>
  <unicode hex="045F"/>
  <outline>
    <contour>
      <point x="418" y="290" type="line"/>
      <point x="778" y="290" type="line"/>
      <point x="778" y="-300" type="line"/>
      <point x="418" y="-300" type="line"/>
    </contour>
    <contour>
      <point x="70" y="0" type="line"/>
      <point x="70" y="1040" type="line"/>
      <point x="430" y="1040" type="line"/>
      <point x="430" y="320" type="line"/>
      <point x="766" y="320" type="line"/>
      <point x="766" y="1040" type="line"/>
      <point x="1126" y="1040" type="line"/>
      <point x="1126" y="0" type="line"/>
      <point x="766" y="0" type="line"/>
      <point x="430" y="0" type="line"/>
    </contour>
  </outline>
</glyph>
<glyph name="uni0463" format="2">
  <advance width="1430"/>
  <unicode hex="0463"/>
  <outline>
    <contour>
      <point x="954" y="679" type="line"/>
      <point x="1248" y="679"/>
      <point x="1380" y="534"/>
      <point x="1380" y="340" type="curve" smooth="yes"/>
      <point x="1380" y="126"/>
      <point x="1248" y="0"/>
      <point x="954" y="0" type="curve"/>
      <point x="360" y="0" type="line"/>
      <point x="360" y="1480" type="line"/>
      <point x="720" y="1480" type="line"/>
      <point x="720" y="679" type="line"/>
    </contour>
    <contour>
      <point x="954" y="378" type="curve"/>
      <point x="720" y="378" type="line"/>
      <point x="720" y="318" type="line"/>
      <point x="954" y="318" type="line"/>
      <point x="1000" y="318"/>
      <point x="1020" y="326"/>
      <point x="1020" y="348" type="curve" smooth="yes"/>
      <point x="1020" y="370"/>
      <point x="1000" y="378"/>
    </contour>
    <contour>
      <point x="1120" y="1078" type="line"/>
      <point x="0" y="1078" type="line"/>
      <point x="0" y="1124"/>
      <point x="0" y="1272"/>
      <point x="0" y="1318" type="curve"/>
      <point x="1120" y="1318" type="line"/>
    </contour>
  </outline>
</glyph>
<glyph name="uni046A" format="2">
  <advance width="1796"/>
  <unicode hex="046A"/>
  <outline>
    <contour>
      <point x="1726" y="232" type="curve"/>
      <point x="1726" y="52"/>
      <point x="1726" y="0"/>
      <point x="1726" y="0" type="curve"/>
      <point x="1346" y="0" type="line"/>
      <point x="1346" y="0"/>
      <point x="1346" y="50"/>
      <point x="1346" y="232" type="curve"/>
      <point x="1346" y="452"/>
      <point x="1154" y="572"/>
      <point x="898" y="572" type="curve" smooth="yes"/>
      <point x="642" y="572"/>
      <point x="450" y="452"/>
      <point x="450" y="232" type="curve"/>
      <point x="450" y="52"/>
      <point x="450" y="0"/>
      <point x="450" y="0" type="curve"/>
      <point x="70" y="0" type="line"/>
      <point x="70" y="0"/>
      <point x="70" y="50"/>
      <point x="70" y="232" type="curve"/>
      <point x="70" y="592"/>
      <point x="403" y="908"/>
      <point x="899" y="908" type="curve" smooth="yes"/>
      <point x="1395" y="908"/>
      <point x="1726" y="592"/>
    </contour>
    <contour>
      <point x="503" y="1144" type="line"/>
      <point x="575" y="1480" type="line"/>
      <point x="1221" y="1480" type="line"/>
      <point x="1313" y="1144" type="line"/>
    </contour>
    <contour>
      <point x="708" y="0" type="line"/>
      <point x="708" y="740" type="line"/>
      <point x="1088" y="740" type="line"/>
      <point x="1088" y="0" type="line"/>
    </contour>
    <contour>
      <point x="1015" y="628" type="line"/>
      <point x="781" y="666" type="line"/>
      <point x="147" y="1480" type="line"/>
      <point x="575" y="1480" type="line"/>
      <point x="898" y="1008" type="line"/>
      <point x="1221" y="1480" type="line"/>
      <point x="1649" y="1480" type="line"/>
    </contour>
  </outline>
</glyph>
<glyph name="uni0478" format="2">
  <advance width="2452"/>
  <unicode hex="0478"/>
  <outline>
    <contour>
      <point x="2008" y="-158" type="line"/>
      <point x="1926" y="-384"/>
      <point x="1817" y="-470"/>
      <point x="1538" y="-470" type="curve" smooth="yes"/>
      <point x="1417" y="-470"/>
      <point x="1327" y="-439"/>
      <point x="1271" y="-415" type="curve"/>
      <point x="1367" y="-95" type="line"/>
      <point x="1399" y="-127"/>
      <point x="1478" y="-150"/>
      <point x="1538" y="-150" type="curve" smooth="yes"/>
      <point x="1598" y="-150"/>
      <point x="1652" y="-107"/>
      <point x="1667" y="-44" type="curve"/>
      <point x="1679" y="0" type="line"/>
      <point x="1313" y="1040" type="line"/>
      <point x="1697" y="1040" type="line"/>
      <point x="1873" y="404" type="line"/>
      <point x="2033" y="1040" type="line"/>
      <point x="2417" y="1040" type="line"/>
      <point x="2062" y="0" type="line"/>
    </contour>
    <contour>
      <point x="410" y="740" type="curve" smooth="yes"/>
      <point x="410" y="460"/>
      <point x="478" y="290"/>
      <point x="648" y="290" type="curve" smooth="yes"/>
      <point x="818" y="290"/>
      <point x="885" y="460"/>
      <point x="885" y="740" type="curve" smooth="yes"/>
      <point x="885" y="1020"/>
      <point x="818" y="1190"/>
      <point x="648" y="1190" type="curve" smooth="yes"/>
      <point x="478" y="1190"/>
      <point x="410" y="1020"/>
    </contour>
    <contour>
      <point x="50" y="740" type="curve" smooth="yes"/>
      <point x="50" y="1240"/>
      <point x="311" y="1510"/>
      <point x="648" y="1510" type="curve" smooth="yes"/>
      <point x="985" y="1510"/>
      <point x="1245" y="1240"/>
      <point x="1245" y="740" type="curve" smooth="yes"/>
      <point x="1245" y="240"/>
      <point x="985" y="-30"/>
      <point x="648" y="-30" type="curve" smooth="yes"/>
      <point x="311" y="-30"/>
      <point x="50" y="240"/>
    </contour>
  </outline>
</glyph>
<glyph name="uni0479" format="2">
  <advance width="2157"/>
  <unicode hex="0479"/>
  <outline>
    <contour>
      <point x="1713" y="-158" type="line"/>
      <point x="1631" y="-384"/>
      <point x="1522" y="-470"/>
      <point x="1243" y="-470" type="curve" smooth="yes"/>
      <point x="1122" y="-470"/>
      <point x="1032" y="-439"/>
      <point x="976" y="-415" type="curve"/>
      <point x="1072" y="-95" type="line"/>
      <point x="1104" y="-127"/>
      <point x="1183" y="-150"/>
      <point x="1243" y="-150" type="curve" smooth="yes"/>
      <point x="1303" y="-150"/>
      <point x="1357" y="-107"/>
      <point x="1372" y="-44" type="curve"/>
      <point x="1384" y="0" type="line"/>
      <point x="1018" y="1040" type="line"/>
      <point x="1402" y="1040" type="line"/>
      <point x="1578" y="404" type="line"/>
      <point x="1738" y="1040" type="line"/>
      <point x="2122" y="1040" type="line"/>
      <point x="1767" y="0" type="line"/>
    </contour>
    <contour>
      <point x="410" y="520" type="curve" smooth="yes"/>
      <point x="410" y="386"/>
      <point x="435" y="290"/>
      <point x="535" y="290" type="curve" smooth="yes"/>
      <point x="635" y="290"/>
      <point x="658" y="386"/>
      <point x="658" y="520" type="curve" smooth="yes"/>
      <point x="658" y="654"/>
      <point x="635" y="750"/>
      <point x="535" y="750" type="curve" smooth="yes"/>
      <point x="435" y="750"/>
      <point x="410" y="654"/>
    </contour>
    <contour>
      <point x="50" y="520" type="curve" smooth="yes"/>
      <point x="50" y="885"/>
      <point x="267" y="1070"/>
      <point x="535" y="1070" type="curve" smooth="yes"/>
      <point x="803" y="1070"/>
      <point x="1018" y="885"/>
      <point x="1018" y="520" type="curve" smooth="yes"/>
      <point x="1018" y="155"/>
      <point x="803" y="-30"/>
      <point x="535" y="-30" type="curve" smooth="yes"/>
      <point x="267" y="-30"/>
      <point x="50" y="155"/>
    </contour>
  </outline>
</glyph>
<glyph name="uni0483" format="2">
  <advance width="0"/>
  <unicode hex="0483"/>
  <anchor x="642" y="1040" name="_top_center"/>
  <outline>
    <contour>
      <point x="391" y="1119" type="curve" smooth="yes"/>
      <point x="317" y="1119"/>
      <point x="258" y="1178"/>
      <point x="258" y="1252" type="curve" smooth="yes"/>
      <point x="258" y="1326"/>
      <point x="317" y="1385"/>
      <point x="391" y="1385" type="curve" smooth="yes"/>
      <point x="465" y="1385"/>
      <point x="524" y="1326"/>
      <point x="524" y="1252" type="curve" smooth="yes"/>
      <point x="524" y="1178"/>
      <point x="465" y="1119"/>
    </contour>
    <contour>
      <point x="893" y="1459" type="curve" smooth="yes"/>
      <point x="967" y="1459"/>
      <point x="1026" y="1400"/>
      <point x="1026" y="1326" type="curve" smooth="yes"/>
      <point x="1026" y="1252"/>
      <point x="967" y="1193"/>
      <point x="893" y="1193" type="curve" smooth="yes"/>
      <point x="819" y="1193"/>
      <point x="760" y="1252"/>
      <point x="760" y="1326" type="curve" smooth="yes"/>
      <point x="760" y="1400"/>
      <point x="819" y="1459"/>
    </contour>
    <contour>
      <point x="391" y="1193" type="line"/>
      <point x="391" y="1385" type="line"/>
      <point x="893" y="1385" type="line"/>
      <point x="893" y="1193" type="line"/>
    </contour>
  </outline>
</glyph>
<glyph name="uni0484" format="2">
  <advance width="0"/>
  <unicode hex="0484"/>
  <anchor x="642" y="1040" name="_top_center"/>
  <outline>
    <contour>
      <point x="307" y="1205" type="line"/>
      <point x="587" y="1205"/>
      <point x="581" y="1320"/>
      <point x="703" y="1320" type="curve" smooth="yes"/>
      <point x="764" y="1320"/>
      <point x="790" y="1236"/>
      <point x="790" y="1205" type="curve"/>
      <point x="1009" y="1261" type="line"/>
      <point x="992" y="1378"/>
      <point x="879" y="1510"/>
      <point x="703" y="1510" type="curve" smooth="yes"/>
      <point x="543" y="1510"/>
      <point x="519" y="1395"/>
      <point x="307" y="1395" type="curve"/>
    </contour>
  </outline>
</glyph>
<glyph name="uni0487" format="2">
  <advance width="0"/>
  <unicode hex="0487"/>
  <anchor x="642" y="1040" name="_mkmk_top_center"/>
  <anchor x="642" y="1376" name="mkmk_top_center"/>
  <anchor x="642" y="1040" name="_top_center"/>
  <outline>
    <contour>
      <point x="1099" y="1180" type="line"/>
      <point x="811" y="1180"/>
      <point x="816" y="1330"/>
      <point x="612" y="1330" type="curve" smooth="yes"/>
      <point x="491" y="1330"/>
      <point x="435" y="1236"/>
      <point x="425" y="1175" type="curve"/>
      <point x="216" y="1231" type="line"/>
      <point x="233" y="1348"/>
      <point x="366" y="1510"/>
      <point x="612" y="1510" type="curve" smooth="yes"/>
      <point x="900" y="1510"/>
      <point x="895" y="1360"/>
      <point x="1099" y="1360" type="curve"/>
    </contour>
  </outline>
</glyph>
<glyph name="uni048A" format="2">
  <advance width="1604"/>
  <unicode hex="048A"/>
  <outline>
    <contour>
      <point x="1086" y="336" type="line"/>
      <point x="1086" y="0" type="line"/>
      <point x="1131" y="0" type="line"/>
      <point x="1052" y="-300" type="line"/>
      <point x="1436" y="-300" type="line"/>
      <point x="1604" y="336" type="line"/>
    </contour>
    <contour>
      <point x="741" y="1534" type="curve" smooth="yes"/>
      <point x="531" y="1534"/>
      <point x="405" y="1680"/>
      <point x="405" y="1820" type="curve"/>
      <point x="663" y="1820" type="line"/>
      <point x="663" y="1790"/>
      <point x="691" y="1744"/>
      <point x="741" y="1744" type="curve" smooth="yes"/>
      <point x="791" y="1744"/>
      <point x="817" y="1790"/>
      <point x="817" y="1820" type="curve"/>
      <point x="1077" y="1820" type="line"/>
      <point x="1077" y="1680"/>
      <point x="951" y="1534"/>
    </contour>
    <contour>
      <point x="1048" y="1480" type="line"/>
      <point x="450" y="652" type="line"/>
      <point x="450" y="1480" type="line"/>
      <point x="70" y="1480" type="line"/>
      <point x="70" y="0" type="line"/>
      <point x="434" y="0" type="line"/>
      <point x="1032" y="828" type="line"/>
      <point x="1032" y="0" type="line"/>
      <point x="1412" y="0" type="line"/>
      <point x="1412" y="1480" type="line"/>
    </contour>
  </outline>
</glyph>
<glyph name="uni048C" format="2">
  <advance width="1512"/>
  <unicode hex="048C"/>
  <outline>
    <contour>
      <point x="840" y="1120" type="line"/>
      <point x="0" y="1120" type="line"/>
      <point x="0" y="1166"/>
      <point x="0" y="1314"/>
      <point x="0" y="1360" type="curve"/>
      <point x="840" y="1360" type="line"/>
    </contour>
    <contour>
      <point x="590" y="336" type="line"/>
      <point x="891" y="336" type="line"/>
      <point x="1011" y="336"/>
      <point x="1082" y="416"/>
      <point x="1082" y="496" type="curve" smooth="yes"/>
      <point x="1082" y="576"/>
      <point x="1011" y="656"/>
      <point x="891" y="656" type="curve"/>
      <point x="590" y="656" type="line"/>
    </contour>
    <contour>
      <point x="210" y="1480" type="line"/>
      <point x="590" y="1480" type="line"/>
      <point x="590" y="976" type="line"/>
      <point x="891" y="976" type="line"/>
      <point x="1257" y="976"/>
      <point x="1462" y="751"/>
      <point x="1462" y="496" type="curve" smooth="yes"/>
      <point x="1462" y="241"/>
      <point x="1257" y="0"/>
      <point x="891" y="0" type="curve"/>
      <point x="210" y="0" type="line"/>
    </contour>
  </outline>
</glyph>
<glyph name="uni048D" format="2">
  <advance width="1250"/>
  <unicode hex="048D"/>
  <outline>
    <contour>
      <point x="774" y="679" type="line"/>
      <point x="1068" y="679"/>
      <point x="1200" y="534"/>
      <point x="1200" y="340" type="curve" smooth="yes"/>
      <point x="1200" y="126"/>
      <point x="1068" y="0"/>
      <point x="774" y="0" type="curve"/>
      <point x="180" y="0" type="line"/>
      <point x="180" y="1480" type="line"/>
      <point x="540" y="1480" type="line"/>
      <point x="540" y="679" type="line"/>
    </contour>
    <contour>
      <point x="774" y="378" type="curve"/>
      <point x="540" y="378" type="line"/>
      <point x="540" y="318" type="line"/>
      <point x="774" y="318" type="line"/>
      <point x="820" y="318"/>
      <point x="840" y="326"/>
      <point x="840" y="348" type="curve" smooth="yes"/>
      <point x="840" y="370"/>
      <point x="820" y="378"/>
    </contour>
    <contour>
      <point x="720" y="1078" type="line"/>
      <point x="0" y="1078" type="line"/>
      <point x="0" y="1124"/>
      <point x="0" y="1272"/>
      <point x="0" y="1318" type="curve"/>
      <point x="720" y="1318" type="line"/>
    </contour>
  </outline>
</glyph>
<glyph name="uni049F" format="2">
  <advance width="1303"/>
  <unicode hex="049F"/>
  <outline>
    <contour>
      <point x="840" y="1120" type="line"/>
      <point x="0" y="1120" type="line"/>
      <point x="0" y="1166"/>
      <point x="0" y="1314"/>
      <point x="0" y="1360" type="curve"/>
      <point x="840" y="1360" type="line"/>
    </contour>
    <contour>
      <point x="425" y="643" type="line"/>
      <point x="822" y="660" type="line"/>
      <point x="1298" y="0" type="line"/>
      <point x="878" y="0" type="line"/>
    </contour>
    <contour>
      <point x="570" y="344" type="line"/>
      <point x="570" y="0" type="line"/>
      <point x="210" y="0" type="line"/>
      <point x="210" y="1480" type="line"/>
      <point x="570" y="1480" type="line"/>
      <point x="570" y="808" type="line"/>
      <point x="802" y="1040" type="line"/>
      <point x="874" y="1040"/>
      <point x="1194" y="1040"/>
      <point x="1266" y="1040" type="curve"/>
    </contour>
  </outline>
</glyph>
<glyph name="uni04B6" format="2">
  <advance width="1499"/>
  <unicode hex="04B6"/>
  <outline>
    <contour>
      <point x="994" y="336" type="line"/>
      <point x="1464" y="336" type="line"/>
      <point x="1464" y="-300" type="line"/>
      <point x="1084" y="-300" type="line"/>
      <point x="1084" y="0" type="line"/>
      <point x="994" y="0" type="line"/>
    </contour>
    <contour>
      <point x="667" y="570" type="curve" smooth="yes"/>
      <point x="308" y="570"/>
      <point x="70" y="731"/>
      <point x="70" y="1151" type="curve"/>
      <point x="70" y="1480" type="line"/>
      <point x="450" y="1480" type="line"/>
      <point x="450" y="1151" type="line" smooth="yes"/>
      <point x="450" y="993"/>
      <point x="509" y="906"/>
      <point x="667" y="906" type="curve" smooth="yes"/>
      <point x="925" y="906"/>
      <point x="980" y="1054"/>
      <point x="980" y="1054" type="curve"/>
      <point x="1170" y="795" type="line"/>
      <point x="1170" y="795"/>
      <point x="1086" y="570"/>
    </contour>
    <contour>
      <point x="894" y="0" type="line"/>
      <point x="894" y="1480" type="line"/>
      <point x="1274" y="1480" type="line"/>
      <point x="1274" y="0" type="line"/>
    </contour>
  </outline>
</glyph>
<glyph name="uni04FB" format="2">
  <advance width="1119"/>
  <unicode hex="04FB"/>
  <outline>
    <contour>
      <point x="480" y="320" type="line"/>
      <point x="930" y="320" type="line"/>
      <point x="930" y="0" type="line" smooth="yes"/>
      <point x="930" y="-250"/>
      <point x="735" y="-404"/>
      <point x="485" y="-404" type="curve" smooth="yes"/>
      <point x="473" y="-404"/>
      <point x="461" y="-404"/>
      <point x="449" y="-403" type="curve"/>
      <point x="449" y="-77" type="line"/>
      <point x="460" y="-82"/>
      <point x="472" y="-84"/>
      <point x="485" y="-84" type="curve" smooth="yes"/>
      <point x="535" y="-84"/>
      <point x="570" y="-50"/>
      <point x="570" y="0" type="curve"/>
      <point x="480" y="0" type="line"/>
    </contour>
    <contour>
      <point x="860" y="400" type="line"/>
      <point x="0" y="400" type="line"/>
      <point x="0" y="446"/>
      <point x="0" y="594"/>
      <point x="0" y="640" type="curve"/>
      <point x="860" y="640" type="line"/>
    </contour>
    <contour>
      <point x="570" y="512" type="line"/>
      <point x="570" y="462" type="line"/>
      <point x="570" y="0" type="line"/>
      <point x="210" y="0" type="line"/>
      <point x="210" y="1040" type="line"/>
      <point x="1049" y="1040" type="line"/>
      <point x="1049" y="720" type="line"/>
      <point x="570" y="720" type="line"/>
    </contour>
  </outline>
</glyph>
<glyph name="uni04FF" format="2">
  <advance width="1212"/>
  <unicode hex="04FF"/>
  <outline>
    <contour>
      <point x="1097" y="440" type="line"/>
      <point x="115" y="440" type="line"/>
      <point x="115" y="486"/>
      <point x="115" y="554"/>
      <point x="115" y="600" type="curve"/>
      <point x="1097" y="600" type="line"/>
    </contour>
    <contour>
      <point x="349" y="520" type="line"/>
      <point x="35" y="1040" type="line"/>
      <point x="452" y="1040" type="line"/>
      <point x="606" y="743" type="line"/>
      <point x="757" y="1040" type="line"/>
      <point x="1177" y="1040" type="line"/>
      <point x="863" y="520" type="line"/>
      <point x="1177" y="0" type="line"/>
      <point x="757" y="0" type="line"/>
      <point x="604" y="300" type="line"/>
      <point x="455" y="0" type="line"/>
      <point x="35" y="0" type="line"/>
    </contour>
  </outline>
</glyph>
<glyph name="uni0500" format="2">
  <advance width="1372"/>
  <unicode hex="0500"/>
  <outline>
    <contour>
      <point x="922" y="336" type="line"/>
      <point x="621" y="336" type="line"/>
      <point x="501" y="336"/>
      <point x="430" y="416"/>
      <point x="430" y="496" type="curve" smooth="yes"/>
      <point x="430" y="576"/>
      <point x="501" y="656"/>
      <point x="621" y="656" type="curve"/>
      <point x="922" y="656" type="line"/>
    </contour>
    <contour>
      <point x="1302" y="1480" type="line"/>
      <point x="922" y="1480" type="line"/>
      <point x="922" y="976" type="line"/>
      <point x="621" y="976" type="line"/>
      <point x="255" y="976"/>
      <point x="50" y="751"/>
      <point x="50" y="496" type="curve" smooth="yes"/>
      <point x="50" y="241"/>
      <point x="255" y="0"/>
      <point x="621" y="0" type="curve"/>
      <point x="1302" y="0" type="line"/>
    </contour>
  </outline>
</glyph>
<glyph name="uni0502" format="2">
  <advance width="2088"/>
  <unicode hex="0502"/>
  <outline>
    <contour>
      <point x="926" y="901" type="line"/>
      <point x="926" y="1480" type="line"/>
      <point x="1306" y="1480" type="line"/>
      <point x="1306" y="466" type="line" smooth="yes"/>
      <point x="1306" y="211"/>
      <point x="1103" y="-30"/>
      <point x="737" y="-30" type="curve"/>
      <point x="625" y="-30" type="line"/>
      <point x="282" y="-30"/>
      <point x="50" y="153"/>
      <point x="50" y="443" type="curve" smooth="yes"/>
      <point x="50" y="733"/>
      <point x="282" y="901"/>
      <point x="625" y="901" type="curve"/>
    </contour>
    <contour>
      <point x="926" y="585" type="line"/>
      <point x="625" y="585" type="line"/>
      <point x="524" y="585"/>
      <point x="430" y="548"/>
      <point x="430" y="453" type="curve" smooth="yes"/>
      <point x="430" y="358"/>
      <point x="524" y="306"/>
      <point x="625" y="306" type="curve"/>
      <point x="737" y="306" type="line"/>
      <point x="857" y="306"/>
      <point x="926" y="386"/>
      <point x="926" y="466" type="curve" smooth="yes"/>
    </contour>
    <contour>
      <point x="2018" y="1039" type="line"/>
      <point x="2018" y="466" type="line"/>
      <point x="2018" y="146"/>
      <point x="1792" y="-32"/>
      <point x="1472" y="-32" type="curve" smooth="yes"/>
      <point x="1152" y="-32"/>
      <point x="926" y="146"/>
      <point x="926" y="466" type="curve"/>
      <point x="1306" y="466" type="line"/>
      <point x="1306" y="356"/>
      <point x="1342" y="304"/>
      <point x="1472" y="304" type="curve" smooth="yes"/>
      <point x="1602" y="304"/>
      <point x="1638" y="356"/>
      <point x="1638" y="466" type="curve" smooth="yes"/>
      <point x="1638" y="1039" type="line"/>
    </contour>
  </outline>
</glyph>
<glyph name="uni0507" format="2">
  <advance width="1252"/>
  <unicode hex="0507"/>
  <outline>
    <contour>
      <point x="767" y="320" type="line"/>
      <point x="767" y="0" type="line"/>
      <point x="857" y="0" type="line"/>
      <point x="857" y="-300" type="line"/>
      <point x="1217" y="-300" type="line"/>
      <point x="1217" y="320" type="line"/>
    </contour>
    <contour>
      <point x="397" y="674" type="line"/>
      <point x="397" y="414" type="line"/>
      <point x="477" y="414" type="line"/>
      <point x="477" y="674" type="line"/>
    </contour>
    <contour>
      <point x="50" y="808" type="curve"/>
      <point x="409" y="711" type="line"/>
      <point x="409" y="738"/>
      <point x="427" y="750"/>
      <point x="477" y="750" type="curve" smooth="yes"/>
      <point x="527" y="750"/>
      <point x="545" y="736"/>
      <point x="545" y="712" type="curve" smooth="yes"/>
      <point x="545" y="688"/>
      <point x="527" y="674"/>
      <point x="477" y="674" type="curve"/>
      <point x="477" y="542" type="line"/>
      <point x="735" y="542"/>
      <point x="905" y="616"/>
      <point x="905" y="774" type="curve" smooth="yes"/>
      <point x="905" y="932"/>
      <point x="735" y="1070"/>
      <point x="477" y="1070" type="curve" smooth="yes"/>
      <point x="219" y="1070"/>
      <point x="75" y="957"/>
    </contour>
    <contour>
      <point x="677" y="318" type="curve"/>
      <point x="677" y="0" type="line"/>
      <point x="1037" y="0" type="line"/>
      <point x="1037" y="318" type="line"/>
      <point x="1037" y="496"/>
      <point x="885" y="674"/>
      <point x="477" y="674" type="curve"/>
      <point x="477" y="414" type="line"/>
      <point x="647" y="414"/>
      <point x="677" y="348"/>
    </contour>
  </outline>
</glyph>
<glyph name="uni050A" format="2">
  <advance width="2194"/>
  <unicode hex="050A"/>
  <outline>
    <contour>
      <point x="1412" y="468" type="line" smooth="yes"/>
      <point x="1412" y="358"/>
      <point x="1448" y="306"/>
      <point x="1578" y="306" type="curve" smooth="yes"/>
      <point x="1708" y="306"/>
      <point x="1744" y="358"/>
      <point x="1744" y="468" type="curve" smooth="yes"/>
      <point x="1744" y="1041" type="line"/>
      <point x="2124" y="1041" type="line"/>
      <point x="2124" y="468" type="line"/>
      <point x="2124" y="148"/>
      <point x="1898" y="-30"/>
      <point x="1578" y="-30" type="curve" smooth="yes"/>
      <point x="1258" y="-30"/>
      <point x="1032" y="148"/>
      <point x="1032" y="468" type="curve" smooth="yes"/>
      <point x="1032" y="572" type="line"/>
      <point x="450" y="572" type="line"/>
      <point x="450" y="0" type="line"/>
      <point x="70" y="0" type="line"/>
      <point x="70" y="1480" type="line"/>
      <point x="450" y="1480" type="line"/>
      <point x="450" y="908" type="line"/>
      <point x="1032" y="908" type="line"/>
      <point x="1032" y="1480" type="line"/>
      <point x="1412" y="1480" type="line"/>
    </contour>
  </outline>
</glyph>
<glyph name="uni0515" format="2">
  <advance width="1833"/>
  <unicode hex="0515"/>
  <outline>
    <contour>
      <point x="970" y="520" type="line"/>
      <point x="750" y="885" type="line"/>
      <point x="1073" y="1040" type="line"/>
      <point x="1227" y="743" type="line"/>
      <point x="1378" y="1040" type="line"/>
      <point x="1798" y="1040" type="line"/>
      <point x="1484" y="520" type="line"/>
      <point x="1798" y="0" type="line"/>
      <point x="1378" y="0" type="line"/>
      <point x="1225" y="300" type="line"/>
      <point x="1076" y="0" type="line"/>
      <point x="656" y="0" type="line"/>
    </contour>
    <contour>
      <point x="1173" y="720" type="line"/>
      <point x="581" y="720" type="line"/>
      <point x="553" y="420" type="line" smooth="yes"/>
      <point x="525" y="128"/>
      <point x="374" y="-30"/>
      <point x="5" y="-30" type="curve"/>
      <point x="5" y="290" type="line"/>
      <point x="117" y="290"/>
      <point x="189" y="326"/>
      <point x="200" y="420" type="curve" smooth="yes"/>
      <point x="271" y="1040" type="line"/>
      <point x="1073" y="1040" type="line"/>
    </contour>
  </outline>
</glyph>
